<?xml version="1.0" encoding="UTF-8" standalone="no"?>
<!-- Created with Inkscape (http://www.inkscape.org/) -->

<svg
   xmlns:dc="http://purl.org/dc/elements/1.1/"
   xmlns:cc="http://creativecommons.org/ns#"
   xmlns:rdf="http://www.w3.org/1999/02/22-rdf-syntax-ns#"
   xmlns:svg="http://www.w3.org/2000/svg"
   xmlns="http://www.w3.org/2000/svg"
   version="1.1"
   width="196.33051"
   height="105.12263"
   id="svg3307">
  <defs
     id="defs3309">
    <clipPath
       id="clipPath3032">
      <path
         d="m 5.433,694.488 213.543,0 0,147.402 -213.543,0 0,-147.402 z"
         id="path3034" />
    </clipPath>
  </defs>
  <metadata
     id="metadata3312">
    <rdf:RDF>
      <cc:Work
         rdf:about="">
        <dc:format>image/svg+xml</dc:format>
        <dc:type
           rdf:resource="http://purl.org/dc/dcmitype/StillImage" />
        <dc:title></dc:title>
      </cc:Work>
    </rdf:RDF>
  </metadata>
  <g
     transform="translate(-218.9776,-499.8009)"
     id="layer1">
    <g
       transform="matrix(1.25,0,0,-1.25,180.57198,1512.5984)"
       id="g3028">
      <g
         clip-path="url(#clipPath3032)"
         id="g3030">
        <g
           transform="translate(42.4329,797.9078)"
           id="g3036">
          <path
             d="m 0,0 c -3.653,0 -5.062,-3.14 -5.062,-6.247 0,-3.268 1.473,-6.28 5.222,-6.28 3.716,0 4.966,3.172 4.966,6.408 C 5.126,-3.011 3.524,0 0,0 m -7.689,8.33 2.723,0 0,-8.554 0.064,0 c 0.897,1.826 3.011,2.627 5.286,2.627 5.094,0 7.625,-4.037 7.625,-8.715 0,-4.677 -2.499,-8.618 -7.561,-8.618 -1.698,0 -4.133,0.641 -5.35,2.595 l -0.064,0 0,-2.21 -2.723,0 0,22.875 z"
             id="path3038"
             style="fill:#009ee0;fill-opacity:1;fill-rule:nonzero;stroke:none" />
        </g>
        <g
           transform="translate(52.6521,799.9264)"
           id="g3040">
          <path
             d="m 0,0 2.563,0 0,-3.492 0.064,0 c 1.313,2.659 3.14,3.973 6.087,3.876 l 0,-2.883 c -4.389,0 -5.991,-2.499 -5.991,-6.696 l 0,-7.369 -2.723,0 L 0,0 z"
             id="path3042"
             style="fill:#009ee0;fill-opacity:1;fill-rule:nonzero;stroke:none" />
        </g>
        <path
           d="m 63.097,799.926 2.723,0 0,-16.564 -2.723,0 0,16.564 z m 2.723,2.98 -2.723,0 0,3.332 2.723,0 0,-3.332 z"
           id="path3044"
           style="fill:#009ee0;fill-opacity:1;fill-rule:nonzero;stroke:none" />
        <g
           transform="translate(81.1655,791.9805)"
           id="g3046">
          <path
             d="m 0,0 c 0,2.916 -1.281,5.927 -4.709,5.927 -3.493,0 -4.902,-2.851 -4.902,-6.023 0,-2.98 1.089,-6.311 4.678,-6.311 C -1.345,-6.407 0,-3.108 0,0 m 2.691,-7.208 c 0,-5.383 -2.466,-8.138 -7.689,-8.138 -3.108,0 -6.696,1.249 -6.856,4.87 l 2.723,0 c 0.129,-1.987 2.499,-2.692 4.294,-2.692 3.556,0 4.966,2.564 4.966,6.28 l 0,1.089 -0.065,0 c -0.896,-2.018 -3.075,-3.011 -5.158,-3.011 -4.934,0 -7.401,3.877 -7.401,8.394 0,3.908 1.923,8.746 7.658,8.746 2.082,0 3.94,-0.929 4.933,-2.755 l 0.033,0 0,2.371 2.562,0 0,-15.154 z"
             id="path3048"
             style="fill:#009ee0;fill-opacity:1;fill-rule:nonzero;stroke:none" />
        </g>
        <g
           transform="translate(87.0605,806.2375)"
           id="g3050">
          <path
             d="m 0,0 2.723,0 0,-8.746 0.064,0 c 0.898,1.986 3.236,2.819 5.223,2.819 4.357,0 5.702,-2.499 5.702,-6.055 l 0,-10.893 -2.723,0 0,11.213 c 0,2.019 -1.282,3.332 -3.364,3.332 -3.3,0 -4.902,-2.211 -4.902,-5.19 l 0,-9.355 -2.723,0 L 0,0 z"
             id="path3052"
             style="fill:#009ee0;fill-opacity:1;fill-rule:nonzero;stroke:none" />
        </g>
        <g
           transform="translate(107.7575,799.9264)"
           id="g3054">
          <path
             d="m 0,0 3.3,0 0,-2.403 -3.3,0 0,-10.284 c 0,-1.25 0.352,-1.474 2.05,-1.474 l 1.25,0 0,-2.403 -2.083,0 c -2.819,0 -3.94,0.577 -3.94,3.621 l 0,10.54 -2.82,0 0,2.403 2.82,0 0,4.966 L 0,4.966 0,0 z"
             id="path3056"
             style="fill:#009ee0;fill-opacity:1;fill-rule:nonzero;stroke:none" />
        </g>
        <g
           transform="translate(114.8374,788.5847)"
           id="g3058">
          <path
             d="m 0,0 c 0.096,-2.435 2.211,-3.204 4.453,-3.204 1.698,0 4.005,0.385 4.005,2.467 0,2.115 -2.691,2.467 -5.414,3.076 -2.692,0.609 -5.415,1.505 -5.415,4.677 0,3.332 3.3,4.71 6.184,4.71 3.652,0 6.567,-1.154 6.792,-5.19 l -2.724,0 C 7.689,8.65 5.831,9.323 4.037,9.323 2.404,9.323 0.513,8.874 0.513,7.208 c 0,-1.954 2.883,-2.274 5.414,-2.883 2.723,-0.609 5.415,-1.506 5.415,-4.709 0,-3.941 -3.684,-5.223 -7.049,-5.223 -3.716,0 -6.856,1.506 -7.016,5.607 L 0,0 z"
             id="path3060"
             style="fill:#009ee0;fill-opacity:1;fill-rule:nonzero;stroke:none" />
        </g>
        <path
           d="m 128.454,799.926 2.723,0 0,-16.564 -2.723,0 0,16.564 z m 2.723,2.98 -2.723,0 0,3.332 2.723,0 0,-3.332 z"
           id="path3062"
           style="fill:#009ee0;fill-opacity:1;fill-rule:nonzero;stroke:none" />
        <g
           transform="translate(146.1059,791.9805)"
           id="g3064">
          <path
             d="m 0,0 c 0,2.916 -1.281,5.927 -4.709,5.927 -3.493,0 -4.903,-2.851 -4.903,-6.023 0,-2.98 1.091,-6.311 4.679,-6.311 C -1.345,-6.407 0,-3.108 0,0 m 2.691,-7.208 c 0,-5.383 -2.466,-8.138 -7.688,-8.138 -3.109,0 -6.697,1.249 -6.856,4.87 l 2.722,0 c 0.129,-1.987 2.499,-2.692 4.294,-2.692 3.556,0 4.965,2.564 4.965,6.28 l 0,1.089 -0.063,0 c -0.898,-2.018 -3.076,-3.011 -5.158,-3.011 -4.935,0 -7.402,3.877 -7.402,8.394 0,3.908 1.922,8.746 7.658,8.746 2.081,0 3.941,-0.929 4.933,-2.755 l 0.032,0 0,2.371 2.563,0 0,-15.154 z"
             id="path3066"
             style="fill:#009ee0;fill-opacity:1;fill-rule:nonzero;stroke:none" />
        </g>
        <g
           transform="translate(152.0017,806.2375)"
           id="g3068">
          <path
             d="m 0,0 2.722,0 0,-8.746 0.064,0 c 0.897,1.986 3.236,2.819 5.224,2.819 4.356,0 5.701,-2.499 5.701,-6.055 l 0,-10.893 -2.723,0 0,11.213 c 0,2.019 -1.282,3.332 -3.363,3.332 -3.301,0 -4.903,-2.211 -4.903,-5.19 l 0,-9.355 -2.722,0 L 0,0 z"
             id="path3070"
             style="fill:#009ee0;fill-opacity:1;fill-rule:nonzero;stroke:none" />
        </g>
        <g
           transform="translate(172.6985,799.9264)"
           id="g3072">
          <path
             d="m 0,0 3.299,0 0,-2.403 -3.299,0 0,-10.284 c 0,-1.25 0.351,-1.474 2.05,-1.474 l 1.249,0 0,-2.403 -2.082,0 c -2.82,0 -3.941,0.577 -3.941,3.621 l 0,10.54 -2.819,0 0,2.403 2.819,0 0,4.966 L 0,4.966 0,0 z"
             id="path3074"
             style="fill:#009ee0;fill-opacity:1;fill-rule:nonzero;stroke:none" />
        </g>
        <g
           transform="translate(180.1599,802.0198)"
           id="g3076">
          <path
             d="m 0,0 0.57,0 c 0.48,0 0.921,0.025 0.921,0.577 0,0.464 -0.401,0.537 -0.769,0.537 L 0,1.114 0,0 z m -0.544,1.554 1.353,0 c 0.834,0 1.227,-0.328 1.227,-1.001 0,-0.633 -0.401,-0.897 -0.922,-0.953 l 1.002,-1.546 -0.585,0 -0.953,1.506 -0.578,0 0,-1.506 -0.544,0 0,3.5 z m 1.17,-4.309 c 1.386,0 2.458,1.106 2.458,2.571 0,1.433 -1.072,2.54 -2.458,2.54 -1.402,0 -2.475,-1.107 -2.475,-2.54 0,-1.465 1.073,-2.571 2.475,-2.571 m 0,5.551 c 1.634,0 3.003,-1.29 3.003,-2.98 0,-1.722 -1.369,-3.012 -3.003,-3.012 -1.643,0 -3.02,1.29 -3.02,3.012 0,1.69 1.377,2.98 3.02,2.98"
             id="path3078"
             style="fill:#009ee0;fill-opacity:1;fill-rule:nonzero;stroke:none" />
        </g>
        <g
           transform="translate(36.6385,733.8647)"
           id="g3080">
          <path
             d="m 0,0 c 1.225,-1.164 2.89,-1.819 4.622,-1.819 l 38.717,0 c 1.734,0 3.397,0.655 4.623,1.819 1.226,1.164 1.915,2.742 1.915,4.388 l 0,27.377 c 0,1.645 -0.689,3.224 -1.915,4.388 -1.226,1.164 -2.889,1.818 -4.623,1.818 l -38.717,0 C 2.89,37.971 1.225,37.317 0,36.153 -1.226,34.989 -1.914,33.41 -1.914,31.765 l 0,-27.377 C -1.914,2.742 -1.226,1.164 0,0"
             id="path3082"
             style="fill:#009ee0;fill-opacity:1;fill-rule:evenodd;stroke:none" />
        </g>
        <g
           transform="translate(98.6591,765.7958)"
           id="g3084">
          <path
             d="m 0,0 c -0.401,-1.039 -0.762,-1.421 -1.544,-1.421 -0.206,0 -0.413,0.02 -0.608,0.092 l 0,0.804 c 0.165,-0.052 0.34,-0.123 0.515,-0.123 0.36,0 0.556,0.174 0.721,0.483 l 0.36,0.907 -2.111,5.292 0.989,0 1.555,-4.355 0.02,0 1.494,4.355 0.927,0 L 0,0 z"
             id="path3086"
             style="fill:#009ee0;fill-opacity:1;fill-rule:nonzero;stroke:none" />
        </g>
        <g
           transform="translate(104.0143,767.155)"
           id="g3088">
          <path
             d="M 0,0 C 0.916,0 1.658,0.721 1.658,2.008 1.658,3.306 0.916,4.027 0,4.027 -0.916,4.027 -1.658,3.306 -1.658,2.008 -1.658,0.721 -0.916,0 0,0 m 0,4.799 c 1.688,0 2.584,-1.226 2.584,-2.791 0,-1.555 -0.896,-2.78 -2.584,-2.78 -1.689,0 -2.585,1.225 -2.585,2.78 0,1.565 0.896,2.791 2.585,2.791"
             id="path3090"
             style="fill:#009ee0;fill-opacity:1;fill-rule:nonzero;stroke:none" />
        </g>
        <g
           transform="translate(112.0361,766.5065)"
           id="g3092">
          <path
             d="m 0,0 -0.824,0 0,0.844 -0.021,0 c -0.37,-0.659 -0.967,-0.967 -1.73,-0.967 -1.4,0 -1.832,0.803 -1.832,1.946 l 0,3.501 0.875,0 0,-3.604 c 0,-0.649 0.412,-1.071 1.082,-1.071 1.06,0 1.575,0.71 1.575,1.668 l 0,3.007 L 0,5.324 0,0 z"
             id="path3094"
             style="fill:#009ee0;fill-opacity:1;fill-rule:nonzero;stroke:none" />
        </g>
        <g
           transform="translate(113.3234,771.8303)"
           id="g3096">
          <path
             d="m 0,0 0.825,0 0,-1.122 0.02,0 c 0.422,0.854 1.009,1.277 1.956,1.246 l 0,-0.927 c -1.411,0 -1.925,-0.803 -1.925,-2.153 l 0,-2.368 L 0,-5.324 0,0 z"
             id="path3098"
             style="fill:#009ee0;fill-opacity:1;fill-rule:nonzero;stroke:none" />
        </g>
        <g
           transform="translate(99.0714,759.7394)"
           id="g3100">
          <path
             d="m 0,0 c -1.174,0 -1.627,-1.009 -1.627,-2.008 0,-1.05 0.473,-2.019 1.678,-2.019 1.195,0 1.597,1.02 1.597,2.06 C 1.648,-0.968 1.133,0 0,0 m -2.472,0.648 0.876,0 0,-0.72 0.021,0 c 0.288,0.587 0.967,0.845 1.698,0.845 1.638,0 2.452,-1.298 2.452,-2.802 0,-1.503 -0.804,-2.769 -2.431,-2.769 -0.546,0 -1.328,0.205 -1.719,0.833 l -0.021,0 0,-2.75 -0.876,0 0,7.363 z"
             id="path3102"
             style="fill:#009ee0;fill-opacity:1;fill-rule:nonzero;stroke:none" />
        </g>
        <g
           transform="translate(105.9708,757.813)"
           id="g3104">
          <path
             d="m 0,0 c -0.34,-0.246 -0.999,-0.257 -1.587,-0.36 -0.576,-0.103 -1.07,-0.308 -1.07,-0.957 0,-0.577 0.494,-0.784 1.03,-0.784 1.153,0 1.627,0.722 1.627,1.206 L 0,0 z M 1.421,-2.729 C 1.267,-2.82 1.071,-2.872 0.793,-2.872 c -0.453,0 -0.742,0.246 -0.742,0.823 -0.483,-0.566 -1.133,-0.823 -1.875,-0.823 -0.967,0 -1.759,0.432 -1.759,1.493 0,1.205 0.895,1.462 1.802,1.637 0.968,0.186 1.791,0.124 1.791,0.784 0,0.762 -0.628,0.884 -1.183,0.884 -0.742,0 -1.288,-0.225 -1.329,-1.009 l -0.876,0 c 0.052,1.318 1.071,1.783 2.256,1.783 0.957,0 1.998,-0.217 1.998,-1.464 l 0,-2.739 c 0,-0.412 0,-0.598 0.277,-0.598 0.072,0 0.154,0.011 0.268,0.052 l 0,-0.68 z"
             id="path3106"
             style="fill:#009ee0;fill-opacity:1;fill-rule:nonzero;stroke:none" />
        </g>
        <g
           transform="translate(108.1744,760.3875)"
           id="g3108">
          <path
             d="m 0,0 0.825,0 0,-1.122 0.02,0 c 0.422,0.855 1.009,1.277 1.956,1.247 l 0,-0.927 c -1.411,0 -1.925,-0.804 -1.925,-2.152 l 0,-2.369 L 0,-5.323 0,0 z"
             id="path3110"
             style="fill:#009ee0;fill-opacity:1;fill-rule:nonzero;stroke:none" />
        </g>
        <g
           transform="translate(113.158,760.3875)"
           id="g3112">
          <path
             d="m 0,0 1.061,0 0,-0.771 -1.061,0 0,-3.306 c 0,-0.402 0.114,-0.474 0.659,-0.474 l 0.402,0 0,-0.772 -0.67,0 c -0.905,0 -1.266,0.185 -1.266,1.164 l 0,3.388 -0.906,0 0,0.771 0.906,0 0,1.597 L 0,1.597 0,0 z"
             id="path3114"
             style="fill:#009ee0;fill-opacity:1;fill-rule:nonzero;stroke:none" />
        </g>
        <g
           transform="translate(115.1872,760.3875)"
           id="g3116">
          <path
             d="m 0,0 0.823,0 0,-0.844 0.022,0 c 0.371,0.66 0.967,0.969 1.73,0.969 1.4,0 1.832,-0.804 1.832,-1.946 l 0,-3.502 -0.875,0 0,3.604 c 0,0.649 -0.412,1.071 -1.08,1.071 -1.062,0 -1.577,-0.711 -1.577,-1.668 l 0,-3.007 L 0,-5.323 0,0 z"
             id="path3118"
             style="fill:#009ee0;fill-opacity:1;fill-rule:nonzero;stroke:none" />
        </g>
        <g
           transform="translate(124.6092,758.2354)"
           id="g3120">
          <path
             d="M 0,0 C -0.04,0.835 -0.668,1.504 -1.534,1.504 -2.45,1.504 -2.997,0.814 -3.058,0 L 0,0 z m 0.845,-1.482 c -0.237,-1.174 -1.082,-1.812 -2.275,-1.812 -1.701,0 -2.503,1.173 -2.555,2.8 0,1.596 1.051,2.771 2.503,2.771 1.884,0 2.461,-1.761 2.409,-3.048 l -3.985,0 c -0.031,-0.927 0.495,-1.752 1.658,-1.752 0.721,0 1.226,0.351 1.38,1.041 l 0.865,0 z"
             id="path3122"
             style="fill:#009ee0;fill-opacity:1;fill-rule:nonzero;stroke:none" />
        </g>
        <g
           transform="translate(126.4116,760.3875)"
           id="g3124">
          <path
             d="m 0,0 0.824,0 0,-1.122 0.021,0 c 0.421,0.855 1.009,1.277 1.956,1.247 l 0,-0.927 c -1.41,0 -1.926,-0.804 -1.926,-2.152 l 0,-2.369 L 0,-5.323 0,0 z"
             id="path3126"
             style="fill:#009ee0;fill-opacity:1;fill-rule:nonzero;stroke:none" />
        </g>
        <path
           d="m 96.62,748.945 0.876,0 0,-5.323 -0.876,0 0,5.323 z m 0.876,0.959 -0.876,0 0,1.07 0.876,0 0,-1.07 z"
           id="path3128"
           style="fill:#009ee0;fill-opacity:1;fill-rule:nonzero;stroke:none" />
        <g
           transform="translate(98.8552,748.9453)"
           id="g3130">
          <path
             d="m 0,0 0.823,0 0,-0.844 0.021,0 c 0.371,0.66 0.968,0.969 1.731,0.969 1.4,0 1.833,-0.804 1.833,-1.946 l 0,-3.502 -0.876,0 0,3.604 c 0,0.649 -0.412,1.071 -1.081,1.071 -1.061,0 -1.576,-0.711 -1.576,-1.668 l 0,-3.007 L 0,-5.323 0,0 z"
             id="path3132"
             style="fill:#009ee0;fill-opacity:1;fill-rule:nonzero;stroke:none" />
        </g>
        <g
           transform="translate(107.9788,745.3004)"
           id="g3134">
          <path
             d="m 0,0 c 0.03,-0.782 0.711,-1.03 1.431,-1.03 0.546,0 1.288,0.124 1.288,0.793 0,0.68 -0.865,0.793 -1.741,0.989 -0.865,0.196 -1.74,0.484 -1.74,1.503 0,1.071 1.06,1.515 1.988,1.515 1.173,0 2.111,-0.371 2.183,-1.669 l -0.876,0 C 2.472,2.78 1.874,2.997 1.297,2.997 0.772,2.997 0.164,2.853 0.164,2.317 0.164,1.689 1.092,1.587 1.905,1.39 2.781,1.196 3.646,0.906 3.646,-0.123 3.646,-1.39 2.462,-1.801 1.38,-1.801 0.185,-1.801 -0.824,-1.319 -0.875,0 L 0,0 z"
             id="path3136"
             style="fill:#009ee0;fill-opacity:1;fill-rule:nonzero;stroke:none" />
        </g>
        <g
           transform="translate(116.289,746.7931)"
           id="g3138">
          <path
             d="M 0,0 C -0.04,0.835 -0.668,1.504 -1.534,1.504 -2.45,1.504 -2.997,0.814 -3.058,0 L 0,0 z m 0.845,-1.482 c -0.237,-1.174 -1.082,-1.812 -2.275,-1.812 -1.701,0 -2.503,1.173 -2.555,2.8 0,1.596 1.051,2.771 2.503,2.771 1.884,0 2.461,-1.761 2.409,-3.048 l -3.985,0 c -0.03,-0.927 0.495,-1.752 1.658,-1.752 0.721,0 1.226,0.351 1.38,1.041 l 0.865,0 z"
             id="path3140"
             style="fill:#009ee0;fill-opacity:1;fill-rule:nonzero;stroke:none" />
        </g>
        <g
           transform="translate(121.7374,747.2368)"
           id="g3142">
          <path
             d="m 0,0 c -0.134,0.669 -0.598,1.06 -1.318,1.06 -1.268,0 -1.659,-0.999 -1.659,-2.08 0,-0.978 0.443,-1.947 1.556,-1.947 0.844,0 1.348,0.495 1.461,1.299 l 0.896,0 c -0.195,-1.299 -1.009,-2.07 -2.347,-2.07 -1.627,0 -2.492,1.132 -2.492,2.718 0,1.597 0.823,2.854 2.513,2.854 1.205,0 2.172,-0.568 2.295,-1.834 L 0,0 z"
             id="path3144"
             style="fill:#009ee0;fill-opacity:1;fill-rule:nonzero;stroke:none" />
        </g>
        <g
           transform="translate(128.0597,743.622)"
           id="g3146">
          <path
             d="m 0,0 -0.825,0 0,0.845 -0.02,0 c -0.371,-0.66 -0.967,-0.968 -1.729,-0.968 -1.402,0 -1.833,0.802 -1.833,1.947 l 0,3.499 0.874,0 0,-3.603 c 0,-0.65 0.413,-1.072 1.081,-1.072 1.062,0 1.576,0.711 1.576,1.669 l 0,3.006 L 0,5.323 0,0 z"
             id="path3148"
             style="fill:#009ee0;fill-opacity:1;fill-rule:nonzero;stroke:none" />
        </g>
        <g
           transform="translate(129.347,748.9453)"
           id="g3150">
          <path
             d="m 0,0 0.825,0 0,-1.122 0.02,0 c 0.422,0.855 1.009,1.277 1.956,1.247 l 0,-0.927 c -1.411,0 -1.925,-0.804 -1.925,-2.152 l 0,-2.369 L 0,-5.323 0,0 z"
             id="path3152"
             style="fill:#009ee0;fill-opacity:1;fill-rule:nonzero;stroke:none" />
        </g>
        <path
           d="m 132.858,748.945 0.876,0 0,-5.323 -0.876,0 0,5.323 z m 0.876,0.959 -0.876,0 0,1.07 0.876,0 0,-1.07 z"
           id="path3154"
           style="fill:#009ee0;fill-opacity:1;fill-rule:nonzero;stroke:none" />
        <g
           transform="translate(136.3084,748.9453)"
           id="g3156">
          <path
             d="m 0,0 1.06,0 0,-0.771 -1.06,0 0,-3.306 c 0,-0.402 0.113,-0.474 0.659,-0.474 l 0.401,0 0,-0.772 -0.669,0 c -0.906,0 -1.267,0.185 -1.267,1.164 l 0,3.388 -0.905,0 0,0.771 0.905,0 0,1.597 L 0,1.597 0,0 z"
             id="path3158"
             style="fill:#009ee0;fill-opacity:1;fill-rule:nonzero;stroke:none" />
        </g>
        <g
           transform="translate(140.4272,742.9113)"
           id="g3160">
          <path
             d="m 0,0 c -0.402,-1.039 -0.762,-1.421 -1.544,-1.421 -0.206,0 -0.413,0.02 -0.608,0.092 l 0,0.804 c 0.165,-0.052 0.34,-0.123 0.515,-0.123 0.361,0 0.555,0.174 0.721,0.483 l 0.36,0.907 -2.111,5.292 0.989,0 1.555,-4.356 0.02,0 1.493,4.356 0.927,0 L 0,0 z"
             id="path3162"
             style="fill:#009ee0;fill-opacity:1;fill-rule:nonzero;stroke:none" />
        </g>
        <g
           transform="translate(99.8642,734.9285)"
           id="g3164">
          <path
             d="m 0,0 c -0.34,-0.246 -0.999,-0.257 -1.586,-0.36 -0.577,-0.103 -1.071,-0.308 -1.071,-0.958 0,-0.576 0.494,-0.783 1.03,-0.783 1.153,0 1.627,0.722 1.627,1.206 L 0,0 z M 1.421,-2.729 C 1.267,-2.82 1.071,-2.872 0.793,-2.872 c -0.453,0 -0.742,0.246 -0.742,0.823 -0.483,-0.566 -1.132,-0.823 -1.874,-0.823 -0.968,0 -1.76,0.432 -1.76,1.493 0,1.205 0.895,1.462 1.801,1.637 0.969,0.186 1.792,0.124 1.792,0.783 0,0.763 -0.628,0.885 -1.184,0.885 -0.741,0 -1.287,-0.225 -1.328,-1.009 l -0.876,0 c 0.052,1.318 1.071,1.783 2.256,1.783 0.957,0 1.997,-0.217 1.997,-1.464 l 0,-2.739 c 0,-0.412 0,-0.598 0.278,-0.598 0.072,0 0.155,0.011 0.268,0.052 l 0,-0.68 z"
             id="path3166"
             style="fill:#009ee0;fill-opacity:1;fill-rule:nonzero;stroke:none" />
        </g>
        <g
           transform="translate(104.6009,736.8549)"
           id="g3168">
          <path
             d="m 0,0 c -1.174,0 -1.627,-1.009 -1.627,-2.008 0,-1.05 0.474,-2.019 1.678,-2.019 1.196,0 1.597,1.02 1.597,2.06 C 1.648,-0.968 1.133,0 0,0 m -2.471,0.648 0.875,0 0,-0.719 0.021,0 c 0.288,0.586 0.968,0.844 1.699,0.844 1.637,0 2.451,-1.298 2.451,-2.802 0,-1.503 -0.803,-2.769 -2.43,-2.769 -0.546,0 -1.329,0.205 -1.72,0.833 l -0.021,0 0,-2.75 -0.875,0 0,7.363 z"
             id="path3170"
             style="fill:#009ee0;fill-opacity:1;fill-rule:nonzero;stroke:none" />
        </g>
        <g
           transform="translate(110.7086,736.8549)"
           id="g3172">
          <path
             d="m 0,0 c -1.175,0 -1.628,-1.009 -1.628,-2.008 0,-1.05 0.474,-2.019 1.679,-2.019 1.194,0 1.596,1.02 1.596,2.06 C 1.647,-0.968 1.132,0 0,0 m -2.472,0.648 0.875,0 0,-0.719 0.022,0 c 0.288,0.586 0.967,0.844 1.698,0.844 1.638,0 2.452,-1.298 2.452,-2.802 0,-1.503 -0.805,-2.769 -2.432,-2.769 -0.545,0 -1.327,0.205 -1.718,0.833 l -0.022,0 0,-2.75 -0.875,0 0,7.363 z"
             id="path3174"
             style="fill:#009ee0;fill-opacity:1;fill-rule:nonzero;stroke:none" />
        </g>
        <g
           transform="translate(114.281,737.503)"
           id="g3176">
          <path
             d="m 0,0 0.823,0 0,-1.122 0.022,0 c 0.421,0.855 1.009,1.277 1.956,1.247 l 0,-0.927 c -1.41,0 -1.926,-0.804 -1.926,-2.152 l 0,-2.369 L 0,-5.323 0,0 z"
             id="path3178"
             style="fill:#009ee0;fill-opacity:1;fill-rule:nonzero;stroke:none" />
        </g>
        <g
           transform="translate(119.8535,732.8278)"
           id="g3180">
          <path
             d="M 0,0 C 0.916,0 1.658,0.722 1.658,2.009 1.658,3.306 0.916,4.027 0,4.027 -0.916,4.027 -1.658,3.306 -1.658,2.009 -1.658,0.722 -0.916,0 0,0 m 0,4.8 c 1.69,0 2.586,-1.227 2.586,-2.791 0,-1.555 -0.896,-2.78 -2.586,-2.78 -1.688,0 -2.583,1.225 -2.583,2.78 0,1.564 0.895,2.791 2.583,2.791"
             id="path3182"
             style="fill:#009ee0;fill-opacity:1;fill-rule:nonzero;stroke:none" />
        </g>
        <g
           transform="translate(125.8674,732.1797)"
           id="g3184">
          <path
             d="m 0,0 -0.936,0 -1.978,5.323 0.979,0 1.493,-4.438 0.021,0 1.451,4.438 0.917,0 L 0,0 z"
             id="path3186"
             style="fill:#009ee0;fill-opacity:1;fill-rule:nonzero;stroke:none" />
        </g>
        <g
           transform="translate(131.9126,734.9285)"
           id="g3188">
          <path
             d="m 0,0 c -0.34,-0.246 -0.999,-0.257 -1.586,-0.36 -0.576,-0.103 -1.071,-0.308 -1.071,-0.958 0,-0.576 0.495,-0.783 1.03,-0.783 1.153,0 1.627,0.722 1.627,1.206 L 0,0 z M 1.421,-2.729 C 1.267,-2.82 1.072,-2.872 0.793,-2.872 c -0.453,0 -0.742,0.246 -0.742,0.823 -0.482,-0.566 -1.131,-0.823 -1.874,-0.823 -0.967,0 -1.759,0.432 -1.759,1.493 0,1.205 0.895,1.462 1.801,1.637 0.968,0.186 1.792,0.124 1.792,0.783 0,0.763 -0.628,0.885 -1.184,0.885 -0.742,0 -1.288,-0.225 -1.329,-1.009 l -0.875,0 c 0.052,1.318 1.071,1.783 2.255,1.783 0.958,0 1.998,-0.217 1.998,-1.464 l 0,-2.739 c 0,-0.412 0,-0.598 0.277,-0.598 0.073,0 0.155,0.011 0.268,0.052 l 0,-0.68 z"
             id="path3190"
             style="fill:#009ee0;fill-opacity:1;fill-rule:nonzero;stroke:none" />
        </g>
        <path
           d="m 134.199,739.532 0.876,0 0,-7.352 -0.876,0 0,7.352 z"
           id="path3192"
           style="fill:#009ee0;fill-opacity:1;fill-rule:nonzero;stroke:none" />
      </g>
    </g>
  </g>
</svg>
