<?xml version="1.0" encoding="UTF-8" standalone="no"?>
<!-- Created with Inkscape (http://www.inkscape.org/) -->

<svg
   xmlns:dc="http://purl.org/dc/elements/1.1/"
   xmlns:cc="http://creativecommons.org/ns#"
   xmlns:rdf="http://www.w3.org/1999/02/22-rdf-syntax-ns#"
   xmlns:svg="http://www.w3.org/2000/svg"
   xmlns="http://www.w3.org/2000/svg"
   version="1.1"
   width="166.25"
   height="171.25"
   id="svg2"
   xml:space="preserve"><metadata
     id="metadata8"><rdf:RDF><cc:Work
         rdf:about=""><dc:format>image/svg+xml</dc:format><dc:type
           rdf:resource="http://purl.org/dc/dcmitype/StillImage" /><dc:title></dc:title></cc:Work></rdf:RDF></metadata><defs
     id="defs6" /><g
     transform="matrix(1.25,0,0,-1.25,0,171.25)"
     id="g10"><path
       d="m 11.8398,81.152 8.625,10.716 21.7282,0 0,-84.15628 -16.5008,7.31838 -13.8524,12.5449 0,53.577"
       id="path14"
       style="fill:#ffffff;fill-opacity:1;fill-rule:evenodd;stroke:none" /><path
       d="m 39.9238,43.1391 52.4524,0 -2.134,-24.759 -23.5172,-7.0563 -26.5398,1.0453 -0.2614,30.77"
       id="path16"
       style="fill:#ffffff;fill-opacity:1;fill-rule:evenodd;stroke:none" /><path
       d="m 39.9238,43.1391 52.4524,0 -2.134,-24.759 -23.5172,-7.0563 -26.5398,1.0453 -0.2614,30.77 z"
       id="path18"
       style="fill:none;stroke:#ffffff;stroke-width:0.21600001;stroke-linecap:butt;stroke-linejoin:miter;stroke-miterlimit:22.9260006;stroke-opacity:1;stroke-dasharray:none" /><path
       d="M 46.4898,129.93 109.348,108.709 127.873,47.4672 46.4051,47.4961 46.4898,129.93"
       id="path20"
       style="fill:#ffffff;fill-opacity:1;fill-rule:evenodd;stroke:none" /><path
       d="m 96.5309,47.4578 c 2.1722,4.7043 3.3871,9.941 3.3871,15.4613 0,20.3868 -16.534,36.9207 -36.9211,36.9207 -5.9391,0 -11.5481,-1.4058 -16.5188,-3.8968 l 0,-48.4852 50.0528,0"
       id="path22"
       style="fill:#bac3c8;fill-opacity:1;fill-rule:evenodd;stroke:none" /><path
       d="m 91.134,47.4578 c 2.5262,4.5871 3.9648,9.8563 3.9648,15.4613 0,17.727 -14.3758,32.102 -32.1019,32.102 -6.0418,0 -11.6918,-1.6723 -16.5188,-4.575 l 0,-42.9883 44.6559,0"
       id="path24"
       style="fill:#fff200;fill-opacity:1;fill-rule:evenodd;stroke:none" /><path
       d="m 23.7219,52.2941 c 0,12.584 7.648,23.3899 18.5312,28.0231 l 0,-37.1551 40.902,0 C 79.273,30.8301 67.7359,21.8969 54.118,21.8969 c -16.7621,0 -30.3961,13.5961 -30.3961,30.3972"
       id="path26"
       style="fill:#bac3c8;fill-opacity:1;fill-rule:evenodd;stroke:none" /><path
       d="m 27.818,52.2961 c 0,10.2617 5.8769,19.1559 14.4351,23.5019 l 0,-32.6359 36.5719,0 C 75.107,33.134 65.4461,25.993 54.1211,25.993 39.616,25.993 27.818,37.7578 27.818,52.2961"
       id="path28"
       style="fill:#fff200;fill-opacity:1;fill-rule:evenodd;stroke:none" /><path
       d="m 0.0730469,53.3379 c 0,25.6742 17.9429531,47.0391 42.1800531,51.9651 l 0,-14.5889 C 25.8922,86.1121 14.241,71.173 14.241,53.3379 c 0,-21.5027 17.4399,-38.943 38.9442,-38.943 17.7988,0 32.932,12.4332 37.5707,28.7942 l 14.7631,0 C 100.593,18.9531 78.8602,0.262891 53.1852,0.262891 23.8422,0.262891 0.0730469,24.0309 0.0730469,53.3379"
       id="path30"
       style="fill:#bac3c8;fill-opacity:1;fill-rule:evenodd;stroke:none" /><path
       d="m 80.4059,70.3551 c 0,4.0988 3.4519,7.4429 7.7671,7.4429 4.279,0 7.7668,-3.3441 7.7668,-7.4429 0,-4.1352 -3.4878,-7.4442 -7.7668,-7.4442 -4.3152,0 -7.7671,3.309 -7.7671,7.4442"
       id="path32"
       style="fill:#ffffff;fill-opacity:1;fill-rule:evenodd;stroke:none" /><path
       d="m 80.4059,70.3551 c 0,4.0988 3.4519,7.4429 7.7671,7.4429 4.279,0 7.7668,-3.3441 7.7668,-7.4429 0,-4.1352 -3.4878,-7.4442 -7.7668,-7.4442 -4.3152,0 -7.7671,3.309 -7.7671,7.4442 z"
       id="path34"
       style="fill:none;stroke:#bac3c8;stroke-width:2.55299997;stroke-linecap:butt;stroke-linejoin:miter;stroke-miterlimit:22.9260006;stroke-opacity:1;stroke-dasharray:none" /><path
       d="m 60.0172,88.1539 c 0,4.0992 3.4519,7.4441 7.7668,7.4441 4.2789,0 7.7672,-3.3449 7.7672,-7.4441 0,-4.1348 -3.4883,-7.443 -7.7672,-7.443 -4.3149,0 -7.7668,3.3082 -7.7668,7.443"
       id="path36"
       style="fill:#ffffff;fill-opacity:1;fill-rule:evenodd;stroke:none" /><path
       d="m 60.0172,88.1539 c 0,4.0992 3.4519,7.4441 7.7668,7.4441 4.2789,0 7.7672,-3.3449 7.7672,-7.4441 0,-4.1348 -3.4883,-7.443 -7.7672,-7.443 -4.3149,0 -7.7668,3.3082 -7.7668,7.443 z"
       id="path38"
       style="fill:none;stroke:#bac3c8;stroke-width:2.55299997;stroke-linecap:butt;stroke-linejoin:miter;stroke-miterlimit:22.9260006;stroke-opacity:1;stroke-dasharray:none" /><path
       d="m 64.548,67.2621 c 0,2.9488 2.5168,5.3578 5.645,5.3578 3.1289,0 5.682,-2.409 5.682,-5.3578 0,-2.948 -2.5531,-5.3223 -5.682,-5.3223 -3.1282,0 -5.645,2.3743 -5.645,5.3223"
       id="path40"
       style="fill:#ffffff;fill-opacity:1;fill-rule:evenodd;stroke:none" /><path
       d="m 64.548,67.2621 c 0,2.9488 2.5168,5.3578 5.645,5.3578 3.1289,0 5.682,-2.409 5.682,-5.3578 0,-2.948 -2.5531,-5.3223 -5.682,-5.3223 -3.1282,0 -5.645,2.3743 -5.645,5.3223 z"
       id="path42"
       style="fill:none;stroke:#bac3c8;stroke-width:2.55299997;stroke-linecap:butt;stroke-linejoin:miter;stroke-miterlimit:22.9260006;stroke-opacity:1;stroke-dasharray:none" /><path
       d="m 88.4969,56.9059 c 0,2.2293 1.941,4.0632 4.3511,4.0632 2.409,0 4.3872,-1.8339 4.3872,-4.0632 0,-2.2289 -1.9782,-4.027 -4.3872,-4.027 -2.4101,0 -4.3511,1.7981 -4.3511,4.027"
       id="path44"
       style="fill:#ffffff;fill-opacity:1;fill-rule:evenodd;stroke:none" /><path
       d="m 88.4969,56.9059 c 0,2.2293 1.941,4.0632 4.3511,4.0632 2.409,0 4.3872,-1.8339 4.3872,-4.0632 0,-2.2289 -1.9782,-4.027 -4.3872,-4.027 -2.4101,0 -4.3511,1.7981 -4.3511,4.027 z"
       id="path46"
       style="fill:none;stroke:#bac3c8;stroke-width:2.55299997;stroke-linecap:butt;stroke-linejoin:miter;stroke-miterlimit:22.9260006;stroke-opacity:1;stroke-dasharray:none" /><path
       d="m 61.6281,132.152 c 37.8989,0 68.6349,-30.736 68.6349,-68.6348 0,-5.5313 -0.66,-10.907 -1.896,-16.0594 l -18.225,0 0.003,0.0082 c 1.67,5.0481 2.576,10.443 2.576,16.0512 0,28.2129 -22.88,51.0938 -51.0929,51.0938 -5.2793,0 -10.3679,-0.803 -15.157,-2.289 l 0,18.15 c 4.8758,1.1 9.948,1.68 15.157,1.68"
       id="path48"
       style="fill:#bac3c8;fill-opacity:1;fill-rule:evenodd;stroke:none" /><path
       d="M 97.6301,135.943 86.0512,108.327 73.5379,78.5531 l 2.5891,0.216 0.3589,-2.9492 55.9171,24.4521 -34.7729,35.671"
       id="path50"
       style="fill:#ffffff;fill-opacity:1;fill-rule:evenodd;stroke:none" /><path
       d="M 97.6301,135.943 86.0512,108.327 73.5379,78.5531 l 2.5891,0.216 0.3589,-2.9492 55.9171,24.4521 -34.7729,35.671 z"
       id="path52"
       style="fill:none;stroke:#ffffff;stroke-width:0.108;stroke-linecap:butt;stroke-linejoin:miter;stroke-miterlimit:22.9260006;stroke-opacity:1;stroke-dasharray:none" /><path
       d="m 75.4379,79.848 c 1.168,0 2.116,-0.948 2.116,-2.116 0,-1.1691 -0.948,-2.116 -2.116,-2.116 -1.1688,0 -2.116,0.9469 -2.116,2.116 0,1.168 0.9472,2.116 2.116,2.116"
       id="path54"
       style="fill:#ffffff;fill-opacity:1;fill-rule:evenodd;stroke:none" /><path
       d="m 75.4379,79.848 c 1.168,0 2.116,-0.948 2.116,-2.116 0,-1.1691 -0.948,-2.116 -2.116,-2.116 -1.1688,0 -2.116,0.9469 -2.116,2.116 0,1.168 0.9472,2.116 2.116,2.116 z"
       id="path56"
       style="fill:none;stroke:#ffffff;stroke-width:0.09100001;stroke-linecap:butt;stroke-linejoin:miter;stroke-miterlimit:22.9260006;stroke-opacity:1;stroke-dasharray:none" /><path
       d="M 98.925,129.147 87.3102,101.459 78.7879,81.034 125.642,101.674 98.925,129.147"
       id="path58"
       style="fill:#242122;fill-opacity:1;fill-rule:evenodd;stroke:none" /></g></svg>