<?xml version="1.0" encoding="UTF-8" standalone="no"?>
<!-- Created with Inkscape (http://www.inkscape.org/) -->

<svg
   xmlns:dc="http://purl.org/dc/elements/1.1/"
   xmlns:cc="http://creativecommons.org/ns#"
   xmlns:rdf="http://www.w3.org/1999/02/22-rdf-syntax-ns#"
   xmlns:svg="http://www.w3.org/2000/svg"
   xmlns="http://www.w3.org/2000/svg"
   xmlns:sodipodi="http://sodipodi.sourceforge.net/DTD/sodipodi-0.dtd"
   xmlns:inkscape="http://www.inkscape.org/namespaces/inkscape"
   version="1.0"
   width="216.28"
   height="74.32"
   id="svg2"
   xml:space="preserve"
   inkscape:version="0.48.4 r9939"
   sodipodi:docname="Gemalto.svg"
   inkscape:export-filename="Gemalto.png"
   inkscape:export-xdpi="426.10999"
   inkscape:export-ydpi="426.10999"><metadata
     id="metadata3189"><rdf:RDF><cc:Work
         rdf:about=""><dc:format>image/svg+xml</dc:format><dc:type
           rdf:resource="http://purl.org/dc/dcmitype/StillImage" /><dc:title></dc:title></cc:Work></rdf:RDF></metadata><sodipodi:namedview
     pagecolor="#ffffff"
     bordercolor="#666666"
     borderopacity="1"
     objecttolerance="10"
     gridtolerance="10"
     guidetolerance="10"
     inkscape:pageopacity="0"
     inkscape:pageshadow="2"
     inkscape:window-width="1438"
     inkscape:window-height="879"
     id="namedview3187"
     showgrid="false"
     inkscape:zoom="4.3417691"
     inkscape:cx="119.47318"
     inkscape:cy="25.770786"
     inkscape:window-x="0"
     inkscape:window-y="19"
     inkscape:window-maximized="0"
     inkscape:current-layer="svg2" /><defs
     id="defs5"><clipPath
       id="clipPath17"><path
         d="M 0,0 L 1247.244,0 L 1247.244,793.701 L 0,793.701 L 0,0 z"
         id="path19" /></clipPath><clipPath
       id="clipPath25"><path
         d="M 144.855,675.552 L 418.829,675.552 L 418.829,401.529 L 144.855,401.529 L 144.855,675.552 z"
         id="path27" /></clipPath><clipPath
       id="clipPath41"><path
         d="M 158.686,661.734 L 404.996,661.734 L 404.996,415.35 L 158.686,415.35 L 158.686,661.734 z"
         id="path43" /></clipPath><clipPath
       id="clipPath57"><path
         d="M 47.6141,381.631 L 224.023,381.631 L 224.023,205.191 L 47.6141,205.191 L 47.6141,381.631 z"
         id="path59" /></clipPath><clipPath
       id="clipPath73"><path
         d="M 56.4835,372.77 L 215.152,372.77 L 215.152,214.054 L 56.4835,214.054 L 56.4835,372.77 z"
         id="path75" /></clipPath><clipPath
       id="clipPath89"><path
         d="M 219.11,468.558 L 666.453,468.558 L 666.453,21.1358 L 219.11,21.1358 L 219.11,468.558 z"
         id="path91" /></clipPath><clipPath
       id="clipPath105"><path
         d="M 241.758,445.932 L 643.803,445.932 L 643.803,43.7662 L 241.758,43.7662 L 241.758,445.932 z"
         id="path107" /></clipPath><clipPath
       id="clipPath121"><path
         d="M 42.937,760.685 L 215.165,760.685 L 215.165,703.299 L 42.937,703.299 L 42.937,760.685 z"
         id="path123" /></clipPath><clipPath
       id="clipPath125"><path
         d="M 43.937,704.299 L 214.165,704.299 L 214.165,759.685 L 43.937,759.685 L 43.937,704.299 z"
         id="path127" /></clipPath><clipPath
       id="clipPath239"><path
         d="M 0,0 L 1247.244,0 L 1247.244,793.701 L 0,793.701 L 0,0 z"
         id="path241" /></clipPath><clipPath
       id="clipPath247"><path
         d="M 1015.82,99.172 L 1196.56,99.172 L 1196.56,39.0161 L 1015.82,39.0161 L 1015.82,99.172 z"
         id="path249" /></clipPath><clipPath
       id="clipPath251"><path
         d="M 1016.82,40.016 L 1195.56,40.016 L 1195.56,98.172 L 1016.82,98.172 L 1016.82,40.016 z"
         id="path253" /></clipPath><clipPath
       id="clipPath345"><path
         d="M 475.221,853 L 1306.4,853 L 1306.4,21.6772 L 475.221,21.6772 L 475.221,853 z"
         id="path347" /></clipPath><clipPath
       id="clipPath361"><path
         d="M 517.388,810.874 L 1264.22,810.874 L 1264.22,63.8123 L 517.388,63.8123 L 517.388,810.874 z"
         id="path363" /></clipPath><clipPath
       id="clipPath395"><path
         d="M 0,0 L 1247.244,0 L 1247.244,793.701 L 0,793.701 L 0,0 z"
         id="path397" /></clipPath></defs><g
     transform="matrix(1.25,0,0,-1.25,-1279.0475,122.715)"
     id="g11"><g
       id="g235"><g
         clip-path="url(#clipPath239)"
         id="g237"><g
           transform="translate(0.7986055,-0.7986055)"
           id="g243"><g
             id="g245" /><g
             id="g255"><g
               clip-path="url(#clipPath247)"
               id="g257"><g
                 id="g259"><g
                   clip-path="url(#clipPath251)"
                   id="g261"><g
                     transform="translate(1072.3552,44.9801)"
                     id="g263"><path
                       d="M 0,0 C 0.039,-0.956 0.916,-1.259 1.846,-1.259 C 2.547,-1.259 3.503,-1.11 3.503,-0.287 C 3.503,0.541 2.389,0.682 1.259,0.922 C 0.145,1.16 -0.983,1.512 -0.983,2.761 C -0.983,4.071 0.387,4.615 1.578,4.615 C 3.09,4.615 4.296,4.161 4.389,2.572 L 3.262,2.572 C 3.186,3.401 2.413,3.668 1.669,3.668 C 0.995,3.668 0.21,3.495 0.21,2.836 C 0.21,2.068 1.408,1.941 2.455,1.703 C 3.584,1.463 4.698,1.11 4.698,-0.156 C 4.698,-1.7 3.17,-2.209 1.777,-2.209 C 0.24,-2.209 -1.063,-1.613 -1.129,0 L 0,0"
                       id="path265"
                       style="fill:#ef7c00;fill-opacity:1;fill-rule:nonzero;stroke:none" /></g><g
                     transform="translate(1083.1942,46.8073)"
                     id="g267"><path
                       d="M 0,0 C -0.051,1.021 -0.861,1.841 -1.976,1.841 C -3.156,1.841 -3.862,0.998 -3.939,0 L 0,0 z M 1.087,-1.816 C 0.785,-3.25 -0.305,-4.036 -1.842,-4.036 C -4.032,-4.036 -5.069,-2.596 -5.135,-0.605 C -5.135,1.35 -3.78,2.788 -1.909,2.788 C 0.517,2.788 1.263,0.631 1.195,-0.945 L -3.939,-0.945 C -3.982,-2.082 -3.304,-3.086 -1.804,-3.086 C -0.873,-3.086 -0.225,-2.658 -0.023,-1.816 L 1.087,-1.816"
                       id="path269"
                       style="fill:#ef7c00;fill-opacity:1;fill-rule:nonzero;stroke:none" /></g><g
                     transform="translate(1090.3461,47.3487)"
                     id="g271"><path
                       d="M 0,0 C -0.17,0.822 -0.77,1.299 -1.697,1.299 C -3.332,1.299 -3.833,0.077 -3.833,-1.245 C -3.833,-2.444 -3.263,-3.627 -1.833,-3.627 C -0.742,-3.627 -0.093,-3.024 0.053,-2.038 L 1.21,-2.038 C 0.957,-3.627 -0.093,-4.578 -1.815,-4.578 C -3.913,-4.578 -5.028,-3.189 -5.028,-1.245 C -5.028,0.708 -3.967,2.247 -1.789,2.247 C -0.241,2.247 1.007,1.555 1.167,0 L 0,0"
                       id="path273"
                       style="fill:#ef7c00;fill-opacity:1;fill-rule:nonzero;stroke:none" /></g><g
                     transform="translate(1098.6243,42.9281)"
                     id="g275"><path
                       d="M 0,0 L -1.063,0 L -1.063,1.033 L -1.086,1.033 C -1.568,0.225 -2.333,-0.157 -3.315,-0.157 C -5.118,-0.157 -5.679,0.828 -5.679,2.232 L -5.679,6.515 L -4.549,6.515 L -4.549,2.105 C -4.549,1.308 -4.019,0.793 -3.158,0.793 C -1.791,0.793 -1.129,1.659 -1.129,2.834 L -1.129,6.515 L 0,6.515 L 0,0"
                       id="path277"
                       style="fill:#ef7c00;fill-opacity:1;fill-rule:nonzero;stroke:none" /></g><g
                     transform="translate(1100.4136,49.4426)"
                     id="g279"><path
                       d="M 0,0 L 1.067,0 L 1.067,-1.374 L 1.087,-1.374 C 1.631,-0.326 2.389,0.188 3.611,0.153 L 3.611,-0.981 C 1.793,-0.981 1.13,-1.967 1.13,-3.615 L 1.13,-6.515 L 0,-6.515 L 0,0"
                       id="path281"
                       style="fill:#ef7c00;fill-opacity:1;fill-rule:nonzero;stroke:none" /></g><path
                     d="M 1106.203,50.616 L 1105.073,50.616 L 1105.073,51.928 L 1106.203,51.928 L 1106.203,50.616 z"
                     id="path283"
                     style="fill:#ef7c00;fill-opacity:1;fill-rule:nonzero;stroke:none" /><path
                     d="M 1105.072,49.443 L 1106.202,49.443 L 1106.202,42.928 L 1105.072,42.928 L 1105.072,49.443 z"
                     id="path285"
                     style="fill:#ef7c00;fill-opacity:1;fill-rule:nonzero;stroke:none" /><g
                     transform="translate(1109.6486,49.4426)"
                     id="g287"><path
                       d="M 0,0 L 1.364,0 L 1.364,-0.949 L 0,-0.949 L 0,-4.99 C 0,-5.482 0.146,-5.572 0.853,-5.572 L 1.364,-5.572 L 1.364,-6.515 L 0.506,-6.515 C -0.663,-6.515 -1.126,-6.29 -1.126,-5.093 L -1.126,-0.949 L -2.291,-0.949 L -2.291,0 L -1.126,0 L -1.126,1.954 L 0,1.954 L 0,0"
                       id="path289"
                       style="fill:#ef7c00;fill-opacity:1;fill-rule:nonzero;stroke:none" /></g><g
                     transform="translate(1115.087,42.0524)"
                     id="g291"><path
                       d="M 0,0 C -0.514,-1.271 -0.98,-1.733 -1.987,-1.733 C -2.252,-1.733 -2.519,-1.707 -2.768,-1.622 L -2.768,-0.642 C -2.558,-0.703 -2.333,-0.789 -2.105,-0.789 C -1.645,-0.789 -1.391,-0.577 -1.179,-0.196 L -0.716,0.915 L -3.435,7.39 L -2.16,7.39 L -0.157,2.06 L -0.13,2.06 L 1.795,7.39 L 2.987,7.39 L 0,0"
                       id="path293"
                       style="fill:#ef7c00;fill-opacity:1;fill-rule:nonzero;stroke:none" /></g><g
                     transform="translate(1124.291,49.4426)"
                     id="g295"><path
                       d="M 0,0 L 1.367,0 L 1.367,-0.949 L 0,-0.949 L 0,-4.99 C 0,-5.482 0.145,-5.572 0.853,-5.572 L 1.367,-5.572 L 1.367,-6.515 L 0.506,-6.515 C -0.665,-6.515 -1.13,-6.29 -1.13,-5.093 L -1.13,-0.949 L -2.296,-0.949 L -2.296,0 L -1.13,0 L -1.13,1.954 L 0,1.954 L 0,0"
                       id="path297"
                       style="fill:#ef7c00;fill-opacity:1;fill-rule:nonzero;stroke:none" /></g><g
                     transform="translate(1129.9961,43.7213)"
                     id="g299"><path
                       d="M 0,0 C 1.18,0 2.138,0.88 2.138,2.455 C 2.138,4.046 1.18,4.927 0,4.927 C -1.178,4.927 -2.136,4.046 -2.136,2.455 C -2.136,0.88 -1.178,0 0,0 M 0,5.874 C 2.178,5.874 3.331,4.373 3.331,2.455 C 3.331,0.555 2.178,-0.95 0,-0.95 C -2.174,-0.95 -3.328,0.555 -3.328,2.455 C -3.328,4.373 -2.174,5.874 0,5.874"
                       id="path301"
                       style="fill:#ef7c00;fill-opacity:1;fill-rule:nonzero;stroke:none" /></g><g
                     transform="translate(1141.5754,48.6481)"
                     id="g303"><path
                       d="M 0,0 C -1.512,0 -2.099,-1.236 -2.099,-2.458 C -2.099,-3.744 -1.486,-4.927 0.068,-4.927 C 1.605,-4.927 2.124,-3.682 2.124,-2.407 C 2.124,-1.183 1.459,0 0,0 M -3.185,3.28 L -2.055,3.28 L -2.055,-0.088 L -2.03,-0.088 C -1.661,0.628 -0.784,0.947 0.161,0.947 C 2.268,0.947 3.316,-0.644 3.316,-2.482 C 3.316,-4.323 2.282,-5.877 0.188,-5.877 C -0.519,-5.877 -1.528,-5.621 -2.03,-4.854 L -2.055,-4.854 L -2.055,-5.72 L -3.185,-5.72 L -3.185,3.28"
                       id="path305"
                       style="fill:#ef7c00;fill-opacity:1;fill-rule:nonzero;stroke:none" /></g><g
                     transform="translate(1151.115,46.8073)"
                     id="g307"><path
                       d="M 0,0 C -0.054,1.021 -0.864,1.841 -1.978,1.841 C -3.156,1.841 -3.859,0.998 -3.939,0 L 0,0 z M 1.087,-1.816 C 0.782,-3.25 -0.309,-4.036 -1.849,-4.036 C -4.034,-4.036 -5.07,-2.596 -5.138,-0.605 C -5.138,1.35 -3.781,2.788 -1.914,2.788 C 0.514,2.788 1.26,0.631 1.195,-0.945 L -3.939,-0.945 C -3.981,-2.082 -3.305,-3.086 -1.804,-3.086 C -0.878,-3.086 -0.226,-2.658 -0.027,-1.816 L 1.087,-1.816"
                       id="path309"
                       style="fill:#ef7c00;fill-opacity:1;fill-rule:nonzero;stroke:none" /></g><g
                     transform="translate(1157.7241,48.4938)"
                     id="g311"><path
                       d="M 0,0 L -1.155,0 L -1.155,0.949 L 0,0.949 L 0,1.918 C 0,2.976 0.663,3.531 1.895,3.531 C 2.107,3.531 2.413,3.495 2.626,3.434 L 2.626,2.499 C 2.423,2.559 2.189,2.585 1.986,2.585 C 1.444,2.585 1.129,2.425 1.129,1.857 L 1.129,0.949 L 2.453,0.949 L 2.453,0 L 1.129,0 L 1.129,-5.566 L 0,-5.566 L 0,0"
                       id="path313"
                       style="fill:#ef7c00;fill-opacity:1;fill-rule:nonzero;stroke:none" /></g><g
                     transform="translate(1161.2784,49.4426)"
                     id="g315"><path
                       d="M 0,0 L 1.059,0 L 1.059,-1.374 L 1.087,-1.374 C 1.633,-0.326 2.386,0.188 3.605,0.153 L 3.605,-0.981 C 1.791,-0.981 1.127,-1.967 1.127,-3.615 L 1.127,-6.515 L 0,-6.515 L 0,0"
                       id="path317"
                       style="fill:#ef7c00;fill-opacity:1;fill-rule:nonzero;stroke:none" /></g><g
                     transform="translate(1170.3905,46.8073)"
                     id="g319"><path
                       d="M 0,0 C -0.053,1.021 -0.861,1.841 -1.975,1.841 C -3.153,1.841 -3.859,0.998 -3.939,0 L 0,0 z M 1.089,-1.816 C 0.787,-3.25 -0.304,-4.036 -1.846,-4.036 C -4.031,-4.036 -5.069,-2.596 -5.132,-0.605 C -5.132,1.35 -3.778,2.788 -1.91,2.788 C 0.521,2.788 1.265,0.631 1.198,-0.945 L -3.939,-0.945 C -3.979,-2.082 -3.303,-3.086 -1.803,-3.086 C -0.876,-3.086 -0.222,-2.658 -0.025,-1.816 L 1.089,-1.816"
                       id="path321"
                       style="fill:#ef7c00;fill-opacity:1;fill-rule:nonzero;stroke:none" /></g><g
                     transform="translate(1177.6504,46.8073)"
                     id="g323"><path
                       d="M 0,0 C -0.055,1.021 -0.865,1.841 -1.975,1.841 C -3.161,1.841 -3.864,0.998 -3.939,0 L 0,0 z M 1.085,-1.816 C 0.784,-3.25 -0.304,-4.036 -1.848,-4.036 C -4.035,-4.036 -5.069,-2.596 -5.137,-0.605 C -5.137,1.35 -3.785,2.788 -1.909,2.788 C 0.517,2.788 1.263,0.631 1.195,-0.945 L -3.939,-0.945 C -3.982,-2.082 -3.303,-3.086 -1.803,-3.086 C -0.877,-3.086 -0.226,-2.658 -0.025,-1.816 L 1.085,-1.816"
                       id="path325"
                       style="fill:#ef7c00;fill-opacity:1;fill-rule:nonzero;stroke:none" /></g><g
                     transform="translate(1154.8236,57.8819)"
                     id="g327"><path
                       d="M 0,0 L 0,4.258 L -4.035,4.258 C -5.965,4.228 -6.115,5.793 -6.115,7.907 L -6.115,21.602 L -0.609,21.602 L -0.609,25.817 L -6.115,25.817 L -6.115,35.541 L -11.77,35.541 L -11.77,6.47 C -11.749,2.134 -10.582,0.008 -4.828,0.005 L -4.828,0 L 0,0"
                       id="path329"
                       style="fill:#000000;fill-opacity:1;fill-rule:nonzero;stroke:none" /></g><g
                     transform="translate(1194.6593,80.514)"
                     id="g331"><path
                       d="M 0,0 C -4.852,4.346 -6.833,5.123 -8.823,5.248 C -10.812,5.123 -12.797,4.346 -17.651,0 C -13.31,4.858 -12.528,6.849 -12.41,8.833 C -12.528,10.819 -13.31,12.808 -17.651,17.658 C -12.797,13.327 -10.812,12.538 -8.823,12.42 C -6.833,12.538 -4.852,13.327 0,17.658 C -4.337,12.808 -5.12,10.819 -5.245,8.833 C -5.12,6.849 -4.337,4.858 0,0"
                       id="path333"
                       style="fill:#ef7c00;fill-opacity:1;fill-rule:nonzero;stroke:none" /></g><path
                     d="M 1174.639,63.594 L 1160.08,63.594 L 1160.08,78.15 L 1174.639,78.15 L 1174.639,63.594 z M 1167.347,84.397 C 1159.118,84.397 1154.404,78.742 1154.404,70.897 C 1154.404,63.01 1159.118,57.362 1167.347,57.362 C 1175.591,57.362 1180.303,63.01 1180.303,70.897 C 1180.303,78.742 1175.591,84.397 1167.347,84.397"
                     id="path335"
                     style="fill:#000000;fill-opacity:1;fill-rule:nonzero;stroke:none" /><g
                     transform="translate(1125.585,66.6824)"
                     id="g337"><path
                       d="M 0,0 C 0,-3.573 -3.862,-4.862 -6.347,-4.862 C -8.331,-4.862 -11.554,-4.117 -11.554,-1.588 C -11.554,1.391 -9.368,2.285 -6.94,2.68 C -4.46,3.124 -1.729,3.079 0,4.215 L 0,0 z M -54.023,-0.593 L -59.084,-0.593 C -60.076,-3.419 -62.059,-4.862 -65.329,-4.862 C -70.051,-4.862 -72.229,-1.295 -72.229,2.73 L -54.023,2.73 L -54.023,-0.593 z M -65.48,13.245 C -61.669,13.245 -59.23,10.023 -59.035,6.448 L -72.229,6.448 C -72.082,10.27 -69.402,13.245 -65.48,13.245 M -89.945,-4.169 C -94.66,-4.169 -96.69,0.1 -96.69,4.31 C -96.69,8.581 -94.952,13.245 -89.945,13.245 C -85.029,13.245 -83.05,9.177 -83.05,4.763 C -83.05,0.398 -84.933,-4.169 -89.945,-4.169 M 8.715,26.74 L 8.715,-4.824 L 5.62,-4.824 L 5.62,11.028 C 5.147,15.863 0.157,17.715 -4.61,17.715 C -10.261,17.715 -15.867,15.779 -16.262,9.177 L -10.61,9.177 C -10.361,11.957 -8.126,13.245 -4.957,13.245 C -2.673,13.245 0.351,12.701 0.351,9.776 C 0.351,6.448 -3.269,6.899 -7.333,6.149 C -11.315,5.698 -15.526,4.889 -16.809,0.918 L -16.809,9.082 C -16.809,15.331 -19.986,17.715 -25.395,17.715 C -29.118,17.715 -31.55,16.078 -33.431,13.446 C -34.574,16.372 -37.502,17.715 -40.627,17.715 C -44.696,17.715 -46.83,15.977 -48.51,13.446 L -48.664,13.446 L -48.664,17.016 L -54.023,17.016 L -54.023,9.27 C -55.644,14.093 -59.786,17.715 -65.48,17.715 C -71.684,17.715 -75.985,13.593 -77.391,8.15 L -77.391,17.016 L -83.05,17.016 L -83.05,13.5 L -83.144,13.5 C -84.583,16.372 -87.509,17.715 -90.737,17.715 C -98.028,17.715 -102.347,11.759 -102.347,4.862 C -102.347,-2.48 -98.972,-8.638 -90.841,-8.638 C -87.662,-8.638 -84.736,-6.946 -83.144,-4.117 L -83.05,-4.117 L -83.05,-8.043 C -83.05,-12.257 -85.083,-14.588 -89.645,-14.588 C -92.524,-14.588 -95.097,-14.039 -95.799,-10.815 L -101.451,-10.815 C -100.959,-16.816 -95.151,-18.807 -89.991,-18.807 C -81.905,-18.807 -77.391,-14.99 -77.391,-7.295 L -77.391,-0.11 C -76.016,-5.669 -71.819,-9.32 -65.329,-9.32 C -60.107,-9.32 -55.609,-6.602 -54.023,-1.689 L -54.023,-8.638 L -48.367,-8.638 L -48.367,6.6 C -48.367,10.865 -45.684,13.245 -42.76,13.245 C -39.337,13.245 -38.245,11.359 -38.245,7.84 L -38.245,-8.638 L -32.59,-8.638 L -32.59,6.402 C -32.59,10.717 -30.949,13.245 -27.134,13.245 C -22.716,13.245 -22.467,10.418 -22.467,6.356 L -22.467,-8.638 L -16.809,-8.638 L -16.809,-4.329 C -15.667,-7.674 -12.198,-9.32 -8.431,-9.32 C -5.59,-9.32 -2.237,-8.48 0.011,-6.57 L 0.011,-6.589 L 0.022,-6.57 C 0.022,-7.696 0.897,-8.603 2.003,-8.656 L 14.363,-8.656 L 14.363,26.74 L 8.715,26.74"
                       id="path339"
                       style="fill:#000000;fill-opacity:1;fill-rule:nonzero;stroke:none" /></g></g></g></g></g></g></g></g></g></svg>