<?xml version="1.0" encoding="UTF-8" standalone="no"?>
<!-- Created with Inkscape (http://www.inkscape.org/) -->

<svg
   xmlns:dc="http://purl.org/dc/elements/1.1/"
   xmlns:cc="http://creativecommons.org/ns#"
   xmlns:rdf="http://www.w3.org/1999/02/22-rdf-syntax-ns#"
   xmlns:svg="http://www.w3.org/2000/svg"
   xmlns="http://www.w3.org/2000/svg"
   xmlns:sodipodi="http://sodipodi.sourceforge.net/DTD/sodipodi-0.dtd"
   xmlns:inkscape="http://www.inkscape.org/namespaces/inkscape"
   width="541.23181"
   height="196.69307"
   id="svg3183"
   version="1.1"
   inkscape:version="0.48.3.1 r9886"
   sodipodi:docname="New document 5">
  <defs
     id="defs3185" />
  <sodipodi:namedview
     id="base"
     pagecolor="#ffffff"
     bordercolor="#666666"
     borderopacity="1.0"
     inkscape:pageopacity="0.0"
     inkscape:pageshadow="2"
     inkscape:zoom="0.5"
     inkscape:cx="270.6159"
     inkscape:cy="98.346532"
     inkscape:document-units="px"
     inkscape:current-layer="layer1"
     showgrid="false"
     fit-margin-top="2"
     fit-margin-right="2"
     fit-margin-bottom="2"
     fit-margin-left="2"
     inkscape:window-width="1173"
     inkscape:window-height="543"
     inkscape:window-x="219"
     inkscape:window-y="165"
     inkscape:window-maximized="0" />
  <metadata
     id="metadata3188">
    <rdf:RDF>
      <cc:Work
         rdf:about="">
        <dc:format>image/svg+xml</dc:format>
        <dc:type
           rdf:resource="http://purl.org/dc/dcmitype/StillImage" />
        <dc:title></dc:title>
      </cc:Work>
    </rdf:RDF>
  </metadata>
  <g
     inkscape:label="Layer 1"
     inkscape:groupmode="layer"
     id="layer1"
     transform="translate(-104.3841,-434.01565)">
    <path
       style="fill:#b2bc35;fill-opacity:1"
       d="m 151.21772,476.72036 c -21.12247,0 -38.12546,13.13697 -43.4375,33.53125 -2.71444,10.42146 -1.44122,21.91063 3.5625,31.71875 4.80692,9.42233 16.11923,18.67901 27.375,22.40625 2.52471,0.83603 7.68822,1.22885 14,1.0625 8.85037,-0.23324 10.80522,-0.64655 16.8125,-3.46875 23.32318,-10.95715 33.01014,-37.91061 21.8125,-60.65625 -7.6007,-15.43921 -22.53303,-24.59375 -40.125,-24.59375 z m 0.0625,4.5 c 9.0293,0 9.98462,0.22139 17.1875,3.78125 8.7951,4.34678 15.13708,10.71039 19.46875,19.53125 2.54596,5.18453 2.78125,6.66856 2.78125,16.6875 0,10.01894 -0.23529,11.50298 -2.78125,16.6875 -5.53289,11.26701 -15.17367,19.27198 -27.0625,22.4375 -18.23184,4.85442 -37.54083,-4.51151 -46.34375,-22.4375 -2.54694,-5.18652 -2.8125,-6.64554 -2.8125,-16.6875 0,-10.40704 0.1893,-11.40782 3.25,-17.625 4.04008,-8.20657 11.07081,-14.94275 20.03125,-19.1875 6.09733,-2.88843 7.61876,-3.1875 16.28125,-3.1875 z m 2.5,3.46875 c -1.1664,0.0415 -2.7221,1.0346 -4.6875,3 -2.62323,2.62323 -10.81691,6.03125 -14.53125,6.03125 -0.72517,0 -1.34375,0.9 -1.34375,2 0,1.75757 0.66667,2 5.5,2 5.2,0 5.5,0.13636 5.5,2.5 0,2.4454 -0.16365,2.5 -7.53125,2.5 -8.74474,0 -13.00482,1.50427 -16.65625,5.84375 -7.21366,8.57295 -5.71284,22.75576 3.0625,28.71875 3.13001,2.1269 4.72891,2.4375 12.375,2.4375 8.16615,0 8.75,0.15743 8.75,2.0625 0,2.58746 -4.10094,6.73453 -8,8.09375 -1.9067,0.66468 -3,1.72446 -3,2.9375 0,1.79497 0.95809,1.90625 17,1.90625 16.4026,0 17,-0.0777 17,-2.03125 0,-1.28958 -0.99851,-2.39893 -2.75,-3.0625 -3.95435,-1.49814 -7.25,-4.88205 -7.25,-7.46875 0,-2.13649 0.42608,-2.26475 9.9375,-2.59375 9.45915,-0.3272 10.09244,-0.48787 13.09375,-3.34375 1.73402,-1.65 3.7351,-4.125 4.4375,-5.5 5.01745,-9.82216 0.58689,-23.39798 -8.78125,-26.9375 -1.54831,-0.58499 -6.38581,-1.0625 -10.75,-1.0625 l -7.9375,0 0,-4.34375 c 0,-2.39824 -0.27524,-6.44824 -0.625,-9 -0.43643,-3.1841 -1.31284,-4.74085 -2.8125,-4.6875 z m -11.65625,23.03125 c 2.02818,0 2.09375,0.45469 2.09375,13.5 l 0,13.5 -2.75,0 c -3.75185,-0.005 -8.81379,-3.28289 -10.6875,-6.90625 -2.09079,-4.04314 -1.93901,-9.91277 0.34375,-13.65625 1.96891,-3.22878 7.42893,-6.4375 11,-6.4375 z m 17.15625,0 c 5.28217,0 11.42459,5.6635 12.53125,11.5625 0.82062,4.37431 -2.47209,11.35787 -6.46875,13.71875 -1.60905,0.95049 -4.07237,1.71875 -5.5,1.71875 l -2.625,0 0,-13.5 c 0,-12.94236 0.0975,-13.5 2.0625,-13.5 z"
       id="path3007"
       inkscape:connector-curvature="0" />
    <path
       style="fill:#3e6b90;fill-opacity:1"
       d="m 295.70965,436.01565 c -1.9394,0 -2,0.66667 -2,22 0,21.33333 0.0606,22 2,22 1.9394,0 2,-0.66667 2,-22 0,-21.33333 -0.0606,-22 -2,-22 z m 13,0 0,22 0,22 14.0625,0 c 12.86428,0 14.05658,-0.15035 13.75,-1.75 -0.29296,-1.52852 -1.84138,-1.78517 -12.09375,-2.03125 l -11.71875,-0.28125 0,-8.46875 0,-8.46875 11,0 c 10.33333,0 11,-0.12121 11,-2 0,-1.87879 -0.66667,-2 -11,-2 l -11,0 0,-7.46875 0,-7.46875 11.21875,-0.28125 c 9.77566,-0.24596 11.30209,-0.50897 11.59375,-2.03125 0.30602,-1.59718 -0.86196,-1.75 -13.25,-1.75 l -13.5625,0 z m 37,0 0,22 0,22 13.5,0 c 12.83333,0 13.5,-0.0988 13.5,-2 0,-1.88406 -0.66667,-2 -11.5,-2 l -11.5,0 0,-8.5 0,-8.5 11.0625,0 c 10.00705,0 11.0529,-0.16851 10.75,-1.75 -0.29026,-1.51545 -1.79483,-1.78546 -11.09375,-2.03125 l -10.71875,-0.28125 0,-7.4375 0,-7.4375 11.21875,-0.28125 c 9.77566,-0.24596 11.30209,-0.50897 11.59375,-2.03125 0.30602,-1.59718 -0.86196,-1.75 -13.25,-1.75 l -13.5625,0 z m 37,0 0,22 0,22 14.0625,0 c 12.86428,0 14.05658,-0.15035 13.75,-1.75 -0.29296,-1.52852 -1.84138,-1.78517 -12.09375,-2.03125 l -11.71875,-0.28125 0,-8.46875 0,-8.46875 11,0 c 10.33333,0 11,-0.12121 11,-2 0,-1.87879 -0.66667,-2 -11,-2 l -11,0 0,-7.46875 0,-7.46875 11.21875,-0.28125 c 9.77566,-0.24596 11.30209,-0.50897 11.59375,-2.03125 0.30602,-1.59718 -0.86196,-1.75 -13.25,-1.75 l -13.5625,0 z m 77.28125,47.90625 -2.875,0.65625 c -6.29109,1.40924 -6.18551,1.29014 -6.90625,7.5 -0.63093,5.43614 -0.90392,5.9375 -3.09375,5.9375 -2.00201,0 -2.40625,0.49937 -2.40625,3 0,2.50099 0.40306,3 2.40625,3 l 2.40625,0 0.34375,17.875 c 0.37738,19.4029 0.59988,20.2057 6.34375,22.8125 2.81343,1.2769 10.3548,1.1456 12.5625,-0.2187 0.50439,-0.3117 0.9375,-1.6575 0.9375,-3 0,-2.1738 -0.43902,-2.4688 -3.9375,-2.4688 -6.70514,0 -7.0625,-0.9789 -7.0625,-19.0625 l 0,-15.9375 4.46875,0 c 3.39077,0 4.71383,-0.43729 5.5,-1.90625 1.85749,-3.47076 1.20614,-4.09375 -4.46875,-4.09375 l -5.53125,0 0.65625,-7.03125 0.65625,-7.0625 z m 77.5625,12.25 c -2.68428,0.20903 -6.7383,1.8852 -8.96875,3.96875 -3.65347,3.41285 -3.875,3.47013 -3.875,0.96875 0,-4.25768 -0.83886,-4.83987 -5.15625,-3.6875 -3.93015,1.04902 -4.03455,1.17478 -3.46875,4.59375 0.32025,1.93518 0.58775,12.1625 0.59375,22.75 l 0.0312,19.25 4.5,0 4.5,0 0,-16.0625 c 0,-9.1065 0.44762,-16.8782 1.03125,-17.9687 1.33724,-2.4988 6.6944,-5.2674 9.03125,-4.6563 1.42545,0.37277 2.14924,-0.49227 3.3125,-3.90625 0.85778,-2.51746 1.08988,-4.61156 0.5625,-4.9375 -0.47482,-0.29345 -1.19899,-0.38218 -2.09375,-0.3125 z m -46.84375,0.15625 c -6.8078,-0.0203 -12.9196,3.90967 -16.375,10.84375 -2.14578,4.30605 -2.625,6.65625 -2.625,12.93755 0,12.1192 3.9168,20.1151 11.5,23.5 4.42742,1.9762 14.23626,1.72 19.125,-0.5 5.09988,-2.3159 5.69616,-3.2575 4.21875,-6.5 l -1.15625,-2.5626 -3.21875,2 c -3.82708,2.3654 -11.32517,2.6405 -15.34375,0.5626 -3.27475,-1.6935 -5.125,-5.376 -5.125,-10.125 l 0,-3.4688 14.09375,0 14.09375,0 -0.71875,-6.25 c -1.35429,-11.81354 -5.32281,-17.52888 -13.6875,-19.78125 -1.62152,-0.43663 -3.21022,-0.65156 -4.78125,-0.65625 z m -264.3125,0.0937 c -3.27526,0.11151 -6.58577,1.01194 -9.3125,2.6875 -13.25399,8.14449 -13.7719,36.31205 -0.8125,43.65625 5.70935,3.2355 14.30361,3.112 20.09375,-0.2812 2.38582,-1.3983 4.34375,-2.8337 4.34375,-3.1876 0,-0.3539 -0.93757,-1.6442 -2.09375,-2.875 -2.0985,-2.2337 -2.10761,-2.2285 -5.25,-0.3124 -4.56666,2.7845 -10.2026,2.5258 -13.09375,-0.5938 -2.68945,-2.9019 -3.5625,-6.4667 -3.5625,-14.375 0,-11.0865 3.49237,-17.125 9.9375,-17.125 1.98175,0 4.65611,0.75872 5.9375,1.65625 2.23326,1.56423 2.4301,1.51243 4.6875,-1.25 l 2.34375,-2.90625 -2.03125,-1.71875 c -2.80041,-2.36475 -6.97645,-3.51837 -11.1875,-3.375 z m 183.8125,0.0312 -4.25,0.84375 -4.25,0.84375 0,18.6875 c 0.002,21.2505 0.79071,24.3356 7,27.4375 1.925,0.9616 5.075,1.761 7,1.75 3.75627,-0.0219 11.26644,-3.0234 12.46875,-4.9688 0.49981,-0.8088 1.57351,-0.2108 3.375,1.875 l 2.65625,3.0626 2.84375,-2.3438 c 2.60417,-2.1413 2.74138,-2.5481 1.53125,-4.7188 -0.9349,-1.677 -1.44928,-8.2354 -1.71875,-22.1562 -0.21027,-10.86255 -0.73239,-19.75 -1.15625,-19.75 -0.42386,0 -2.15625,0.28125 -3.875,0.625 l -3.125,0.625 0,16.6562 c 0,18.5505 -0.45692,20.1547 -6.59375,22.7188 -4.40792,1.8417 -5.74676,1.746 -8.5625,-0.5312 -2.29919,-1.8597 -2.3568,-2.4129 -2.84375,-21.2813 l -0.5,-19.375 z m -97.4375,0.1875 c -3.40548,-0.10048 -8.18892,1.36462 -11.28125,3.5625 l -2.71875,1.90625 -0.6875,-2.65625 c -0.62158,-2.47658 -0.91175,-2.60877 -4.71875,-2 -2.24257,0.3586 -4.18474,0.7785 -4.3125,0.90625 -0.12776,0.12776 0.18102,2.00294 0.6875,4.1875 0.50649,2.18456 0.9244,12.40625 0.9375,22.71875 l 0.0312,18.75 4.5,0 4.5,0 0,-17.3438 c 0,-15.4854 0.19215,-17.5023 1.8125,-18.9687 2.98745,-2.7036 7.48758,-3.89532 10.5,-2.75 l 2.6875,1.03125 0,19.03125 0,19 4.5,0 4.5,0 0,-16.8125 c 0,-16.175 0.087,-16.9049 2.25,-18.875 4.87792,-4.44289 9.45028,-5.45598 12.1875,-2.71875 1.31488,1.31487 1.5625,4.58015 1.5625,20.00005 l 0,18.4062 4.5625,0 4.5625,0 -0.3125,-19.9062 c -0.28463,-18.40069 -0.47153,-20.14633 -2.40625,-22.75005 -4.33189,-5.82981 -12.96379,-6.10806 -20.1875,-0.65625 l -3.25,2.4375 -2.9375,-2.9375 c -1.61492,-1.61491 -4.15469,-3.15644 -5.625,-3.4375 -0.42147,-0.0806 -0.85725,-0.11065 -1.34375,-0.125 z m 49.1875,0.0625 c -0.52143,0.0236 -1.20407,0.11054 -2.0625,0.25 l -3.6875,0.59375 -0.28125,31.99995 c -0.1454,17.5861 -0.0433,32.5359 0.21875,33.2188 0.26209,0.683 1.07293,1.0636 1.78125,0.8438 0.70832,-0.2198 2.51875,-0.6999 4.03125,-1.0313 l 2.75,-0.5937 0,-10.375 0,-10.375 3.71875,1.9062 c 7.62405,3.8869 17.04691,1.7298 21.625,-4.9375 7.82105,-11.3901 5.53742,-32.28252 -4.25,-38.875 -4.78795,-3.22501 -12.54099,-3.17665 -17.40625,0.125 l -3.5625,2.4375 -0.625,-2.78125 c -0.42153,-1.91924 -0.68572,-2.47691 -2.25,-2.40625 z m -98.0625,0.0937 c -10.0891,-0.22489 -16.76645,4.67518 -19.65625,14.40625 -4.26746,14.37 1.17725,29.4967 11.96875,33.3125 4.91412,1.7376 6.8828,1.8236 12,0.4062 6.10272,-1.6903 9.51664,-4.68 12.28125,-10.7187 4.47555,-9.7759 3.11769,-23.8179 -2.96875,-30.75 -4.09541,-4.66441 -7.91443,-6.52896 -13.625,-6.65625 z m 226.9375,6.53125 c 0.51782,0.0219 1.0456,0.0651 1.53125,0.15625 3.93206,0.73766 7.33775,5.26995 7.34375,9.78125 l 0,2.75 -9,0 c -8.9801,0 -9,0.0127 -9,-2.5312 0,-3.4166 2.54505,-8.15056 5.125,-9.5313 0.88666,-0.47453 2.44653,-0.69083 4,-0.625 z m -114.1875,0.71875 c 5.45969,0.0755 8.28125,5.79395 8.28125,16.96875 0,9.2153 -1.5371,14.0319 -5.15625,15.9688 -3.78254,2.0243 -9.13204,1.0984 -12.8125,-2.25 -2.09022,-1.9017 -2.25,-2.897 -2.25,-13.8438 l 0,-11.7812 4.34375,-2.5313 c 2.92426,-1.71373 5.45735,-2.56079 7.59375,-2.53125 z m -113.875,0.46875 c 4.90443,0 5.52557,0.28892 7.5,3.2188 2.67806,3.974 3.82192,13.0295 2.5,20 -1.17796,6.2113 -2.64788,8.7768 -5.8125,10.2187 -4.50891,2.0544 -9.15937,0.6749 -11.9375,-3.5625 -1.4604,-2.2274 -1.8125,-4.8429 -1.8125,-13.5 0,-9.3418 0.25673,-11.0681 2.09375,-13.5312 1.85497,-2.48724 2.75878,-2.8438 7.46875,-2.8438 z m 325.1875,44.5312 c -0.4125,0.003 -2.4375,0.4586 -4.5,1.0313 l -3.75,1.0313 0,5.9687 c 0,5.943 -0.003,5.9375 -3,5.9375 -2.66667,0 -3,0.3333 -3,3 0,2.6666 0.33333,3 3,3 l 3,0 0,17.8125 c 0,19.8571 0.14672,20.438 6.5,22.7187 6.47899,2.326 13.55055,0.2119 12.78125,-3.8124 -0.39151,-2.0481 -0.99908,-2.3503 -4.5625,-2.2813 -6.03784,0.1175 -6.70085,-1.7949 -6.71875,-19.6875 l 0,-14.75 4.78125,0 c 4.39366,0 4.86557,-0.243 5.90625,-3 l 1.125,-3 -5.40625,0 -5.40625,0 0,-7 c 0,-3.85 -0.3375,-6.9688 -0.75,-6.9688 z m -176.9375,11.9688 c -9.96105,0 -16.17211,4.538 -17.0625,12.4375 -0.98314,8.7223 3.03191,13.2614 13.71875,15.5 7.7073,1.6145 10.03125,3.358 10.03125,7.5313 0,2.5211 -0.71346,3.9556 -2.75,5.5624 -3.24334,2.5593 -8.61976,2.2268 -15.84375,-0.9687 l -4.40625,-1.9375 -1.5,2.9062 c -0.82347,1.5924 -1.5,3.0625 -1.5,3.2813 0,0.8243 7.67412,3.7821 12,4.625 14.73252,2.8706 26.97055,-7.4075 23.03125,-19.3437 -1.53873,-4.6624 -5.11544,-7.0608 -14.09375,-9.4688 -9.73444,-2.6107 -12.52405,-6.5385 -7.9375,-11.125 2.438,-2.438 9.09249,-2.6862 14.25,-0.5312 3.49709,1.4612 3.53473,1.4781 4.78125,-1.5313 0.72861,-1.759 0.86401,-3.3737 0.34375,-3.8437 -1.83819,-1.6605 -7.85345,-3.0938 -13.0625,-3.0938 z m 85.625,0.1562 c -0.98446,0.0286 -1.92419,0.1243 -2.78125,0.3126 -4.92902,1.0825 -10.62996,5.9227 -13.03125,11.0312 -6.21985,13.2321 -2.0367,31.4645 8.3125,36.1562 4.78182,2.1678 14.55533,1.2974 18.9375,-1.6874 1.98647,-1.3532 3.60825,-2.6938 3.59375,-2.9688 -0.0145,-0.275 -0.89324,-1.4978 -1.9375,-2.75 l -1.90625,-2.2812 -3.3125,2 c -1.82494,1.1126 -4.95514,2.0312 -6.96875,2.0312 -7.14856,0.007 -10.85267,-8.2145 -9.5,-21.1562 0.98086,-9.3843 3.54271,-12.7575 9.6875,-12.8126 1.94013,-0.0175 4.56236,0.7275 5.84375,1.625 2.23318,1.5642 2.42402,1.5125 4.6875,-1.25 l 2.375,-2.9062 -2.46875,-2.1875 c -2.23923,-1.9979 -7.26528,-3.2799 -11.53125,-3.1563 z m 56,0.0938 c -8.07088,0.2787 -15.38168,5.6371 -17.71875,13.4375 -1.52874,5.1027 -1.58922,16.9709 -0.0937,21.4375 1.77364,5.2974 5.74765,9.9242 10.25,11.9688 5.79947,2.6336 14.04573,2.4854 19.65625,-0.3438 4.81192,-2.4266 5.7293,-4.2036 3.5625,-7.0312 -1.32094,-1.7237 -1.53552,-1.7099 -4.75,0.25 -2.15767,1.3154 -5.06761,2.0312 -8.1875,2.0312 -4.18484,0.003 -5.31629,-0.4413 -8.25,-3.375 -2.75331,-2.7534 -3.40625,-4.1715 -3.40625,-7.4688 l 0,-4.0937 13.75,-0.2813 13.75,-0.2812 -0.28125,-5.5 c -0.55138,-11.6696 -5.98479,-19.2434 -14.78125,-20.5625 -1.17082,-0.1756 -2.34702,-0.2273 -3.5,-0.1875 z m -99.34375,0.0938 c -1.64217,-0.0124 -3.37735,0.1816 -5.21875,0.5937 -9.79202,2.1914 -15.375,10.9623 -15.375,24.125 0,13.0638 5.4944,21.584 15.5,24.0313 5.93265,1.4511 13.96573,-0.8913 18.28125,-5.3438 8.58929,-8.8619 8.49037,-28.2579 -0.1875,-37.2812 -3.94519,-4.1023 -8.0735,-6.0881 -13,-6.125 z m 73.40625,0.6562 -2.75,0.0312 c -1.5125,0.008 -3.7625,0.2935 -5,0.625 l -2.25,0.5938 0,22.875 0,22.875 5,0 5,0 0,-23.5 0,-23.5 z m 82.25,0.25 c -0.86528,-0.033 -1.93743,0.034 -3.03125,0.2188 l -4,0.6874 6.875,20.6876 c 3.77524,11.375 6.865,21.486 6.875,22.5 0.01,1.014 0.94708,2.0833 2.0625,2.375 1.53463,0.4013 1.87043,1.0474 1.375,2.6562 -1.44958,4.7071 -3.70171,7.8849 -6.96875,9.8125 -3.72106,2.1954 -4.01623,2.902 -2.375,5.9687 0.64578,1.2066 1.69103,1.7839 2.59375,1.4376 0.8278,-0.3177 1.88912,-0.5938 2.375,-0.5938 1.48822,0 7.97897,-6.1149 9.40625,-8.875 0.74039,-1.4317 5.42021,-14.6634 10.40625,-29.375 l 9.0625,-26.75 -4.875,0 c -5.6389,0 -4.25261,-2.6226 -11.53125,21.9688 -4.64131,15.6809 -5.5,17.96 -5.5,14.4062 0,-2.468 -9.93955,-35.5481 -11.03125,-36.7188 -0.21903,-0.2349 -0.85347,-0.3732 -1.71875,-0.4062 z m -56.625,5.875 c 1.48942,-0.1235 3.02161,0.1485 4.4375,0.9062 2.42977,1.3005 4.9375,6.1087 4.9375,9.4376 0,2.5396 -0.0199,2.5312 -9,2.5312 l -9,0 0,-3.5625 c 0,-5.0041 4.15673,-8.9419 8.625,-9.3125 z m -100.1875,0.1562 c 2.88055,-0.04 5.87477,1.2586 7.96875,4.0626 1.66246,2.2261 2.15328,4.611 2.4375,11.4062 0.3872,9.2573 -0.79716,15.0382 -3.59375,17.4688 -4.09694,3.5607 -10.37144,2.8344 -13.65625,-1.5626 -1.6781,-2.2463 -2.18292,-4.5667 -2.46875,-11.875 -0.20052,-5.1269 0.16,-10.8222 0.8125,-13 1.25653,-4.1939 4.79643,-6.4484 8.5,-6.5 z"
       id="path3007-8"
       inkscape:connector-curvature="0" />
  </g>
</svg>
