<?xml version="1.0" encoding="UTF-8" standalone="no"?>
<!-- Generator: Adobe Illustrator 15.1.0, SVG Export Plug-In . SVG Version: 6.00 Build 0)  -->

<svg
   xmlns:dc="http://purl.org/dc/elements/1.1/"
   xmlns:cc="http://creativecommons.org/ns#"
   xmlns:rdf="http://www.w3.org/1999/02/22-rdf-syntax-ns#"
   xmlns:svg="http://www.w3.org/2000/svg"
   xmlns="http://www.w3.org/2000/svg"
   xmlns:sodipodi="http://sodipodi.sourceforge.net/DTD/sodipodi-0.dtd"
   xmlns:inkscape="http://www.inkscape.org/namespaces/inkscape"
   version="1.1"
   id="Calque_1"
   x="0px"
   y="0px"
   width="566.929px"
   height="170.079px"
   viewBox="0 0 566.929 170.079"
   enable-background="new 0 0 566.929 170.079"
   xml:space="preserve"
   inkscape:version="0.48.4 r9939"
   sodipodi:docname="Logo_Oberthur_Techologies.svg"
   inkscape:export-filename="Logo_Oberthur_Techologies.png"
   inkscape:export-xdpi="162.56"
   inkscape:export-ydpi="162.56"><metadata
     id="metadata3402"><rdf:RDF><cc:Work
         rdf:about=""><dc:format>image/svg+xml</dc:format><dc:type
           rdf:resource="http://purl.org/dc/dcmitype/StillImage" /><dc:title></dc:title></cc:Work></rdf:RDF></metadata><defs
     id="defs3400" /><sodipodi:namedview
     pagecolor="#ffffff"
     bordercolor="#666666"
     borderopacity="1"
     objecttolerance="10"
     gridtolerance="10"
     guidetolerance="10"
     inkscape:pageopacity="0"
     inkscape:pageshadow="2"
     inkscape:window-width="1438"
     inkscape:window-height="879"
     id="namedview3398"
     showgrid="false"
     inkscape:zoom="0.75141682"
     inkscape:cx="283.46451"
     inkscape:cy="85.039497"
     inkscape:window-x="0"
     inkscape:window-y="19"
     inkscape:window-maximized="0"
     inkscape:current-layer="Calque_1" /><g
     id="g3337"><path
       fill="#003567"
       d="M33.073,90.696c2.25,0,4.444,1.927,4.903,4.302c4.642,24.042,25.798,42.186,51.197,42.186   c28.798,0,52.143-23.346,52.143-52.144s-23.345-52.144-52.143-52.144c-25.413,0-46.58,18.181-51.204,42.245   c-0.452,2.351-2.643,4.258-4.896,4.258H5.281c-1.353,0-2.705-0.516-3.736-1.549C0.513,76.818-0.001,75.467,0,74.115V0h566.929   v170.079H0V95.976c0-1.353,0.515-2.702,1.547-3.734c1.031-1.03,2.382-1.545,3.734-1.545H33.073z"
       id="path3339" /><path
       fill="#7D6900"
       d="M89.234,46.669c-22.019,0-38.625,16.57-38.625,38.542c0,21.91,16.606,38.44,38.625,38.44   c21.953,0,38.504-16.53,38.504-38.44C127.738,63.239,111.187,46.669,89.234,46.669 M89.249,64.047   c11.484,0,19.202,8.429,19.202,20.985c0,12.488-7.718,20.884-19.202,20.884c-11.499,0-19.209-8.396-19.209-20.884   C70.04,72.476,77.75,64.047,89.249,64.047"
       id="path3341" /><linearGradient
       id="SVGID_1_"
       gradientUnits="userSpaceOnUse"
       x1="69.4834"
       y1="115.7734"
       x2="110.2755"
       y2="52.4751"><stop
         offset="0"
         style="stop-color:#7D6900"
         id="stop3344" /><stop
         offset="0.3224"
         style="stop-color:#7D6900"
         id="stop3346" /><stop
         offset="0.6721"
         style="stop-color:#AF9B52"
         id="stop3348" /><stop
         offset="1"
         style="stop-color:#EEE7D3"
         id="stop3350" /></linearGradient><path
       fill="url(#SVGID_1_)"
       d="M66.436,85.074c0-14.655,9.14-24.494,22.759-24.494c13.612,0,22.762,9.839,22.762,24.494   c0,14.599-9.149,24.403-22.762,24.403C75.575,109.478,66.436,99.673,66.436,85.074 M54.126,85.203   c0,20.241,14.723,34.925,35.031,34.925c20.247,0,34.929-14.684,34.929-34.925c0-20.298-14.682-35.034-34.929-35.034   C69.186,50.169,54.126,65.22,54.126,85.203"
       id="path3352" /><path
       fill="#FFFFFF"
       d="M89.158,120.78c-20.675,0-35.682-14.965-35.682-35.576c0-20.345,15.341-35.686,35.682-35.686   c20.615,0,35.579,15.008,35.579,35.686C124.736,105.815,109.772,120.78,89.158,120.78 M89.158,50.819   c-19.601,0-34.382,14.781-34.382,34.385c0,19.859,14.461,34.271,34.382,34.271c19.863,0,34.278-14.412,34.278-34.271   C123.436,65.28,109.021,50.819,89.158,50.819 M89.194,110.13c-14.002,0-23.411-10.068-23.411-25.056   c0-15.041,9.408-25.146,23.411-25.146c14.003,0,23.41,10.104,23.41,25.146C112.604,100.062,103.197,110.13,89.194,110.13    M89.194,61.23c-13.224,0-22.111,9.581-22.111,23.844c0,14.207,8.887,23.756,22.111,23.756s22.11-9.549,22.11-23.756   C111.305,70.812,102.418,61.23,89.194,61.23"
       id="path3354" /><g
       id="g3356"><path
         fill="#FFFFFF"
         d="M174.946,86.485c-13.474,0.007-22.725-10.099-22.731-22.641c-0.005-12.549,9.236-22.732,22.71-22.738    c13.48-0.008,22.669,10.169,22.674,22.718C197.606,76.366,188.426,86.479,174.946,86.485 M174.929,49.897    c-7.989,0.003-12.811,5.949-12.807,13.942c0.003,7.989,4.832,13.867,12.82,13.864c7.995-0.004,12.819-5.886,12.816-13.876    C187.754,55.836,182.924,49.895,174.929,49.897"
         id="path3358" /><path
         fill="#FFFFFF"
         d="M228.642,85.74l-17.505,0.008c-2.707,0.001-4.949-2.242-4.951-4.957l-0.016-34.079    c-0.001-2.712,2.24-4.957,4.946-4.958l14.335-0.007c9.521-0.004,15.391,4.091,15.396,11.813c0.001,3.239-1.714,6.278-4.359,8.591    c4.431,2.242,7.208,5.812,7.21,10.374C243.702,80.253,237.034,85.736,228.642,85.74 M225.323,49.739l-9.253,0.006l0.005,10.028    l8.723-0.004c4.362-0.002,5.876-2.299,5.875-5.077C230.671,51.917,228.625,49.738,225.323,49.739 M227.974,67.306l-11.896,0.005    l0.005,10.438l11.896-0.005c3.171-0.003,5.546-2.046,5.545-5.215C233.522,69.356,231.275,67.304,227.974,67.306"
         id="path3360" /><path
         fill="#FFFFFF"
         d="M257.894,85.727c-2.7,0.001-4.953-2.242-4.955-4.958l-0.015-34.079c-0.002-2.711,2.249-4.956,4.949-4.958    l27.348-0.011l0.004,8.518l-22.396,0.011l0.003,8.792l16.059-0.008c2.376-0.001,4.287,1.905,4.288,4.287    c0.001,2.38-1.908,4.228-4.284,4.229l-16.059,0.007l0.004,9.649l22.397-0.009l0.004,8.518L257.894,85.727z"
         id="path3362" /><path
         fill="#FFFFFF"
         d="M324.867,85.695l-8.992-15.778l-10.834,0.004l0.007,15.784l-9.91,0.005l-0.018-39.038    c-0.001-2.712,2.248-4.957,4.948-4.958l19.821-0.009c8.388-0.003,14.472,6.271,14.477,14.128c0.002,5.615-3.3,10.373-8.121,12.623    l9.977,17.234L324.867,85.695z M317.846,49.698l-12.815,0.006l0.006,12.484l12.814-0.006c3.432-0.001,6.342-2.645,6.341-6.346    C324.19,52.138,321.277,49.697,317.846,49.698"
         id="path3364" /><polygon
         fill="#FFFFFF"
         points="363.817,50.334 363.833,85.678 353.915,85.682 353.898,50.338 339.5,50.346 339.498,41.695     378.271,41.678 378.274,50.328   "
         id="polygon3366" /><polygon
         fill="#FFFFFF"
         points="414.483,85.655 414.476,67.885 394.791,67.893 394.798,85.663 384.889,85.668 384.87,41.674     394.779,41.67 394.786,59.102 414.472,59.092 414.463,41.66 424.302,41.655 424.322,85.649   "
         id="polygon3368" /><path
         fill="#FFFFFF"
         d="M455.358,86.355c-11.956,0.006-19.817-8.838-19.821-19.011l-0.013-25.694l9.903-0.004l0.013,25.694    c0.002,6.344,4.171,10.169,9.914,10.166c5.748-0.002,9.841-3.831,9.839-10.177l-0.012-25.693l9.911-0.005l0.012,25.694    C475.109,77.499,467.318,86.35,455.358,86.355"
         id="path3370" /><path
         fill="#FFFFFF"
         d="M516.052,85.607l-8.996-15.779l-10.828,0.006l0.008,15.782l-9.927,0.005V46.583    c-0.001-2.713,2.239-4.956,4.953-4.958l19.816-0.009c8.393-0.003,14.47,6.271,14.474,14.129    c0.002,5.614-3.302,10.372-8.118,12.621l9.977,17.235L516.052,85.607z M509.039,49.609l-12.819,0.007l0.005,12.484l12.82-0.006    c3.43-0.002,6.333-2.645,6.332-6.346C515.375,52.051,512.469,49.607,509.039,49.609"
         id="path3372" /><polygon
         fill="#FFFFFF"
         points="154.091,96.766 165.674,96.76 165.688,128.462 168.633,128.461 168.618,96.758 180.199,96.753     180.197,93.917 154.089,93.929   "
         id="polygon3374" /><path
         fill="#FFFFFF"
         d="M188.349,111.93l16.932-0.007c0.812,0,1.449-0.64,1.449-1.455c0-0.81-0.639-1.444-1.451-1.444    l-16.932,0.007l-0.006-12.235l19.673-0.009l-0.001-2.883l-21.164,0.011c-0.811,0-1.496,0.682-1.496,1.492l0.015,31.558    c0,0.808,0.686,1.488,1.497,1.488l21.468-0.01l-0.001-2.889l-19.977,0.008L188.349,111.93z"
         id="path3376" /><path
         fill="#FFFFFF"
         d="M231.899,96.177c2.977-0.001,6.006,0.454,8.752,1.313l0.597,0.188l0.859-2.489l-0.597-0.216    c-2.867-1.052-6.037-1.581-9.418-1.58c-10.667,0.004-18.71,7.67-18.706,17.825c0.005,9.968,8.23,17.769,18.723,17.765    c3.244-0.001,6.502-0.57,9.417-1.643l0.597-0.217l-0.863-2.498l-0.605,0.198c-2.813,0.922-5.671,1.371-8.741,1.372    c-6.452,0.003-15.537-4.64-15.541-14.979C216.367,100.849,225.447,96.181,231.899,96.177"
         id="path3378" /><polygon
         fill="#FFFFFF"
         points="272.218,108.908 252.643,108.916 252.636,93.881 249.646,93.883 249.662,128.424 252.652,128.421     252.644,111.797 272.219,111.787 272.227,128.412 275.218,128.411 275.203,93.87 272.21,93.871   "
         id="polygon3380" /><path
         fill="#FFFFFF"
         d="M308.434,122.938l-21.162-28.812c-0.289-0.387-0.744-0.612-1.216-0.612    c-0.813,0.002-1.447,0.633-1.447,1.443l0.017,33.449l2.891-0.002l-0.014-29.136l21.226,28.831    c0.257,0.333,0.678,0.542,1.108,0.541c0.88,0,1.495-0.589,1.495-1.436l-0.016-33.35l-2.895,0.002L308.434,122.938z"
         id="path3382" /><path
         fill="#FFFFFF"
         d="M335.199,93.344c-9.732,0.004-17.067,7.648-17.063,17.778c0.004,10.159,7.347,17.816,17.078,17.812    c9.734-0.004,17.071-7.669,17.067-17.828C352.277,100.976,344.932,93.34,335.199,93.344 M335.213,126.091    c-8.155,0.003-14.076-6.292-14.081-14.97c-0.004-8.653,5.912-14.938,14.068-14.942c8.163-0.005,14.092,6.275,14.097,14.93    C349.301,119.785,343.376,126.085,335.213,126.091"
         id="path3384" /><path
         fill="#FFFFFF"
         d="M362.076,93.832l-2.981,0.002l0.015,33.05c0,0.808,0.685,1.488,1.494,1.488l20.367-0.009l-0.001-2.888    l-18.879,0.008L362.076,93.832z"
         id="path3386" /><path
         fill="#FFFFFF"
         d="M399.334,93.314c-9.728,0.004-17.064,7.648-17.059,17.778c0.004,10.158,7.348,17.815,17.075,17.812    c9.735-0.004,17.075-7.67,17.071-17.828C416.418,100.946,409.07,93.31,399.334,93.314 M399.35,126.061    c-8.157,0.003-14.081-6.292-14.085-14.969c-0.004-8.654,5.915-14.939,14.071-14.942c8.165-0.004,14.091,6.275,14.095,14.93    C413.436,119.756,407.513,126.057,399.35,126.061"
         id="path3388" /><path
         fill="#FFFFFF"
         d="M449.306,121.605c-2.508,2.752-6.615,4.389-11.043,4.392c-8.758,0.004-14.879-6.133-14.883-14.924    c-0.004-8.905,6.134-14.89,15.274-14.895c3.315-0.001,6.793,0.754,10.339,2.242l0.603,0.255l1.015-2.504l-0.53-0.267    c-3.416-1.711-7.363-2.612-11.427-2.609c-10.754,0.005-18.265,7.317-18.26,17.779c0.004,10.325,7.521,17.815,17.87,17.811    c5.587-0.002,10.892-2.354,13.846-6.145l0.138-0.174l-0.005-9.46l-2.939,0.002L449.306,121.605z"
         id="path3390" /><rect
         x="460.906"
         y="93.787"
         fill="#FFFFFF"
         width="2.984"
         height="34.54"
         id="rect3392" /><path
         fill="#FFFFFF"
         d="M476.52,111.797l16.938-0.008c0.809,0,1.439-0.639,1.439-1.454c-0.001-0.797-0.646-1.444-1.44-1.444    l-16.938,0.007l-0.007-12.234l19.686-0.009l-0.001-2.884l-21.176,0.011c-0.811,0-1.49,0.682-1.49,1.491l0.016,31.557    c0,0.809,0.68,1.491,1.489,1.491l21.474-0.01l-0.001-2.891l-19.982,0.009L476.52,111.797z"
         id="path3394" /><path
         fill="#FFFFFF"
         d="M517.351,109.54c-10.015-4.433-10.857-5.776-10.858-8.79c-0.001-2.348,1.11-4.747,9.341-4.75    c3.678-0.002,8.108,0.737,10.784,1.371l0.633,0.148l0.573-2.518l-0.577-0.176c-3.414-1.03-8.38-1.566-11.517-1.564    c-10.025,0.004-12.135,4.02-12.132,7.387c0.002,4.786,2.29,6.889,12.231,11.267c9.477,4.178,9.898,5.656,9.899,8.354    c0.002,2.906-2.929,5.847-9.486,5.85c-3.76,0.001-8.111-0.854-12.256-2.406l-0.623-0.233l-0.864,2.507l0.571,0.229    c4.393,1.754,8.856,2.638,13.277,2.636c8.508-0.003,12.379-4.483,12.377-8.644C528.722,116.33,527.079,113.868,517.351,109.54"
         id="path3396" /></g></g></svg>