<?xml version="1.0" encoding="UTF-8" standalone="no"?>
<!-- Created with Inkscape (http://www.inkscape.org/) -->

<svg
   xmlns:dc="http://purl.org/dc/elements/1.1/"
   xmlns:cc="http://creativecommons.org/ns#"
   xmlns:rdf="http://www.w3.org/1999/02/22-rdf-syntax-ns#"
   xmlns:svg="http://www.w3.org/2000/svg"
   xmlns="http://www.w3.org/2000/svg"
   xmlns:sodipodi="http://sodipodi.sourceforge.net/DTD/sodipodi-0.dtd"
   xmlns:inkscape="http://www.inkscape.org/namespaces/inkscape"
   version="1.1"
   width="307.42813"
   height="95.23938"
   id="svg4012"
   inkscape:version="0.48.4 r9939"
   sodipodi:docname="logo_cryptography_research.svg"
   inkscape:export-filename="logo_cryptography_research.png"
   inkscape:export-xdpi="299.78"
   inkscape:export-ydpi="299.78">
  <sodipodi:namedview
     pagecolor="#ffffff"
     bordercolor="#666666"
     borderopacity="1"
     objecttolerance="10"
     gridtolerance="10"
     guidetolerance="10"
     inkscape:pageopacity="0"
     inkscape:pageshadow="2"
     inkscape:window-width="1438"
     inkscape:window-height="879"
     id="namedview3301"
     showgrid="false"
     inkscape:zoom="1.3856897"
     inkscape:cx="153.71407"
     inkscape:cy="47.61969"
     inkscape:window-x="0"
     inkscape:window-y="19"
     inkscape:window-maximized="0"
     inkscape:current-layer="svg4012" />
  <defs
     id="defs4014" />
  <metadata
     id="metadata4017">
    <rdf:RDF>
      <cc:Work
         rdf:about="">
        <dc:format>image/svg+xml</dc:format>
        <dc:type
           rdf:resource="http://purl.org/dc/dcmitype/StillImage" />
        <dc:title></dc:title>
      </cc:Work>
    </rdf:RDF>
  </metadata>
  <g
     transform="translate(45.142636,-367.59964)"
     id="layer1">
    <g
       transform="matrix(1.25,0,0,-1.25,69.270374,450.50401)"
       id="g3732">
      <path
         d="m 0,0 c -0.149,0.054 -0.393,0.095 -0.772,0.095 -1.708,0 -3.104,-1.762 -3.104,-3.592 0,-0.732 0.257,-1.45 1.125,-1.45 0.935,0 2.046,1.22 2.372,2.968 L 0,0 z m -0.732,-5.719 c 0,0.393 0.068,1.016 0.149,1.694 l -0.027,0 c -0.704,-1.369 -1.613,-1.843 -2.548,-1.843 -1.165,0 -1.884,0.921 -1.884,2.169 10e-4,2.289 1.681,4.689 4.541,4.689 0.636,0 1.314,-0.109 1.775,-0.245 L 0.596,-2.684 C 0.379,-3.822 0.298,-4.987 0.325,-5.719 l -1.057,0 z"
         id="path3734"
         style="fill:#393134;fill-opacity:1;fill-rule:evenodd;stroke:none" />
    </g>
    <g
       transform="matrix(1.25,0,0,-1.25,82.960604,450.74139)"
       id="g3736">
      <path
         d="m 0,0 c -0.217,0.163 -0.596,0.285 -1.071,0.285 -1.572,0 -2.791,-1.681 -2.791,-3.429 0,-0.786 0.271,-1.613 1.233,-1.613 0.867,0 1.911,0.989 2.195,2.467 L 0,0 z M 1.884,4.093 0.447,-3.442 C 0.325,-4.133 0.217,-4.892 0.176,-5.529 l -1.03,0 0.176,1.301 -0.027,0 c -0.596,-0.935 -1.423,-1.45 -2.358,-1.45 -1.274,0 -1.965,1.043 -1.965,2.385 0,2.331 1.735,4.472 4.052,4.472 0.42,0 0.881,-0.094 1.165,-0.23 l 0.583,3.144 1.112,0 z"
         id="path3738"
         style="fill:#393134;fill-opacity:1;fill-rule:evenodd;stroke:none" />
    </g>
    <g
       transform="matrix(1.25,0,0,-1.25,88.213624,447.18364)"
       id="g3740">
      <path
         d="M 0,0 C 0.013,0.434 0.339,0.759 0.732,0.759 1.138,0.759 1.409,0.461 1.409,0.054 1.396,-0.393 1.084,-0.705 0.637,-0.705 0.243,-0.705 0,-0.406 0,0 z m -1.464,-8.375 1.261,6.559 1.111,0 -1.247,-6.559 -1.125,0 z"
         id="path3742"
         style="fill:#393134;fill-opacity:1;fill-rule:evenodd;stroke:none" />
    </g>
    <g
       transform="matrix(1.25,0,0,-1.25,92.973994,449.45378)"
       id="g3744">
      <path
         d="m 0,0 0.569,-3.74 c 0.095,-0.746 0.19,-1.247 0.204,-1.614 l 0.04,0 c 0.15,0.353 0.326,0.787 0.705,1.532 L 3.511,0 4.743,0 1.098,-6.559 0,-6.559 -1.138,0 0,0 z"
         id="path3746"
         style="fill:#393134;fill-opacity:1;fill-rule:evenodd;stroke:none" />
    </g>
    <g
       transform="matrix(1.25,0,0,-1.25,101.56449,447.18364)"
       id="g3748">
      <path
         d="M 0,0 C 0.014,0.434 0.339,0.759 0.732,0.759 1.139,0.759 1.409,0.461 1.409,0.054 1.396,-0.393 1.084,-0.705 0.637,-0.705 0.244,-0.705 0,-0.406 0,0 z m -1.464,-8.375 1.261,6.559 1.111,0 -1.247,-6.559 -1.125,0 z"
         id="path3750"
         style="fill:#393134;fill-opacity:1;fill-rule:evenodd;stroke:none" />
    </g>
    <g
       transform="matrix(1.25,0,0,-1.25,104.58087,456.23002)"
       id="g3752">
      <path
         d="m 0,0 c 0.312,-0.19 0.867,-0.407 1.409,-0.407 0.759,0 1.247,0.488 1.247,1.071 0,0.515 -0.23,0.827 -0.922,1.206 C 0.976,2.29 0.555,2.873 0.555,3.551 0.556,4.689 1.545,5.57 2.927,5.57 3.524,5.57 4.052,5.407 4.296,5.245 L 3.984,4.391 C 3.754,4.527 3.334,4.689 2.846,4.689 2.168,4.689 1.68,4.269 1.68,3.7 1.68,3.226 1.992,2.927 2.589,2.602 3.32,2.195 3.808,1.613 3.808,0.881 c 0,-1.382 -1.112,-2.155 -2.493,-2.155 -0.706,0.014 -1.342,0.217 -1.64,0.447 L 0,0 z"
         id="path3754"
         style="fill:#393134;fill-opacity:1;fill-rule:evenodd;stroke:none" />
    </g>
    <g
       transform="matrix(1.25,0,0,-1.25,113.52661,447.18364)"
       id="g3756">
      <path
         d="M 0,0 C 0.013,0.434 0.339,0.759 0.732,0.759 1.138,0.759 1.409,0.461 1.409,0.054 1.396,-0.393 1.084,-0.705 0.637,-0.705 0.244,-0.705 0,-0.406 0,0 z m -1.464,-8.375 1.261,6.559 1.111,0 -1.247,-6.559 -1.125,0 z"
         id="path3758"
         style="fill:#393134;fill-opacity:1;fill-rule:evenodd;stroke:none" />
    </g>
    <g
       transform="matrix(1.25,0,0,-1.25,118.03299,454.41727)"
       id="g3760">
      <path
         d="m 0,0 c 0,-1.071 0.596,-1.843 1.545,-1.843 1.328,0 2.331,1.708 2.331,3.239 0,0.759 -0.352,1.829 -1.532,1.829 C 0.935,3.225 0,1.504 0,0 z m 5.042,1.396 c 0,-2.033 -1.437,-4.133 -3.646,-4.133 -1.64,0 -2.561,1.219 -2.561,2.696 0,2.168 1.504,4.161 3.632,4.161 1.775,0 2.575,-1.342 2.575,-2.724"
         id="path3762"
         style="fill:#393134;fill-opacity:1;fill-rule:evenodd;stroke:none" />
    </g>
    <g
       transform="matrix(1.25,0,0,-1.25,126.19999,457.653)"
       id="g3764">
      <path
         d="m 0,0 0.867,4.649 c 0.149,0.731 0.244,1.368 0.312,1.91 l 1.003,0 -0.163,-1.287 0.028,0 c 0.582,0.921 1.477,1.437 2.425,1.437 0.786,0 1.667,-0.448 1.667,-1.817 0,-0.298 -0.054,-0.704 -0.122,-1.057 L 5.286,0 4.174,0 4.892,3.794 c 0.041,0.258 0.082,0.557 0.082,0.841 0,0.65 -0.258,1.138 -1.031,1.138 -0.799,0 -1.938,-0.962 -2.235,-2.588 L 1.111,0 0,0 z"
         id="path3766"
         style="fill:#393134;fill-opacity:1;fill-rule:evenodd;stroke:none" />
    </g>
    <g
       transform="matrix(1.25,0,0,-1.25,141.65161,454.41727)"
       id="g3768">
      <path
         d="m 0,0 c 0,-1.071 0.597,-1.843 1.545,-1.843 1.328,0 2.331,1.708 2.331,3.239 0,0.759 -0.352,1.829 -1.531,1.829 C 0.935,3.225 0,1.504 0,0 z m 5.042,1.396 c 0,-2.033 -1.437,-4.133 -3.646,-4.133 -1.64,0 -2.561,1.219 -2.561,2.696 0,2.168 1.504,4.161 3.631,4.161 1.776,0 2.576,-1.342 2.576,-2.724"
         id="path3770"
         style="fill:#393134;fill-opacity:1;fill-rule:evenodd;stroke:none" />
    </g>
    <g
       transform="matrix(1.25,0,0,-1.25,149.98799,457.653)"
       id="g3772">
      <path
         d="m 0,0 1.084,5.679 -0.881,0 0.177,0.88 0.867,0 0.068,0.353 c 0.162,0.908 0.488,1.748 1.07,2.277 0.42,0.379 0.989,0.583 1.559,0.583 0.447,0 0.745,-0.082 0.908,-0.177 L 4.608,8.701 C 4.432,8.782 4.201,8.823 3.944,8.823 3.049,8.823 2.616,7.955 2.426,6.871 l -0.054,-0.312 1.45,0 -0.163,-0.88 -1.464,0 L 1.125,0 0,0 z"
         id="path3774"
         style="fill:#393134;fill-opacity:1;fill-rule:evenodd;stroke:none" />
    </g>
    <g
       transform="matrix(1.25,0,0,-1.25,162.05085,451.58826)"
       id="g3776">
      <path
         d="m 0,0 1.003,0 c 1.423,0 2.345,0.935 2.345,2.033 0,0.976 -0.732,1.423 -1.762,1.423 -0.448,0 -0.732,-0.041 -0.949,-0.095 L 0,0 z M -0.325,4.147 C 0.23,4.283 0.989,4.351 1.667,4.351 2.575,4.351 3.361,4.134 3.849,3.686 4.269,3.32 4.527,2.805 4.527,2.182 4.527,0.84 3.51,-0.149 2.359,-0.474 L 2.345,-0.501 c 0.651,-0.217 0.948,-0.895 1.016,-1.83 0.095,-1.274 0.163,-2.155 0.285,-2.521 l -1.166,0 C 2.426,-4.662 2.331,-3.7 2.263,-2.643 2.195,-1.382 1.735,-0.867 0.827,-0.867 l -1.003,0 -0.746,-3.985 -1.125,0 1.722,8.999 z"
         id="path3778"
         style="fill:#393134;fill-opacity:1;fill-rule:evenodd;stroke:none" />
    </g>
    <g
       transform="matrix(1.25,0,0,-1.25,175.46999,450.50401)"
       id="g3780">
      <path
         d="m 0,0 c -0.15,0.054 -0.393,0.095 -0.773,0.095 -1.707,0 -3.104,-1.762 -3.104,-3.592 0,-0.732 0.258,-1.45 1.125,-1.45 0.936,0 2.047,1.22 2.372,2.968 L 0,0 z m -0.732,-5.719 c 0,0.393 0.068,1.016 0.149,1.694 l -0.027,0 c -0.705,-1.369 -1.613,-1.843 -2.548,-1.843 -1.165,0 -1.884,0.921 -1.884,2.169 0,2.289 1.68,4.689 4.54,4.689 0.637,0 1.314,-0.109 1.776,-0.245 L 0.596,-2.684 C 0.379,-3.822 0.298,-4.987 0.325,-5.719 l -1.057,0 z"
         id="path3782"
         style="fill:#393134;fill-opacity:1;fill-rule:evenodd;stroke:none" />
    </g>
    <g
       transform="matrix(1.25,0,0,-1.25,178.85924,457.653)"
       id="g3784">
      <path
         d="m 0,0 0.867,4.649 c 0.136,0.731 0.231,1.368 0.298,1.91 l 0.989,0 -0.162,-1.233 0.027,0 c 0.61,0.922 1.436,1.383 2.304,1.383 1.003,0 1.477,-0.638 1.531,-1.464 0.584,0.948 1.423,1.45 2.399,1.464 0.759,0 1.599,-0.488 1.599,-1.722 C 9.853,4.689 9.812,4.242 9.744,3.876 L 9.012,0 7.914,0 8.619,3.781 c 0.054,0.257 0.095,0.583 0.095,0.854 0,0.691 -0.257,1.138 -0.989,1.138 -0.813,0 -1.789,-0.948 -2.06,-2.412 L 5.041,0 3.957,0 4.689,3.849 c 0.054,0.298 0.081,0.542 0.081,0.8 0,0.555 -0.149,1.124 -0.976,1.124 -0.813,0 -1.843,-1.084 -2.1,-2.48 L 1.098,0 0,0 z"
         id="path3786"
         style="fill:#393134;fill-opacity:1;fill-rule:evenodd;stroke:none" />
    </g>
    <g
       transform="matrix(1.25,0,0,-1.25,195.2601,454.48527)"
       id="g3788">
      <path
         d="m 0,0 c -0.054,-0.23 -0.095,-0.488 -0.081,-0.84 0,-0.624 0.366,-0.962 1.057,-0.962 1.694,0 2.724,2.019 2.724,3.483 0,0.813 -0.353,1.558 -1.247,1.558 -0.976,0 -1.979,-1.003 -2.304,-2.548 L 0,0 z m 1.423,7.088 -0.868,-4.255 0.028,0 c 0.582,0.88 1.422,1.342 2.304,1.342 1.436,0 1.978,-1.193 1.978,-2.359 0,-2.019 -1.45,-4.499 -4.079,-4.499 -1.152,0 -2.02,0.474 -2.02,1.68 10e-4,0.325 0.055,0.719 0.123,1.03 l 1.409,7.061 1.125,0 z"
         id="path3790"
         style="fill:#393134;fill-opacity:1;fill-rule:evenodd;stroke:none" />
    </g>
    <g
       transform="matrix(1.25,0,0,-1.25,211.18585,449.45378)"
       id="g3792">
      <path
         d="M 0,0 -0.881,-4.649 C -1.03,-5.38 -1.112,-6.017 -1.179,-6.559 l -1.003,0 0.163,1.233 -0.027,0 c -0.583,-0.854 -1.437,-1.382 -2.305,-1.382 -0.84,0 -1.734,0.406 -1.734,1.897 0,0.312 0.04,0.678 0.122,1.111 l 0.718,3.7 1.112,0 -0.692,-3.659 c -0.068,-0.366 -0.108,-0.678 -0.108,-0.962 0,-0.678 0.27,-1.139 1.043,-1.139 0.813,0 1.857,0.962 2.128,2.399 L -1.125,0 0,0 z"
         id="path3794"
         style="fill:#393134;fill-opacity:1;fill-rule:evenodd;stroke:none" />
    </g>
    <g
       transform="matrix(1.25,0,0,-1.25,213.06737,456.23002)"
       id="g3796">
      <path
         d="m 0,0 c 0.312,-0.19 0.868,-0.407 1.409,-0.407 0.76,0 1.247,0.488 1.247,1.071 0,0.515 -0.23,0.827 -0.921,1.206 -0.759,0.42 -1.179,1.003 -1.179,1.681 0,1.138 0.989,2.019 2.372,2.019 0.596,0 1.124,-0.163 1.368,-0.325 L 3.984,4.391 C 3.754,4.527 3.334,4.689 2.846,4.689 2.169,4.689 1.68,4.269 1.68,3.7 1.68,3.226 1.992,2.927 2.589,2.602 3.32,2.195 3.808,1.613 3.808,0.881 c 0,-1.382 -1.111,-2.155 -2.493,-2.155 -0.705,0.014 -1.342,0.217 -1.64,0.447 L 0,0 z"
         id="path3798"
         style="fill:#393134;fill-opacity:1;fill-rule:evenodd;stroke:none" />
    </g>
    <g
       transform="matrix(1.25,0,0,-1.25,-6.7547564,381.26964)"
       id="g3800">
      <path
         d="M 0,0 7.218,0 8.135,0.678 4.27,6.936 0,0 z"
         id="path3802"
         style="fill:#114781;fill-opacity:1;fill-rule:evenodd;stroke:none" />
    </g>
    <g
       transform="matrix(1.25,0,0,-1.25,-5.4898864,417.25115)"
       id="g3804">
      <path
         d="m 0,0 c 0.445,-0.884 1.318,-2.186 1.318,-2.186 l 25.328,0 2.305,-3.753 -51.301,0 L -18.733,0 0,0 z"
         id="path3806"
         style="fill:#114781;fill-opacity:1;fill-rule:evenodd;stroke:none" />
    </g>
    <g
       transform="matrix(1.25,0,0,-1.25,-7.5343864,395.51615)"
       id="g3808">
      <path
         d="m 0,0 c -0.321,-1.011 -0.483,-1.791 -0.551,-2.2 l 18.106,0.001 2.323,-3.755 -29.933,0 L -6.405,0 0,0 z"
         id="path3810"
         style="fill:#114781;fill-opacity:1;fill-rule:evenodd;stroke:none" />
    </g>
    <g
       transform="matrix(1.25,0,0,-1.25,4.1773636,427.83076)"
       id="g3812">
      <path
         d="m 0,0 c 2.658,-1.826 4.868,-2.454 4.868,-2.454 l 19.432,0 2.321,-3.755 -62.077,0 L -31.653,0 0,0 z"
         id="path3814"
         style="fill:#114781;fill-opacity:1;fill-rule:evenodd;stroke:none" />
    </g>
    <g
       transform="matrix(1.25,0,0,-1.25,-8.6767564,406.39026)"
       id="g3816">
      <path
         d="m 0,0 c 0.087,-0.996 0.301,-2.203 0.301,-2.203 l 23.523,0 2.338,-3.752 -40.64,0 L -10.808,0 0,0 z"
         id="path3818"
         style="fill:#114781;fill-opacity:1;fill-rule:evenodd;stroke:none" />
    </g>
    <g
       transform="matrix(1.25,0,0,-1.25,-1.3912564,384.70239)"
       id="g3820">
      <path
         d="m 0,0 c -1.111,-1.177 -1.781,-2.2 -1.781,-2.2 l 9.097,0 2.294,-3.751 -19.258,0 L -5.987,0 0,0 z"
         id="path3822"
         style="fill:#114781;fill-opacity:1;fill-rule:evenodd;stroke:none" />
    </g>
    <g
       transform="matrix(1.25,0,0,-1.25,33.840134,394.77915)"
       id="g3824">
      <path
         d="m 0,0 0,0.04 c 0,3.885 2.91,7.069 7.053,7.069 2.52,0 4.042,-0.877 5.356,-2.127 L 10.863,3.203 C 9.768,4.221 8.595,4.901 7.033,4.901 4.419,4.903 2.524,2.752 2.524,0.076 l 0,-0.036 c 0,-2.676 1.895,-4.867 4.509,-4.867 1.681,0 2.755,0.684 3.929,1.779 l 1.54,-1.561 C 11.079,-6.093 9.514,-7.032 6.956,-7.032 2.97,-7.032 0,-3.925 0,0 z"
         id="path3826"
         style="fill:#393134;fill-opacity:1;fill-rule:evenodd;stroke:none" />
    </g>
    <g
       transform="matrix(1.25,0,0,-1.25,52.621504,386.17851)"
       id="g3828">
      <path
         d="m 0,0 6.092,0 c 1.719,0 3.068,-0.512 3.946,-1.371 0.727,-0.742 1.132,-1.757 1.132,-2.953 l 0,-0.038 c 0,-2.246 -1.346,-3.594 -3.259,-4.138 l 3.69,-5.18 -2.833,0 -3.358,4.769 -0.044,0 -2.964,0 0,-4.769 L 0,-13.68 0,0 z m 5.915,-6.782 c 1.722,0 2.814,0.898 2.814,2.287 l 0,0.038 c 0,1.463 -1.052,2.263 -2.834,2.263 l -3.493,0.003 0,-4.591 3.513,0 z"
         id="path3830"
         style="fill:#393134;fill-opacity:1;fill-rule:evenodd;stroke:none" />
    </g>
    <g
       transform="matrix(1.25,0,0,-1.25,74.695884,396.53912)"
       id="g3832">
      <path
         d="m 0,0 -5.431,8.288 2.833,0 3.829,-6.059 3.867,6.059 2.752,0 -5.428,-8.226 0,-5.454 L 0,-5.392 0,0 z"
         id="path3834"
         style="fill:#393134;fill-opacity:1;fill-rule:evenodd;stroke:none" />
    </g>
    <g
       transform="matrix(1.25,0,0,-1.25,87.146364,386.17851)"
       id="g3836">
      <path
         d="m 0,0 5.391,0 c 3.187,0 5.199,-1.824 5.199,-4.578 l -10e-4,-0.038 c 0,-3.066 -2.462,-4.666 -5.47,-4.666 l -2.715,0 0,-4.398 L 0,-13.68 0,0 z m 5.195,-7.114 c 1.819,0 2.954,1.014 2.954,2.439 l 0,0.043 c 0,1.599 -1.157,2.438 -2.954,2.438 l -2.791,0.003 0,-4.923 2.791,0 z"
         id="path3838"
         style="fill:#393134;fill-opacity:1;fill-rule:evenodd;stroke:none" />
    </g>
    <g
       transform="matrix(1.25,0,0,-1.25,107.65861,388.96776)"
       id="g3840">
      <path
         d="m 0,0 -4.336,0 0,2.231 11.096,0 0,-2.231 -4.34,0 0,-11.449 -2.42,0 L 0,0 z"
         id="path3842"
         style="fill:#393134;fill-opacity:1;fill-rule:evenodd;stroke:none" />
    </g>
    <g
       transform="matrix(1.25,0,0,-1.25,117.59361,394.77915)"
       id="g3844">
      <path
         d="m 0,0 0,0.04 c 0,3.847 2.967,7.069 7.171,7.069 4.197,0 7.13,-3.184 7.13,-7.033 l 0,-0.036 c 0,-3.847 -2.973,-7.072 -7.172,-7.072 C 2.93,-7.032 0,-3.848 0,0 z m 11.776,0 0,0.04 c 0,2.656 -1.93,4.861 -4.647,4.861 C 4.415,4.903 2.522,2.732 2.522,0.076 L 2.521,0.04 c 0,-2.659 1.93,-4.867 4.65,-4.867 2.711,0 4.605,2.169 4.605,4.827 z"
         id="path3846"
         style="fill:#393134;fill-opacity:1;fill-rule:evenodd;stroke:none" />
    </g>
    <g
       transform="matrix(1.25,0,0,-1.25,138.34824,394.77915)"
       id="g3848">
      <path
         d="m 0,0 0,0.04 c 0,3.829 2.932,7.069 7.052,7.069 2.384,0 3.851,-0.662 5.258,-1.854 L 10.784,3.437 C 9.728,4.334 8.698,4.901 6.955,4.901 4.434,4.903 2.522,2.695 2.522,0.076 l 0,-0.036 c 0,-2.815 1.851,-4.886 4.649,-4.886 1.286,0 2.457,0.413 3.301,1.038 l 0,2.557 -3.497,0 0,2.094 5.82,0 0,-5.743 C 11.449,-6.057 9.514,-7.032 7.092,-7.032 2.816,-7.032 0,-3.987 0,0 z"
         id="path3850"
         style="fill:#393134;fill-opacity:1;fill-rule:evenodd;stroke:none" />
    </g>
    <g
       transform="matrix(1.25,0,0,-1.25,158.24538,386.17851)"
       id="g3852">
      <path
         d="m 0,0 6.098,0 c 1.716,0 3.066,-0.512 3.943,-1.371 0.721,-0.742 1.136,-1.757 1.136,-2.953 l 0,-0.038 c 0,-2.246 -1.347,-3.594 -3.263,-4.138 l 3.691,-5.18 -2.83,0 -3.361,4.769 -0.042,0 -2.967,0 0,-4.769 L 0,-13.68 0,0 z m 5.922,-6.782 c 1.72,0 2.813,0.898 2.813,2.287 l 0,0.038 c 0,1.463 -1.055,2.263 -2.833,2.263 l -3.497,0.003 0,-4.591 3.517,0 z"
         id="path3854"
         style="fill:#393134;fill-opacity:1;fill-rule:evenodd;stroke:none" />
    </g>
    <g
       transform="matrix(1.25,0,0,-1.25,181.95363,386.06326)"
       id="g3856">
      <path
         d="m 0,0 2.231,0 6.016,-13.773 -2.543,0 -1.384,3.3 -6.466,0 -1.406,-3.3 -2.461,0 L 0,0 z m 3.442,-8.34 -2.364,5.469 -2.346,-5.469 4.71,0 z"
         id="path3858"
         style="fill:#393134;fill-opacity:1;fill-rule:evenodd;stroke:none" />
    </g>
    <g
       transform="matrix(1.25,0,0,-1.25,195.19274,386.17851)"
       id="g3860">
      <path
         d="m 0,0 5.389,0 c 3.186,0 5.196,-1.824 5.196,-4.578 l 0,-0.038 c 0,-3.066 -2.461,-4.666 -5.467,-4.666 l -2.714,0 0,-4.398 L 0,-13.68 0,0 z m 5.198,-7.114 c 1.814,0 2.946,1.014 2.946,2.439 l 0,0.043 c 0,1.599 -1.15,2.438 -2.946,2.438 l -2.794,0.003 0,-4.923 2.794,0 z"
         id="path3862"
         style="fill:#393134;fill-opacity:1;fill-rule:evenodd;stroke:none" />
    </g>
    <g
       transform="matrix(1.25,0,0,-1.25,211.50374,386.17851)"
       id="g3864">
      <path
         d="m 0,0 2.404,0 0,-5.687 6.521,0 0,5.687 2.406,0 0,-13.68 -2.406,0 0,5.764 -6.521,0 0,-5.764 L 0,-13.68 0,0 z"
         id="path3866"
         style="fill:#393134;fill-opacity:1;fill-rule:evenodd;stroke:none" />
    </g>
    <g
       transform="matrix(1.25,0,0,-1.25,235.08974,396.53912)"
       id="g3868">
      <path
         d="m 0,0 -5.432,8.288 2.834,0 3.827,-6.059 3.87,6.059 2.755,0 -5.43,-8.226 0,-5.454 L 0,-5.392 0,0 z"
         id="path3870"
         style="fill:#393134;fill-opacity:1;fill-rule:evenodd;stroke:none" />
    </g>
    <g
       transform="matrix(1.25,0,0,-1.25,63.752754,410.2269)"
       id="g3872">
      <path
         d="M 0,0 4.232,0 C 5.423,0 6.359,-0.352 6.971,-0.946 7.473,-1.466 7.757,-2.17 7.757,-3 l 0,-0.025 C 7.757,-4.583 6.82,-5.518 5.49,-5.9 l 2.563,-3.592 -1.963,0 -2.335,3.309 -0.027,0 -2.061,0 0,-3.309 L 0,-9.492 0,0 z m 4.108,-4.705 c 1.196,0 1.955,0.622 1.955,1.589 l 0,0.026 c 0,1.016 -0.733,1.57 -1.968,1.57 l -2.428,0 0,-3.185 2.441,0 z"
         id="path3874"
         style="fill:#393134;fill-opacity:1;fill-rule:evenodd;stroke:none" />
    </g>
    <g
       transform="matrix(1.25,0,0,-1.25,84.143384,410.2269)"
       id="g3876">
      <path
         d="m 0,0 7.04,0 0,-1.491 -5.368,0 0,-2.47 4.758,0 0,-1.49 -4.758,0 0,-2.552 5.436,0 0,-1.489 L 0,-9.492 0,0 z"
         id="path3878"
         style="fill:#393134;fill-opacity:1;fill-rule:evenodd;stroke:none" />
    </g>
    <g
       transform="matrix(1.25,0,0,-1.25,102.84036,420.36176)"
       id="g3880">
      <path
         d="m 0,0 1.009,1.191 c 0.908,-0.784 1.817,-1.234 2.994,-1.234 1.03,0 1.682,0.477 1.682,1.194 l 0,0.028 c 0,0.675 -0.376,1.044 -2.142,1.45 -2.02,0.487 -3.162,1.084 -3.162,2.834 l 0,0.028 c 0,1.629 1.357,2.751 3.243,2.751 1.382,0 2.482,-0.418 3.445,-1.193 L 6.173,5.792 C 5.322,6.426 4.464,6.765 3.597,6.765 2.621,6.765 2.047,6.263 2.047,5.64 l 0,-0.027 C 2.047,4.883 2.49,4.554 4.302,4.12 6.312,3.633 7.354,2.911 7.354,1.339 L 7.353,1.314 C 7.353,-0.464 5.955,-1.522 3.961,-1.522 2.511,-1.522 1.142,-1.018 0,0 z"
         id="path3882"
         style="fill:#393134;fill-opacity:1;fill-rule:evenodd;stroke:none" />
    </g>
    <g
       transform="matrix(1.25,0,0,-1.25,122.62935,410.2269)"
       id="g3884">
      <path
         d="m 0,0 7.041,0 0,-1.491 -5.372,0 0,-2.47 4.759,0 0,-1.49 -4.759,0 0,-2.552 5.438,0 0,-1.489 L 0,-9.492 0,0 z"
         id="path3886"
         style="fill:#393134;fill-opacity:1;fill-rule:evenodd;stroke:none" />
    </g>
    <g
       transform="matrix(1.25,0,0,-1.25,146.32849,410.14152)"
       id="g3888">
      <path
         d="m 0,0 1.547,0 4.176,-9.56 -1.762,0 -0.965,2.291 -4.489,0 -0.973,-2.291 -1.71,0 L 0,0 z m 2.387,-5.789 -1.643,3.794 -1.624,-3.794 3.267,0 z"
         id="path3890"
         style="fill:#393134;fill-opacity:1;fill-rule:evenodd;stroke:none" />
    </g>
    <g
       transform="matrix(1.25,0,0,-1.25,163.65524,410.2269)"
       id="g3892">
      <path
         d="M 0,0 4.23,0 C 5.426,0 6.364,-0.352 6.97,-0.946 7.471,-1.466 7.754,-2.17 7.754,-3 l 0,-0.025 C 7.754,-4.583 6.818,-5.518 5.49,-5.9 l 2.569,-3.592 -1.972,0 -2.33,3.309 -0.028,0 -2.063,0 0,-3.309 L 0,-9.492 0,0 z m 4.107,-4.705 c 1.192,0 1.952,0.622 1.952,1.589 l 0,0.026 c 0,1.016 -0.732,1.57 -1.963,1.57 l -2.43,0 0,-3.185 2.441,0 z"
         id="path3894"
         style="fill:#393134;fill-opacity:1;fill-rule:evenodd;stroke:none" />
    </g>
    <g
       transform="matrix(1.25,0,0,-1.25,183.52074,416.19626)"
       id="g3896">
      <path
         d="m 0,0 0,0.027 c 0,2.701 2.021,4.914 4.897,4.914 1.75,0 2.807,-0.612 3.718,-1.479 L 7.542,2.228 c -0.757,0.702 -1.578,1.18 -2.66,1.18 -1.816,0 -3.13,-1.494 -3.13,-3.352 l 0,-0.029 c 0,-1.857 1.314,-3.375 3.13,-3.375 1.172,0 1.912,0.474 2.727,1.233 L 8.68,-3.198 C 7.692,-4.229 6.606,-4.882 4.828,-4.882 2.064,-4.882 0,-2.723 0,0 z"
         id="path3898"
         style="fill:#393134;fill-opacity:1;fill-rule:evenodd;stroke:none" />
    </g>
    <g
       transform="matrix(1.25,0,0,-1.25,204.69698,410.2269)"
       id="g3900">
      <path
         d="m 0,0 1.668,0 0,-3.945 4.526,0 0,3.945 1.672,0 0,-9.492 -1.672,0 0,3.998 -4.526,0 0,-3.998 L 0,-9.492 0,0 z"
         id="path3902"
         style="fill:#393134;fill-opacity:1;fill-rule:evenodd;stroke:none" />
    </g>
    <g
       transform="matrix(1.25,0,0,-1.25,251.37373,386.58527)"
       id="g3904">
      <path
         d="m 0,0 -0.933,0 0,0.337 2.272,0 L 1.339,0 0.4,0 0.4,-2.731 0,-2.731 0,0 z"
         id="path3906"
         style="fill:#393134;fill-opacity:1;fill-rule:evenodd;stroke:none" />
    </g>
    <g
       transform="matrix(1.25,0,0,-1.25,256.70424,388.3144)"
       id="g3908">
      <path
         d="m 0,0 c -0.022,0.428 -0.05,0.947 -0.05,1.324 l -0.009,0 C -0.168,0.969 -0.291,0.583 -0.446,0.159 l -0.541,-1.488 -0.301,0 -0.501,1.461 C -1.934,0.569 -2.053,0.96 -2.14,1.324 l -0.008,0 C -2.157,0.942 -2.18,0.432 -2.208,-0.032 l -0.081,-1.316 -0.379,0 0.215,3.068 0.505,0 0.524,-1.484 c 0.127,-0.377 0.227,-0.714 0.309,-1.033 l 0.009,0 c 0.082,0.309 0.191,0.647 0.328,1.033 l 0.546,1.484 0.505,0 0.192,-3.068 -0.392,0 L 0,0 z"
         id="path3910"
         style="fill:#393134;fill-opacity:1;fill-rule:evenodd;stroke:none" />
    </g>
  </g>
</svg>
