<?xml version="1.0" encoding="UTF-8" standalone="no"?>
<!-- Created with Inkscape (http://www.inkscape.org/) -->

<svg
   xmlns:dc="http://purl.org/dc/elements/1.1/"
   xmlns:cc="http://creativecommons.org/ns#"
   xmlns:rdf="http://www.w3.org/1999/02/22-rdf-syntax-ns#"
   xmlns:svg="http://www.w3.org/2000/svg"
   xmlns="http://www.w3.org/2000/svg"
   version="1.1"
   width="208.0065"
   height="64.677254"
   id="svg3004"
   xml:space="preserve"><metadata
     id="metadata3010"><rdf:RDF><cc:Work
         rdf:about=""><dc:format>image/svg+xml</dc:format><dc:type
           rdf:resource="http://purl.org/dc/dcmitype/StillImage" /><dc:title></dc:title></cc:Work></rdf:RDF></metadata><defs
     id="defs3008"><clipPath
       id="clipPath3046"><path
         d="m 308.422,613.867 c -41.781,0 -80.379,-13.629 -111.598,-36.679 24.801,12.046 52.645,18.804 82.063,18.804 103.843,0 188.027,-84.183 188.027,-188.031 0,-62.055 -30.074,-117.102 -76.434,-151.359 62.727,30.488 105.965,94.816 105.965,169.238 0,103.844 -84.179,188.027 -188.023,188.027 z m -20.574,-66.64 c -29.45,0 -56.641,-9.664 -78.586,-25.993 17.5,8.59 37.179,13.414 57.988,13.414 72.762,0 131.742,-58.984 131.742,-131.746 0,-43.3 -20.894,-81.742 -53.156,-105.746 43.684,21.449 73.758,66.371 73.758,118.324 0,72.762 -58.985,131.747 -131.746,131.747 z M 147.906,424.426 c 0,50.539 24.383,95.394 62.032,123.429 -51.129,-24.992 -86.34,-77.511 -86.34,-138.253 0,-84.946 68.863,-153.821 153.804,-153.821 34.399,0 66.161,11.309 91.778,30.379 -20.371,-9.961 -43.266,-15.543 -67.469,-15.543 -84.941,0 -153.805,68.867 -153.805,153.809 z m 125.742,-39.113 13.622,0 c 3.179,0 5.781,2.609 5.781,5.792 l 0,81.028 c 10.094,-1.547 17.281,-4.641 27.125,-8.84 2.746,-1.176 4.144,-1.68 6.851,-1.602 6.543,0.215 12.332,4.727 12.332,11.27 0,4.055 -2.089,7.625 -5.195,9.766 -15.234,10.382 -37.019,15.671 -55.848,15.671 -52.964,0 -95.605,-40.75 -95.605,-91.757 0,-51.493 39.398,-92.356 95.898,-92.356 27.821,0 59.008,18.801 64.461,33.578 0,0 -24.757,-22.793 -62.132,-22.793 -42.43,0 -76.833,33.125 -76.833,73.993 0,37.355 25.036,67.531 63.762,73.078 l 0,-81.036 c 0,-3.183 2.602,-5.792 5.781,-5.792 z"
         id="path3048" /></clipPath><linearGradient
       x1="0"
       y1="0"
       x2="1"
       y2="0"
       id="linearGradient3050"
       gradientUnits="userSpaceOnUse"
       gradientTransform="matrix(37.2846,0,0,-37.2846,12.3599,43.4824)"
       spreadMethod="pad"><stop
         id="stop3052"
         style="stop-color:#10508c;stop-opacity:1"
         offset="0" /><stop
         id="stop3054"
         style="stop-color:#479ada;stop-opacity:1"
         offset="1" /></linearGradient></defs><g
     transform="matrix(1.25,0,0,-1.25,-13.44975,78.733375)"
     id="g3012"><g
       transform="scale(0.1,0.1)"
       id="g3014"><path
         d="m 1126.73,559.586 0,0.027 -0.48,0 c -0.34,0.012 -0.68,0.02 -1.03,0.02 -20.35,0 -36.51,-14.942 -43.48,-33.344 l -0.55,0 0,9.957 -0.03,0 c -0.04,12.973 -10.57,23.481 -23.56,23.481 -12.98,0 -23.53,-10.508 -23.57,-23.481 l 0,-105.875 c 0,-13.406 10.88,-24.293 24.31,-24.293 13.42,0 24.26,10.887 24.26,24.293 l 0,51.918 c 0,18.117 12.23,35.813 35.66,35.813 1.97,0 3.84,-0.114 5.7,-0.305 0.78,-0.086 1.56,-0.137 2.36,-0.137 11.59,0 20.96,9.387 20.96,20.992 0,11.438 -9.15,20.715 -20.55,20.934 z m 130.91,-116.672 c -7.72,-2.098 -12.9,-0.32 -16.44,2.07 -5.89,4 -5.44,16.446 -5.44,16.446 l 0,66.273 24.73,0 c 8.45,0 15.33,6.844 15.33,15.301 0,8.465 -6.88,15.34 -15.33,15.34 l -24.77,0 0,31.062 -0.03,0 c 0,13.067 -10.6,23.668 -23.65,23.668 -13.08,0 -23.68,-10.601 -23.68,-23.668 l -0.03,0 0,-31.062 -15.09,0 c -8.47,0 -15.34,-6.875 -15.34,-15.34 0,-8.457 6.87,-15.301 15.34,-15.301 l 15.12,0 0,-70.746 c 0,-48.5 32.83,-59.086 79.51,-44.414 12.02,3.523 11.27,15.379 11.27,15.379 0,21.973 -21.5,14.992 -21.5,14.992 z m 190.98,54.656 c 0,6.063 -0.33,11.743 -1.01,17.047 -4.29,23.426 -23.38,41.629 -47.24,44.633 -1.71,0.086 -3.41,0.184 -5.23,0.184 -5.88,0 -11.97,-0.649 -17.78,-2.118 -9.92,-3.039 -18.64,-8.796 -25.31,-16.433 -0.35,-0.457 -0.65,-0.903 -0.96,-1.391 l -0.67,0 0.04,54.524 c -1.57,11.211 -11.21,19.828 -22.86,19.828 -12.76,0 -23.08,-10.344 -23.08,-23.086 l 0,-160.879 c 0,-13.066 10.62,-23.684 23.68,-23.684 13.07,0 23.75,10.586 23.76,23.645 l 0,70.984 c 0,15.188 11.99,23.223 24.63,23.223 13.64,0 24.69,-9.563 24.69,-23.223 l 0,-70.984 c 0.02,-13.059 10.62,-23.645 23.68,-23.645 13.09,0 23.67,10.618 23.67,23.684 0,0.043 -0.01,0.07 -0.01,0.113 l 0,67.578 z m 143.92,62.129 c -13.07,0 -23.74,-10.586 -23.75,-23.652 l 0,-70.988 c 0,-15.164 -11.99,-23.223 -24.62,-23.223 -13.65,0 -24.7,9.586 -24.7,23.223 l 0,70.988 c -0.03,13.066 -10.63,23.652 -23.69,23.652 -13.07,0 -23.66,-10.605 -23.66,-23.683 l 0,-67.68 c 0,-6.074 0.35,-11.742 1.01,-17.051 4.32,-23.441 23.38,-41.644 47.23,-44.648 1.73,-0.09 3.44,-0.184 5.27,-0.184 5.85,0 11.95,0.664 17.76,2.113 9.92,3.051 18.66,8.805 25.34,16.414 0.3,0.481 0.65,0.934 0.94,1.422 l 0.28,0 0.34,-0.019 c 1.59,-11.207 11.22,-19.844 22.86,-19.844 12.79,0 23.09,10.348 23.09,23.102 l 0,106.375 c 0,13.078 -10.63,23.683 -23.7,23.683 z m 142.56,-0.133 0,0.02 -0.5,0 c -0.34,0 -0.68,0.019 -1.03,0.019 -20.33,0 -36.5,-14.953 -43.47,-33.351 l -0.55,0 0,9.961 -0.02,0 c -0.04,12.984 -10.58,23.484 -23.57,23.484 -12.96,0 -23.53,-10.5 -23.56,-23.484 l 0,-105.879 c 0,-13.402 10.88,-24.301 24.28,-24.301 13.44,0 24.29,10.899 24.29,24.301 l 0,51.926 c 0,18.113 12.24,35.808 35.64,35.808 1.98,0 3.86,-0.109 5.72,-0.293 0.77,-0.097 1.54,-0.144 2.33,-0.144 11.6,0 20.99,9.383 20.99,20.98 0,11.438 -9.17,20.735 -20.55,20.953 z M 600.645,447.094 c -19.918,0 -36.055,16.144 -36.055,36.035 0,19.937 16.137,36.07 36.055,36.07 19.914,0 36.058,-16.133 36.058,-36.07 0,-19.891 -16.144,-36.035 -36.058,-36.035 z m 0,112.883 c -42.426,0 -76.832,-34.403 -76.832,-76.836 0,-42.422 34.406,-76.821 76.832,-76.821 42.421,0 76.82,34.399 76.82,76.821 0,42.433 -34.399,76.836 -76.82,76.836 z m 308.566,-62.063 c 2.781,17.566 13.937,29.531 30.656,29.531 15.887,0 27.313,-13.363 28.16,-29.531 l -58.816,0 z m 103.949,2.613 c -7.45,34.536 -32.23,58.989 -73.293,58.989 -42.64,0 -78.043,-31.782 -78.043,-76.102 0,-48.508 32.059,-76.926 79.16,-76.926 17.629,0 33.657,3.098 52.746,17.196 1.602,1.007 4.864,3.168 6.81,5.257 3.03,3.036 4.91,7.235 4.91,11.934 0,9.328 -7.552,16.883 -16.845,16.883 -4.738,0 -9.027,-1.906 -12.082,-4.992 -17.91,-17.086 -34.964,-14.219 -34.964,-14.219 -20.09,0 -31.508,13.094 -32.348,32.879 l 76.426,-0.059 c 34.273,0 27.523,29.106 27.523,29.106 l 0,0.054 z m -243.195,-57.8 c -21.449,0 -28.695,16.445 -28.695,41.796 0,29.836 16.156,38.754 28.984,38.754 20.906,0 28.152,-20.351 28.152,-38.754 0,-19.796 -7.246,-41.796 -28.441,-41.796 z m 14.797,116.789 c -17.848,0 -31.516,-6.688 -41.254,-20.071 l -0.57,0 0,50.243 -0.012,0 c -0.133,12.949 -10.68,23.414 -23.664,23.414 -12.985,0 -23.532,-10.465 -23.649,-23.414 l -0.066,0 0,-160.879 c 0,-12.723 10.332,-23.051 23.047,-23.051 10.508,0 19.386,7.035 22.148,16.644 l 0.231,4.993 0.297,0 c 9.199,-13.668 23.128,-20.907 39.863,-20.907 45.43,0 64.668,39.016 64.668,79.711 0,37.629 -20.074,73.317 -61.039,73.317"
         id="path3016"
         style="fill:#231f20;fill-opacity:1;fill-rule:nonzero;stroke:none" /><path
         d="m 1129.2,276.387 c -7,-8.047 -17.98,-12.274 -27.64,-12.274 -9.49,0 -20.47,4.227 -27.62,12.274 -9.8,11.133 -10.7,27.492 -10.7,33.625 0,12.144 2.81,24.433 10.7,33.64 10.09,11.407 24.12,12.286 27.62,12.286 3.96,0 18.29,-1.161 27.64,-12.286 8.93,-10.379 10.85,-23.828 10.85,-33.64 0,-6.133 -0.9,-22.492 -10.85,-33.625 z m -27.64,87.734 c -38.32,0 -48.69,-32.168 -48.69,-54.109 0,-21.192 9.82,-54.094 48.69,-54.094 38.32,0 48.85,31.863 48.85,54.094 0,21.062 -9.78,54.109 -48.85,54.109 z m 217.82,-87.734 c -7.04,-8.047 -17.99,-12.274 -27.63,-12.274 -9.49,0 -20.48,4.227 -27.65,12.274 -9.79,11.133 -10.66,27.492 -10.66,33.625 0,12.144 2.76,24.433 10.66,33.64 10.09,11.407 24.13,12.286 27.65,12.286 3.92,0 18.27,-1.161 27.63,-12.286 8.93,-10.379 10.82,-23.828 10.82,-33.64 0,-6.133 -0.88,-22.492 -10.82,-33.625 z m -27.63,87.734 c -38.31,0 -48.69,-32.168 -48.69,-54.109 0,-21.192 9.77,-54.094 48.69,-54.094 38.31,0 48.84,31.863 48.84,54.094 0,21.062 -9.81,54.109 -48.84,54.109 z m -58.68,-97.82 -47.23,0 0,89.637 c 0,3.656 -0.16,8.195 -5.14,8.195 -4.8,0 -4.8,-4.539 -4.8,-8.195 l 0,-89.942 c 0,-7.461 0.87,-8.308 8.32,-8.308 l 48.85,0 c 3.36,0 7.28,0 7.28,4.382 0,4.231 -4.08,4.231 -7.28,4.231 z m 448.89,42.832 c -4.97,2.937 -9.5,4.687 -26.17,8.347 -9.34,2.051 -23.7,5.254 -23.7,19.305 0,10.52 9.5,19.153 23.83,19.153 6.74,0 20.92,-1.629 25.15,-17.239 0.59,-2.215 1.33,-5.582 4.84,-5.582 2.32,0 4.53,1.903 4.53,5.582 0,2.328 -1.03,7.141 -3.38,11.078 -7.29,12.594 -22.66,14.344 -30.24,14.344 -23.27,0 -34.1,-13.293 -34.1,-28.367 0,-11.106 6.02,-17.551 10.7,-20.762 5.86,-4.094 10.53,-5.129 29.98,-9.504 6.99,-1.609 21.48,-4.832 21.48,-19.89 0,-15.5 -16.1,-21.485 -28.82,-21.485 -6.57,0 -14.33,1.59 -20.02,6.7 -4.39,3.984 -4.98,7.468 -8.03,16.707 -0.3,0.859 -1.05,3.507 -4.09,3.507 -2.07,0 -4.41,-1.769 -4.41,-4.562 0,-4.813 2.34,-10.371 3.65,-13.016 5.73,-11.543 16.98,-17.531 34.09,-17.531 26.03,0 36.99,15.781 36.99,30.977 0,5.117 -1.91,16.093 -12.28,22.238 z m -189.57,54.988 c -4.79,0 -4.97,-4.527 -4.97,-8.183 l 0,-91.825 c 0,-3.808 0.18,-8.195 5.14,-8.195 4.82,0 4.82,4.523 4.82,8.195 l 0,91.825 c 0,3.656 0,8.183 -4.99,8.183 z m 101.95,-97.82 -53.81,0 0,40.937 47.39,0 c 3.22,0 7.14,0 7.14,4.375 0,4.246 -3.92,4.246 -7.14,4.246 l -47.39,0 0,37.883 51.47,0 c 3.35,0 7.33,-0.293 7.33,4.25 0,4.379 -4.12,4.379 -7.33,4.379 l -53.07,0 c -7.3,0 -8.34,-0.867 -8.34,-8.367 l 0,-88.008 c 0,-7.461 0.86,-8.32 8.34,-8.32 l 55.41,0 c 3.22,0 7.16,0 7.16,4.394 0,3.77 -3.5,4.231 -7.16,4.231 z m -146.24,43.562 -28.24,0 c -3.21,0 -7.16,0 -7.16,-4.375 0,-4.394 4.67,-4.258 7.76,-4.258 l 27.33,0 0,-25.722 c -6.14,-5.266 -19.44,-11.395 -34.52,-11.395 -17.38,0 -41.1,10.797 -41.1,46.211 0,28.375 16.69,45.614 40.96,45.614 22.51,0 28.81,-13.739 32.48,-20.032 1.89,-3.218 3.21,-4.832 5.26,-4.832 1.01,0 4.69,0.742 4.69,4.832 0,2.649 -3.53,9.934 -8.06,15.199 -8.33,9.657 -21.22,13.028 -34.07,13.028 -33.77,0 -51.61,-24.297 -51.61,-54.688 0,-31.3 18.7,-53.515 53.06,-53.515 23.7,0 39.92,12.265 41.68,14.312 1.17,1.176 1.17,1.457 1.17,6 l 0,26.035 c 0,2.918 0,3.946 -0.58,4.825 -1.77,2.761 -4.11,2.761 -9.05,2.761 z m -840.014,52.508 -62.582,0 c -3.371,0 -7.606,0 -7.606,-4.676 0,-4.539 4.235,-4.539 7.606,-4.539 l 26.316,0 0,-89.043 c 0,-3.808 0,-8.195 4.977,-8.195 4.961,0 4.961,4.523 4.961,8.195 l 0,89.043 26.328,0 c 3.375,0 7.605,0 7.605,4.676 0,4.539 -4.23,4.539 -7.605,4.539 z m 90.391,-96.07 -53.813,0 0,40.937 47.371,0 c 3.219,0 7.164,0 7.164,4.375 0,4.246 -3.945,4.246 -7.164,4.246 l -47.371,0 0,37.883 51.453,0 c 3.371,0 7.336,-0.293 7.336,4.25 0,4.379 -4.101,4.379 -7.336,4.379 l -53.07,0 c -7.305,0 -8.336,-0.867 -8.336,-8.367 l 0,-88.008 c 0,-7.461 0.894,-8.32 8.336,-8.32 l 55.43,0 c 3.218,0 7.164,0 7.164,4.394 0,3.77 -3.516,4.231 -7.164,4.231 z m 110.992,27.637 c -4.672,0 -4.375,-8.489 -9.625,-15.793 -6.586,-9.063 -16.969,-14.192 -28.383,-14.192 -16.078,0 -37.137,10.383 -37.137,45.625 0,41.945 29.235,46.36 38.606,46.36 8.043,0 13.297,-2.645 16.675,-4.676 4.958,-3.067 8.918,-7.61 11.391,-12.129 4.395,-8.059 4.668,-8.645 7.32,-8.645 3.516,0 4.239,3.223 4.239,4.082 0,4.129 -10.09,29.551 -40.367,29.551 -28.641,0 -48.247,-21.641 -48.247,-53.965 0,-15.652 6.442,-54.375 47.664,-54.375 32.325,0 42.094,27.461 42.094,34.211 0,2.637 -2.039,3.946 -4.23,3.946 z m 103.707,70.183 c -4.817,0 -5.117,-4.527 -5.117,-8.047 l 0,-38.894 -60.09,0 0,38.758 c 0,3.804 -0.16,8.183 -5.114,8.183 -4.843,0 -4.843,-4.527 -4.843,-8.183 l 0,-91.825 c 0,-3.82 0,-8.195 4.843,-8.195 4.954,0 5.114,4.523 5.114,8.195 l 0,44.442 60.09,0 0,-44.602 c 0,-3.66 0.3,-8.035 5.269,-8.035 4.676,0 4.676,4.375 4.676,8.035 l 0,92.121 c 0,3.668 0,8.047 -4.828,8.047 z m 109.404,0 c -4.68,0 -4.83,-4.238 -4.83,-5.984 l 0.73,-85.989 -58.175,86.114 c -2.793,4.109 -3.977,5.707 -6.875,5.707 -5.864,0 -5.864,-5.258 -5.864,-9.66 l 0,-90.196 c 0,-3.82 0,-8.195 4.985,-8.195 5.387,0 4.812,4.656 4.812,8.035 l -0.722,82.922 57.309,-84.676 c 3.07,-4.511 4.25,-6.125 7.33,-6.125 2.17,0 3.51,0.871 4.24,1.614 2.03,1.746 2.03,3.359 2.03,8.601 l 0,89.649 c 0,3.804 0,8.183 -4.97,8.183"
         id="path3018"
         style="fill:#479ada;fill-opacity:1;fill-rule:nonzero;stroke:none" /><path
         d="m 560.121,178.379 0,-48.098 -5.973,0 0,48.098 -15.75,0 0,5.43 37.477,0 0,-5.43 -15.754,0"
         id="path3020"
         style="fill:#231f20;fill-opacity:1;fill-rule:nonzero;stroke:none" /><path
         d="m 665.102,130.281 0,25.239 -26.61,0 0,-25.239 -5.972,0 0,53.528 5.972,0 0,-22.86 26.61,0 0,22.86 5.972,0 0,-53.528 -5.972,0"
         id="path3022"
         style="fill:#231f20;fill-opacity:1;fill-rule:nonzero;stroke:none" /><path
         d="m 731.016,130.281 0,53.528 32.359,0 0,-5.43 -26.387,0 0,-16.816 15.293,0 0,-5.43 -15.293,0 0,-20.418 27.539,0 0,-5.434 -33.511,0"
         id="path3024"
         style="fill:#231f20;fill-opacity:1;fill-rule:nonzero;stroke:none" /><path
         d="m 925.715,130.281 0,12.766 c 0,5.281 0.07,10.109 0.297,14.238 -1.602,-3.984 -4.364,-10.183 -6.192,-14.012 l -7.027,-14.824 -7.051,14.824 c -1.832,3.829 -4.586,10.028 -6.191,14.012 0.222,-4.129 0.304,-8.957 0.304,-14.238 l 0,-12.766 -13.91,0 0,53.528 13.606,0 6.582,-14.286 c 3.207,-6.894 5.894,-13.164 6.734,-16.144 0.91,3.066 3.356,8.867 6.727,16.144 l 6.566,14.286 13.465,0 0,-53.528 -13.91,0"
         id="path3026"
         style="fill:#231f20;fill-opacity:1;fill-rule:nonzero;stroke:none" /><path
         d="m 1083.08,129.445 c -13.1,0 -21.65,11.856 -21.65,27.528 0,15.91 8.94,27.683 21.87,27.683 7.34,0 12.84,-2.75 17.06,-8.562 l -4.98,-3.594 c -3.2,4.512 -6.42,6.719 -12.23,6.719 -9.17,0 -15.76,-9.09 -15.76,-22.09 0,-13.086 6.81,-22.258 15.84,-22.258 6.51,0 9.86,2.902 12.99,7.035 l 4.37,-3.437 c -3.75,-5.274 -9.25,-9.024 -17.51,-9.024"
         id="path3028"
         style="fill:#231f20;fill-opacity:1;fill-rule:nonzero;stroke:none" /><path
         d="m 1177.35,179.219 c -9.23,0 -16.06,-8.633 -16.06,-22.09 0,-13.469 7.04,-22.258 16.38,-22.258 9.25,0 16.13,8.637 16.13,22.102 0,13.468 -7.1,22.246 -16.45,22.246 z m 0.08,-49.774 c -13.3,0 -22.1,11.395 -22.1,27.528 0,16.132 8.96,27.683 22.27,27.683 13.3,0 22.17,-11.402 22.17,-27.527 0,-16.133 -9.03,-27.684 -22.34,-27.684"
         id="path3030"
         style="fill:#231f20;fill-opacity:1;fill-rule:nonzero;stroke:none" /><path
         d="m 1297.88,130.281 0,41.985 c -0.54,-2.063 -2.06,-6.043 -3.22,-8.868 l -14.3,-34.492 -14.07,34.492 c -1.14,2.754 -2.59,6.805 -3.15,8.868 l 0,-41.985 -5.72,0 0,53.528 6.65,0 12.62,-32.032 c 1.31,-3.211 3.21,-8.191 3.83,-10.398 0.68,2.281 2.61,7.266 3.82,10.398 l 12.77,32.032 6.5,0 0,-53.528 -5.73,0"
         id="path3032"
         style="fill:#231f20;fill-opacity:1;fill-rule:nonzero;stroke:none" /><path
         d="m 1383.35,178.379 -13.84,0 0,-21.641 13.08,0 c 8.19,0 12.08,3.75 12.08,10.86 0,6.886 -3.98,10.781 -11.32,10.781 z m -0.84,-27.07 -13,0 0,-21.028 -5.97,0 0,53.528 20.05,0 c 9.72,0 17.04,-5.118 17.04,-15.977 0,-10.633 -7.42,-16.523 -18.12,-16.523"
         id="path3034"
         style="fill:#231f20;fill-opacity:1;fill-rule:nonzero;stroke:none" /><path
         d="m 1478.88,166.914 c -1.23,3.527 -2.77,8.34 -3.3,10.559 -0.54,-2.149 -2.07,-6.965 -3.36,-10.715 l -5.89,-17.434 18.43,0 -5.88,17.59 z m 12.3,-36.633 -4.59,13.617 -22.11,0 -4.66,-13.617 -6.12,0 18.59,53.528 6.59,0 18.57,-53.528 -6.27,0"
         id="path3036"
         style="fill:#231f20;fill-opacity:1;fill-rule:nonzero;stroke:none" /><path
         d="m 1587.37,130.281 -23.41,36.633 c -1.13,1.836 -3.13,5.352 -3.82,6.731 l 0,-43.364 -5.73,0 0,53.528 5.81,0 23.17,-37.317 c 1.16,-1.836 3.14,-5.347 3.83,-6.726 l 0,44.043 5.74,0 0,-53.528 -5.59,0"
         id="path3038"
         style="fill:#231f20;fill-opacity:1;fill-rule:nonzero;stroke:none" /><path
         d="m 1673.78,151.543 0,-21.262 -5.97,0 0,21.196 -18.35,32.332 6.81,0 8.55,-15.36 c 2.15,-3.898 4.53,-8.34 6.04,-11.476 1.54,3.136 3.93,7.644 6.05,11.476 l 8.58,15.36 6.66,0 -18.37,-32.266"
         id="path3040"
         style="fill:#231f20;fill-opacity:1;fill-rule:nonzero;stroke:none" /><g
         id="g3042"><g
           clip-path="url(#clipPath3046)"
           id="g3044"><path
             d="m 308.422,613.867 c -41.781,0 -80.379,-13.629 -111.598,-36.679 24.801,12.046 52.645,18.804 82.063,18.804 103.843,0 188.027,-84.183 188.027,-188.031 0,-62.055 -30.074,-117.102 -76.434,-151.359 62.727,30.488 105.965,94.816 105.965,169.238 0,103.844 -84.179,188.027 -188.023,188.027 z m -20.574,-66.64 c -29.45,0 -56.641,-9.664 -78.586,-25.993 17.5,8.59 37.179,13.414 57.988,13.414 72.762,0 131.742,-58.984 131.742,-131.746 0,-43.3 -20.894,-81.742 -53.156,-105.746 43.684,21.449 73.758,66.371 73.758,118.324 0,72.762 -58.985,131.747 -131.746,131.747 z M 147.906,424.426 c 0,50.539 24.383,95.394 62.032,123.429 -51.129,-24.992 -86.34,-77.511 -86.34,-138.253 0,-84.946 68.863,-153.821 153.804,-153.821 34.399,0 66.161,11.309 91.778,30.379 -20.371,-9.961 -43.266,-15.543 -67.469,-15.543 -84.941,0 -153.805,68.867 -153.805,153.809 z m 125.742,-39.113 13.622,0 c 3.179,0 5.781,2.609 5.781,5.792 l 0,81.028 c 10.094,-1.547 17.281,-4.641 27.125,-8.84 2.746,-1.176 4.144,-1.68 6.851,-1.602 6.543,0.215 12.332,4.727 12.332,11.27 0,4.055 -2.089,7.625 -5.195,9.766 -15.234,10.382 -37.019,15.671 -55.848,15.671 -52.964,0 -95.605,-40.75 -95.605,-91.757 0,-51.493 39.398,-92.356 95.898,-92.356 27.821,0 59.008,18.801 64.461,33.578 0,0 -24.757,-22.793 -62.132,-22.793 -42.43,0 -76.833,33.125 -76.833,73.993 0,37.355 25.036,67.531 63.762,73.078 l 0,-81.036 c 0,-3.183 2.602,-5.792 5.781,-5.792"
             id="path3056"
             style="fill:url(#linearGradient3050);fill-opacity:1;fill-rule:nonzero;stroke:none" /></g></g></g></g></svg>