<?xml version="1.0" encoding="UTF-8" standalone="no"?>
<svg
   xmlns:dc="http://purl.org/dc/elements/1.1/"
   xmlns:cc="http://creativecommons.org/ns#"
   xmlns:rdf="http://www.w3.org/1999/02/22-rdf-syntax-ns#"
   xmlns:svg="http://www.w3.org/2000/svg"
   xmlns="http://www.w3.org/2000/svg"
   xmlns:sodipodi="http://sodipodi.sourceforge.net/DTD/sodipodi-0.dtd"
   xmlns:inkscape="http://www.inkscape.org/namespaces/inkscape"
   width="150"
   version="1.1"
   height="54.32"
   id="svg3056"
   inkscape:version="0.48.4 r9939"
   sodipodi:docname="NXP_Semiconductors_Logo.svg"
   inkscape:export-filename="NXP_Semiconductors_Logo.png"
   inkscape:export-xdpi="614.40002"
   inkscape:export-ydpi="614.40002">
  <metadata
     id="metadata3074">
    <rdf:RDF>
      <cc:Work
         rdf:about="">
        <dc:format>image/svg+xml</dc:format>
        <dc:type
           rdf:resource="http://purl.org/dc/dcmitype/StillImage" />
        <dc:title></dc:title>
      </cc:Work>
    </rdf:RDF>
  </metadata>
  <defs
     id="defs3072" />
  <sodipodi:namedview
     pagecolor="#ffffff"
     bordercolor="#666666"
     borderopacity="1"
     objecttolerance="10"
     gridtolerance="10"
     guidetolerance="10"
     inkscape:pageopacity="0"
     inkscape:pageshadow="2"
     inkscape:window-width="718"
     inkscape:window-height="879"
     id="namedview3070"
     showgrid="false"
     inkscape:zoom="8.8533333"
     inkscape:cx="75"
     inkscape:cy="27.16"
     inkscape:window-x="720"
     inkscape:window-y="19"
     inkscape:window-maximized="0"
     inkscape:current-layer="svg3056" />
  <g
     transform="translate(-356.5 -243.11)"
     id="g3058">
    <path
       fill="#6dacde"
       d="m446.46 243.11-3.0417-0.00032-11.218 18.055-11.219-18.055h-3.0513l0.00064 54.319h3.0506l11.219-18.055 11.218 18.055 3.0733-0.00064-0.0319-0.0449 0.00032-54.273z"
       id="path3060" />
    <path
       fill="#938647"
       d="m417.93 243.11h-16.637l16.616 27.159-16.616 27.16h16.638l-0.00064-54.319z"
       id="path3062" />
    <path
       fill="#6d9a45"
       d="m463.11 243.11h-16.647l-0.00032 54.273 0.0319 0.0449 16.613-0.003-16.614-27.157 16.616-27.159z"
       id="path3064" />
    <path
       fill="#bfd730"
       d="m486.83 243.11h-23.718l-16.616 27.159 16.615 27.157h0.007l-0.007-11.998h28.074c11.785 0 15.313-9.2835 15.313-17.368v-6.3826c-0.00064-10.631-3.8298-18.566-19.668-18.566zm4.1505 21.916c0 3.2202-1.5007 6.9254-5.4049 6.9254h-22.443v-15.366h21.016c5.0292 0 6.8318 2.0962 6.8318 5.7649v2.6755h0.00001z"
       id="path3066" />
    <path
       fill="#fcb316"
       d="m417.91 270.27-16.616-27.159-0.007-0.00032-0.002 32.824-28.153-32.824h-16.638v54.319l16.652-0.004-0.006-32.821 28.154 32.825 16.616-27.16z"
       id="path3068" />
  </g>
</svg>
