<?xml version="1.0" encoding="UTF-8" standalone="no"?>
<!-- Created with Inkscape (http://www.inkscape.org/) -->

<svg
   xmlns:dc="http://purl.org/dc/elements/1.1/"
   xmlns:cc="http://creativecommons.org/ns#"
   xmlns:rdf="http://www.w3.org/1999/02/22-rdf-syntax-ns#"
   xmlns:svg="http://www.w3.org/2000/svg"
   xmlns="http://www.w3.org/2000/svg"
   xmlns:sodipodi="http://sodipodi.sourceforge.net/DTD/sodipodi-0.dtd"
   xmlns:inkscape="http://www.inkscape.org/namespaces/inkscape"
   version="1.1"
   width="243.53389"
   height="57.555969"
   id="svg2"
   xml:space="preserve"
   inkscape:version="0.48.3.1 r9886"
   sodipodi:docname="stonesoft.svg"><sodipodi:namedview
     pagecolor="#ffffff"
     bordercolor="#666666"
     borderopacity="1"
     objecttolerance="10"
     gridtolerance="10"
     guidetolerance="10"
     inkscape:pageopacity="0"
     inkscape:pageshadow="2"
     inkscape:window-width="749"
     inkscape:window-height="748"
     id="namedview20"
     showgrid="false"
     fit-margin-top="0"
     fit-margin-left="0"
     fit-margin-right="0"
     fit-margin-bottom="0"
     inkscape:zoom="1.03"
     inkscape:cx="216.19743"
     inkscape:cy="28.809235"
     inkscape:window-x="0"
     inkscape:window-y="18"
     inkscape:window-maximized="0"
     inkscape:current-layer="svg2" /><metadata
     id="metadata8"><rdf:RDF><cc:Work
         rdf:about=""><dc:format>image/svg+xml</dc:format><dc:type
           rdf:resource="http://purl.org/dc/dcmitype/StillImage" /><dc:title></dc:title></cc:Work></rdf:RDF></metadata><defs
     id="defs6"><clipPath
       id="clipPath18"><path
         d="m 0,0 634.688,0 0,150 L 0,150 0,0 z"
         id="path20"
         inkscape:connector-curvature="0" /></clipPath></defs><g
     transform="matrix(3.8370647,0,0,-3.8370647,0,57.55597)"
     id="g10"><g
       transform="scale(0.1,0.1)"
       id="g12"><g
         id="g14"><g
           clip-path="url(#clipPath18)"
           id="g16"><path
             d="M 50.2109,41.7773 C 50.2109,18.9453 29.9688,5.44922 7.52344,0 L 0,18.7109 c 11.7461,4.7266 26.5664,8.3008 26.5664,22.5 0,22.4297 -25.945306,34.2461 -25.945306,65.9571 0,22.988 21.089806,37.855 43.937506,43.086 l 5.0234,-19.84 c -11.6914,-3.555 -25.7382,-9.004 -25.7382,-22.113 0,-25.4416 26.3671,-38.1369 26.3671,-66.5237"
             id="path22"
             style="fill:#043b60;fill-opacity:1;fill-rule:evenodd;stroke:none"
             inkscape:connector-curvature="0" /><path
             d="m 118.152,128.52 -16.922,0 0,-125.29734 -23.2261,0 0,125.29734 -17.7617,0 -0.0039,19.097 57.9137,0 0,-19.097"
             id="path24"
             style="fill:#043b60;fill-opacity:1;fill-rule:evenodd;stroke:none"
             inkscape:connector-curvature="0" /><path
             d="m 281.211,1.32812 -5.441,0 -41.004,75.41018 0,-73.51564 -21.145,0 0,146.28534 6.074,0 40.598,-73.34 0,71.449 20.918,0 0,-146.28888"
             id="path26"
             style="fill:#043b60;fill-opacity:1;fill-rule:evenodd;stroke:none"
             inkscape:connector-curvature="0" /><path
             d="m 346.477,62.1758 -20.207,0 0,-40.0469 24.668,0 0,-18.90624 -47.684,0 0,144.39434 47.684,0 0,-19.097 -24.668,0 0,-47.438 20.207,0 0,-18.9062"
             id="path28"
             style="fill:#043b60;fill-opacity:1;fill-rule:evenodd;stroke:none"
             inkscape:connector-curvature="0" /><path
             d="M 415.105,41.7773 C 415.105,18.9648 394.844,5.44922 372.422,0 l -7.539,18.7109 c 11.758,4.7266 26.582,8.3008 26.582,22.5 0,22.4297 -26.16,34.2461 -26.16,65.9571 0,22.988 21.297,37.855 44.148,43.086 l 5.02,-19.84 c -11.7,-3.555 -25.735,-9.004 -25.735,-22.113 0,-25.4416 26.367,-38.1369 26.367,-66.5237"
             id="path30"
             style="fill:#043b60;fill-opacity:1;fill-rule:evenodd;stroke:none"
             inkscape:connector-curvature="0" /><path
             d="m 560.93,62.1758 -19.282,0 0,-58.95314 -23.003,0 0,144.39434 45.554,0 0.059,-19.097 -22.61,0 0,-47.438 19.282,0 0,-18.9062"
             id="path32"
             style="fill:#043b60;fill-opacity:1;fill-rule:evenodd;stroke:none"
             inkscape:connector-curvature="0" /><path
             d="m 160.32,130.605 c 14.953,0 14.438,-43.2183 14.438,-55.2066 0,-11.9531 0.515,-55.164 -14.438,-55.164 -14.793,0 -14.441,43.8554 -14.441,55.164 0,11.3243 -0.352,55.2066 14.441,55.2066 z m 0,19.844 c -35.359,0 -37.246,-50.9178 -37.246,-75.0506 0,-24.1015 1.887,-75.027306 37.246,-75.027306 34.731,0 37.239,43.886706 37.239,75.027306 0,31.1716 -2.508,75.0506 -37.239,75.0506"
             id="path34"
             style="fill:#043b60;fill-opacity:1;fill-rule:evenodd;stroke:none"
             inkscape:connector-curvature="0" /><path
             d="m 464.18,130.605 c 14.953,0 14.425,-43.2183 14.425,-55.2066 0,-11.9531 0.528,-55.164 -14.425,-55.164 -14.805,0 -14.446,43.8554 -14.446,55.164 0,11.3243 -0.359,55.2066 14.446,55.2066 z m 0,19.844 c -35.371,0 -37.246,-50.9178 -37.246,-75.0506 0,-24.1015 1.875,-75.027306 37.246,-75.027306 34.726,0 37.238,43.886706 37.238,75.027306 0,31.1716 -2.512,75.0506 -37.238,75.0506"
             id="path36"
             style="fill:#043b60;fill-opacity:1;fill-rule:evenodd;stroke:none"
             inkscape:connector-curvature="0" /><path
             d="m 634.688,128.52 -16.922,0 0,-125.29734 -23.223,0 0,125.29734 -17.758,0 -0.008,19.097 57.911,0 0,-19.097"
             id="path38"
             style="fill:#043b60;fill-opacity:1;fill-rule:evenodd;stroke:none"
             inkscape:connector-curvature="0" /></g></g></g></g></svg>