<?xml version="1.0" encoding="UTF-8" standalone="no"?>
<!-- Created with Inkscape (http://www.inkscape.org/) -->

<svg
   xmlns:dc="http://purl.org/dc/elements/1.1/"
   xmlns:cc="http://creativecommons.org/ns#"
   xmlns:rdf="http://www.w3.org/1999/02/22-rdf-syntax-ns#"
   xmlns:svg="http://www.w3.org/2000/svg"
   xmlns="http://www.w3.org/2000/svg"
   xmlns:sodipodi="http://sodipodi.sourceforge.net/DTD/sodipodi-0.dtd"
   xmlns:inkscape="http://www.inkscape.org/namespaces/inkscape"
   version="1.1"
   width="194.675"
   height="86.800003"
   id="svg2"
   xml:space="preserve"
   inkscape:version="0.48.4 r9939"
   sodipodi:docname="tlabs.svg"
   inkscape:export-filename="tlabs.png"
   inkscape:export-xdpi="473.39001"
   inkscape:export-ydpi="473.39001"><sodipodi:namedview
     pagecolor="#ffffff"
     bordercolor="#666666"
     borderopacity="1"
     objecttolerance="10"
     gridtolerance="10"
     guidetolerance="10"
     inkscape:pageopacity="0"
     inkscape:pageshadow="2"
     inkscape:window-width="1438"
     inkscape:window-height="879"
     id="namedview3170"
     showgrid="false"
     inkscape:zoom="4.3765249"
     inkscape:cx="94.284815"
     inkscape:cy="70.963404"
     inkscape:window-x="0"
     inkscape:window-y="19"
     inkscape:window-maximized="0"
     inkscape:current-layer="svg2" /><metadata
     id="metadata8"><rdf:RDF><cc:Work
         rdf:about=""><dc:format>image/svg+xml</dc:format><dc:type
           rdf:resource="http://purl.org/dc/dcmitype/StillImage" /><dc:title></dc:title></cc:Work></rdf:RDF></metadata><defs
     id="defs6" /><path
     style="fill:#ec008c;fill-opacity:1;fill-rule:nonzero;stroke:none"
     d="M 0 0 L 0 23.03125 L 194.6875 23.03125 L 194.6875 0 L 0 0 z M 6.5 6.53125 L 13.28125 6.53125 L 13.28125 7.59375 L 10.5 7.59375 L 10.5 16.53125 L 9.28125 16.53125 L 9.28125 7.59375 L 6.5 7.59375 L 6.5 6.53125 z M 20.4375 6.53125 L 21.5625 6.53125 L 21.5625 16.53125 L 20.4375 16.53125 L 20.4375 6.53125 z M 30.5 6.53125 L 31.625 6.53125 L 31.625 12.40625 L 34.28125 9.625 L 35.6875 9.625 L 33.1875 12.1875 L 35.84375 16.53125 L 34.53125 16.53125 L 32.375 13.03125 L 31.625 13.8125 L 31.625 16.53125 L 30.5 16.53125 L 30.5 6.53125 z M 57.3125 6.53125 L 58.53125 6.53125 L 58.53125 16.53125 L 57.3125 16.53125 L 57.3125 6.53125 z M 98.0625 6.53125 L 99.1875 6.53125 L 99.1875 8.0625 L 98.0625 8.0625 L 98.0625 6.53125 z M 118.34375 6.53125 L 119.5625 6.53125 L 119.5625 15.46875 L 123.90625 15.46875 L 123.90625 16.53125 L 118.34375 16.53125 L 118.34375 6.53125 z M 132.0625 6.53125 L 133.1875 6.53125 L 133.1875 10.4375 C 133.65625 9.763625 134.29875 9.4375 135.125 9.4375 C 135.95 9.4375 136.6175 9.756875 137.125 10.40625 C 137.6425 11.0605 137.90625 11.94925 137.90625 13.0625 C 137.90625 14.21975 137.64125 15.13375 137.09375 15.8125 C 136.58625 16.442375 135.9025 16.75 135.0625 16.75 C 134.1975 16.75 133.52875 16.38575 133.09375 15.6875 L 133.09375 16.53125 L 132.0625 16.53125 L 132.0625 6.53125 z M 173 6.53125 L 174.125 6.53125 L 174.125 8.0625 L 173 8.0625 L 173 6.53125 z M 95.28125 7.375 L 95.5 7.375 L 95.5 9.625 L 96.6875 9.625 L 96.6875 10.5625 L 95.5 10.5625 L 95.5 14.65625 C 95.5 15.09575 95.50888 15.36125 95.5625 15.46875 C 95.665125 15.668875 95.88225 15.78125 96.15625 15.78125 C 96.297875 15.78125 96.47275 15.72463 96.6875 15.65625 L 96.6875 16.59375 C 96.389625 16.66212 96.126 16.6875 95.90625 16.6875 C 95.24275 16.6875 94.787125 16.5225 94.5625 16.15625 C 94.47025 15.995125 94.42575 15.7285 94.40625 15.40625 C 94.391 15.19625 94.375 14.890625 94.375 14.5 L 94.375 10.5625 L 93.375 10.5625 L 93.375 9.625 L 94.375 9.625 L 94.375 8.59375 L 95.28125 7.375 z M 158.84375 7.375 L 159.0625 7.375 L 159.0625 9.625 L 160.25 9.625 L 160.25 10.5625 L 159.0625 10.5625 L 159.0625 14.65625 C 159.0625 15.09575 159.0713 15.36125 159.125 15.46875 C 159.2275 15.668875 159.445 15.78125 159.71875 15.78125 C 159.86 15.78125 160.03625 15.72463 160.25 15.65625 L 160.25 16.59375 C 159.9525 16.66212 159.68875 16.6875 159.46875 16.6875 C 158.805 16.6875 158.35 16.5225 158.125 16.15625 C 158.0325 15.995125 157.98875 15.7285 157.96875 15.40625 C 157.95375 15.19625 157.9375 14.890625 157.9375 14.5 L 157.9375 10.5625 L 156.9375 10.5625 L 156.9375 9.625 L 157.9375 9.625 L 157.9375 8.59375 L 158.84375 7.375 z M 16 9.4375 C 16.72275 9.4375 17.334 9.6445 17.8125 10.09375 C 18.330125 10.586875 18.63775 11.3095 18.75 12.28125 C 18.78413 12.56925 18.80275 12.940375 18.8125 13.375 L 14.28125 13.375 C 14.29095 13.833875 14.34662 14.24225 14.46875 14.59375 C 14.761625 15.42875 15.286125 15.84375 16.0625 15.84375 C 16.672875 15.84375 17.137625 15.585 17.40625 15.0625 C 17.50388 14.872125 17.57325 14.641625 17.65625 14.34375 L 18.75 14.34375 C 18.642625 14.90525 18.456 15.3525 18.1875 15.71875 C 17.689375 16.40225 16.997125 16.75 16.09375 16.75 C 15.09775 16.75 14.320375 16.3555 13.8125 15.59375 C 13.353625 14.915 13.125 14.078125 13.125 13.0625 C 13.125 12.007875 13.383875 11.13075 13.90625 10.4375 C 14.423875 9.75875 15.126 9.4375 16 9.4375 z M 26.0625 9.4375 C 26.78525 9.4375 27.396 9.6445 27.875 10.09375 C 28.392 10.586875 28.70075 11.3095 28.8125 12.28125 C 28.84725 12.56925 28.86475 12.940375 28.875 13.375 L 24.34375 13.375 C 24.35355 13.833875 24.40862 14.24225 24.53125 14.59375 C 24.82425 15.42875 25.379875 15.84375 26.15625 15.84375 C 26.766625 15.84375 27.199625 15.585 27.46875 15.0625 C 27.56638 14.872125 27.63575 14.641625 27.71875 14.34375 L 28.8125 14.34375 C 28.7045 14.90525 28.518 15.3525 28.25 15.71875 C 27.7515 16.40225 27.0595 16.75 26.15625 16.75 C 25.160625 16.75 24.4135 16.3555 23.90625 15.59375 C 23.44725 14.915 23.21875 14.078125 23.21875 13.0625 C 23.21875 12.007875 23.478125 11.13075 24 10.4375 C 24.518125 9.75875 25.188 9.4375 26.0625 9.4375 z M 39.28125 9.4375 C 40.194375 9.4375 40.92675 9.768625 41.46875 10.4375 C 41.996125 11.082125 42.25 11.94425 42.25 13.0625 C 42.25 14.3125 41.963875 15.27825 41.34375 15.9375 C 40.835875 16.4795 40.142625 16.75 39.3125 16.75 C 38.331125 16.75 37.589875 16.38575 37.0625 15.6875 C 36.54975 15.00875 36.28125 14.13475 36.28125 13.03125 C 36.28125 12.045 36.50975 11.212 36.96875 10.5625 C 37.515625 9.795875 38.290125 9.4375 39.28125 9.4375 z M 46.40625 9.4375 C 46.514021 9.421627 46.63525 9.4375 46.75 9.4375 C 47.609375 9.4375 48.1875 9.80075 48.5 10.5625 C 48.98825 9.80075 49.65525 9.4375 50.5 9.4375 C 50.959 9.4375 51.376375 9.537125 51.71875 9.78125 C 52.099125 10.0595 52.31775 10.472625 52.40625 11 C 52.44038 11.190375 52.46875 11.459 52.46875 11.78125 L 52.46875 16.53125 L 51.34375 16.53125 L 51.34375 12.1875 C 51.34375 11.626 51.31788 11.24125 51.25 11.03125 C 51.09375 10.5625 50.724625 10.3125 50.1875 10.3125 C 49.528875 10.3125 49.0825 10.671875 48.84375 11.375 C 48.755875 11.628875 48.71875 12.13275 48.71875 12.875 L 48.71875 16.53125 L 47.59375 16.53125 L 47.59375 12.09375 C 47.59375 11.4345 47.5215 10.989375 47.375 10.75 C 47.19375 10.466875 46.917 10.3125 46.53125 10.3125 C 46.140625 10.3125 45.81 10.483375 45.53125 10.78125 C 45.253375 11.069375 45.08975 11.465875 45.03125 11.96875 C 45.00188 12.208125 44.96875 12.499 44.96875 12.875 L 44.96875 16.53125 L 43.84375 16.53125 L 43.84375 9.625 L 44.90625 9.625 L 44.90625 10.5 C 45.126 10.1875 45.326125 9.96875 45.53125 9.8125 C 45.790844 9.6220937 46.082936 9.4851191 46.40625 9.4375 z M 63.6875 9.4375 C 64.200125 9.4375 64.643625 9.570375 65 9.84375 C 65.371125 10.127 65.599625 10.525375 65.6875 11.0625 C 65.72662 11.28225 65.75 11.608375 65.75 12.0625 L 65.75 16.53125 L 64.625 16.53125 L 64.625 12.46875 C 64.625 11.84375 64.573245 11.393625 64.5 11.125 C 64.43162 10.880875 64.294 10.67775 64.09375 10.53125 C 63.893625 10.38475 63.658125 10.3125 63.375 10.3125 C 62.872 10.3125 62.49025 10.53225 62.1875 10.9375 C 61.982375 11.206125 61.83975 11.560625 61.78125 12 C 61.74213 12.2735 61.71875 12.665125 61.71875 13.1875 L 61.71875 16.53125 L 60.59375 16.53125 L 60.59375 9.625 L 61.65625 9.625 L 61.65625 10.5625 C 62.164 9.80075 62.833 9.4375 63.6875 9.4375 z M 70.78125 9.4375 C 71.2935 9.4375 71.73725 9.570375 72.09375 9.84375 C 72.46425 10.127 72.693375 10.525375 72.78125 11.0625 C 72.82088 11.28225 72.84375 11.608375 72.84375 12.0625 L 72.84375 16.53125 L 71.71875 16.53125 L 71.71875 12.46875 C 71.71875 11.84375 71.698245 11.393625 71.625 11.125 C 71.55712 10.880875 71.418375 10.67775 71.21875 10.53125 C 71.018 10.38475 70.78325 10.3125 70.5 10.3125 C 69.997 10.3125 69.584 10.53225 69.28125 10.9375 C 69.075625 11.206125 68.933625 11.560625 68.875 12 C 68.83537 12.2735 68.8125 12.665125 68.8125 13.1875 L 68.8125 16.53125 L 67.6875 16.53125 L 67.6875 9.625 L 68.75 9.625 L 68.75 10.5625 C 69.258375 9.80075 69.92675 9.4375 70.78125 9.4375 z M 77.375 9.4375 C 78.288 9.4375 79.0205 9.768625 79.5625 10.4375 C 80.08975 11.082125 80.34375 11.94425 80.34375 13.0625 C 80.34375 14.3125 80.057625 15.27825 79.4375 15.9375 C 78.92975 16.4795 78.23625 16.75 77.40625 16.75 C 76.42475 16.75 75.683625 16.38575 75.15625 15.6875 C 74.643625 15.00875 74.375 14.13475 74.375 13.03125 C 74.375 12.045 74.6035 11.212 75.0625 10.5625 C 75.609375 9.795875 76.38375 9.4375 77.375 9.4375 z M 89.875 9.4375 C 90.382375 9.4375 90.818375 9.535125 91.21875 9.75 C 91.69775 10.00875 92.00725 10.377 92.125 10.875 C 92.1885 11.153375 92.21875 11.628875 92.21875 12.3125 L 92.21875 14.9375 C 92.22365 15.298875 92.22613 15.503875 92.25 15.5625 C 92.29937 15.665 92.383375 15.71875 92.5 15.71875 C 92.608 15.71875 92.74375 15.671875 92.875 15.59375 L 92.875 16.46875 C 92.655875 16.605375 92.405875 16.65625 92.15625 16.65625 C 91.854 16.65625 91.63525 16.587 91.46875 16.40625 C 91.30275 16.2305 91.21875 15.99025 91.21875 15.6875 L 91.21875 15.46875 C 90.667 16.3135 89.94825 16.75 89.09375 16.75 C 88.5615 16.75 88.121125 16.59375 87.75 16.28125 C 87.301375 15.90525 87.0625 15.3945 87.0625 14.75 C 87.0625 14.037125 87.333 13.494125 87.875 13.09375 C 88.28025 12.791 88.873625 12.578125 89.625 12.5 C 89.9625 12.46588 90.45175 12.45712 91.125 12.4375 L 91.125 11.78125 C 91.125 10.8145 90.685125 10.34375 89.78125 10.34375 C 89.249625 10.34375 88.859375 10.503875 88.625 10.875 C 88.5035 11.075125 88.441 11.36925 88.40625 11.75 L 87.3125 11.75 C 87.346125 11.02737 87.55375 10.462875 87.96875 10.0625 C 88.413125 9.627875 89.0645 9.4375 89.875 9.4375 z M 103.8125 9.4375 C 104.7255 9.4375 105.42675 9.768625 105.96875 10.4375 C 106.496 11.082125 106.78125 11.94425 106.78125 13.0625 C 106.78125 14.3125 106.46387 15.27825 105.84375 15.9375 C 105.336 16.4795 104.67375 16.75 103.84375 16.75 C 102.86225 16.75 102.08988 16.38575 101.5625 15.6875 C 101.04987 15.00875 100.8125 14.13475 100.8125 13.03125 C 100.8125 12.045 101.041 11.212 101.5 10.5625 C 102.04687 9.795875 102.82126 9.4375 103.8125 9.4375 z M 111.46875 9.4375 C 111.981 9.4375 112.393 9.570375 112.75 9.84375 C 113.1205 10.127 113.34962 10.525375 113.4375 11.0625 C 113.4771 11.28225 113.5 11.608375 113.5 12.0625 L 113.5 16.53125 L 112.375 16.53125 L 112.375 12.46875 C 112.375 11.84375 112.35453 11.393625 112.28125 11.125 C 112.21345 10.880875 112.07463 10.67775 111.875 10.53125 C 111.67425 10.38475 111.4395 10.3125 111.15625 10.3125 C 110.65337 10.3125 110.24025 10.53225 109.9375 10.9375 C 109.73187 11.206125 109.62112 11.560625 109.5625 12 C 109.5229 12.2735 109.5 12.665125 109.5 13.1875 L 109.5 16.53125 L 108.375 16.53125 L 108.375 9.625 L 109.40625 9.625 L 109.40625 10.5625 C 109.91463 9.80075 110.61425 9.4375 111.46875 9.4375 z M 127.65625 9.4375 C 128.16375 9.4375 128.63 9.535125 129.03125 9.75 C 129.51 10.00875 129.78875 10.377 129.90625 10.875 C 129.96875 11.153375 130 11.628875 130 12.3125 L 130 14.9375 C 130.005 15.298875 130.0375 15.503875 130.0625 15.5625 C 130.1112 15.665 130.195 15.71875 130.3125 15.71875 C 130.42 15.71875 130.525 15.671875 130.65625 15.59375 L 130.65625 16.46875 C 130.43625 16.605375 130.2175 16.65625 129.96875 16.65625 C 129.66625 16.65625 129.41625 16.587 129.25 16.40625 C 129.08375 16.2305 129 15.99025 129 15.6875 L 129 15.46875 C 128.44875 16.3135 127.76 16.75 126.90625 16.75 C 126.37375 16.75 125.90125 16.59375 125.53125 16.28125 C 125.08125 15.90525 124.875 15.3945 124.875 14.75 C 124.875 14.037125 125.145 13.494125 125.6875 13.09375 C 126.0925 12.791 126.65375 12.578125 127.40625 12.5 C 127.7425 12.46588 128.26375 12.45712 128.9375 12.4375 L 128.9375 11.78125 C 128.9375 10.8145 128.4975 10.34375 127.59375 10.34375 C 127.0625 10.34375 126.67125 10.503875 126.4375 10.875 C 126.315 11.075125 126.22125 11.36925 126.1875 11.75 L 125.09375 11.75 C 125.1275 11.02737 125.36625 10.462875 125.78125 10.0625 C 126.225 9.627875 126.845 9.4375 127.65625 9.4375 z M 142.09375 9.4375 C 143.0075 9.4375 143.70875 9.768625 144.25 10.4375 C 144.7775 11.082125 145.0625 11.94425 145.0625 13.0625 C 145.0625 14.3125 144.745 15.27825 144.125 15.9375 C 143.6175 16.4795 142.955 16.75 142.125 16.75 C 141.14375 16.75 140.37125 16.38575 139.84375 15.6875 C 139.33125 15.00875 139.09375 14.13475 139.09375 13.03125 C 139.09375 12.045 139.3225 11.212 139.78125 10.5625 C 140.32875 9.795875 141.1025 9.4375 142.09375 9.4375 z M 149.5625 9.4375 C 149.68434 9.4254412 149.80625 9.432625 149.9375 9.4375 L 149.9375 10.6875 C 149.76125 10.66788 149.6575 10.65625 149.59375 10.65625 C 149.06625 10.65625 148.635 10.877875 148.3125 11.3125 C 148.045 11.673875 147.87625 12.13475 147.8125 12.75 C 147.7837 13.077125 147.78125 13.5205 147.78125 14.0625 L 147.78125 16.53125 L 146.65625 16.53125 L 146.65625 9.625 L 147.6875 9.625 L 147.6875 10.9375 C 148.08125 10.023234 148.70961 9.5219119 149.5625 9.4375 z M 153.40625 9.4375 C 153.915 9.4375 154.38125 9.535125 154.78125 9.75 C 155.26 10.00875 155.57 10.377 155.6875 10.875 C 155.7512 11.153375 155.78125 11.628875 155.78125 12.3125 L 155.78125 14.9375 C 155.78625 15.298875 155.7888 15.503875 155.8125 15.5625 C 155.8613 15.665 155.945 15.71875 156.0625 15.71875 C 156.16875 15.71875 156.305 15.671875 156.4375 15.59375 L 156.4375 16.46875 C 156.2175 16.605375 155.9675 16.65625 155.71875 16.65625 C 155.41625 16.65625 155.19625 16.587 155.03125 16.40625 C 154.865 16.2305 154.78125 15.99025 154.78125 15.6875 L 154.78125 15.46875 C 154.23 16.3135 153.51125 16.75 152.65625 16.75 C 152.12375 16.75 151.68375 16.59375 151.3125 16.28125 C 150.86375 15.90525 150.625 15.3945 150.625 14.75 C 150.625 14.037125 150.89625 13.494125 151.4375 13.09375 C 151.8425 12.791 152.435 12.578125 153.1875 12.5 C 153.52375 12.46588 154.01375 12.45712 154.6875 12.4375 L 154.6875 11.78125 C 154.6875 10.8145 154.2475 10.34375 153.34375 10.34375 C 152.81125 10.34375 152.42125 10.503875 152.1875 10.875 C 152.065 11.075125 152.00375 11.36925 151.96875 11.75 L 150.875 11.75 C 150.91 11.027375 151.11625 10.462875 151.53125 10.0625 C 151.97625 9.627875 152.59625 9.4375 153.40625 9.4375 z M 164 9.4375 C 164.91375 9.4375 165.64625 9.768625 166.1875 10.4375 C 166.715 11.082125 166.96875 11.94425 166.96875 13.0625 C 166.96875 14.3125 166.65125 15.27825 166.03125 15.9375 C 165.52375 16.4795 164.86125 16.75 164.03125 16.75 C 163.04875 16.75 162.30875 16.38575 161.78125 15.6875 C 161.26875 15.00875 161 14.13475 161 13.03125 C 161 12.045 161.2275 11.212 161.6875 10.5625 C 162.23375 9.795875 163.00875 9.4375 164 9.4375 z M 171.46875 9.4375 C 171.59059 9.4254412 171.7125 9.432625 171.84375 9.4375 L 171.84375 10.6875 C 171.66875 10.66788 171.56375 10.65625 171.5 10.65625 C 170.9725 10.65625 170.54 10.877875 170.21875 11.3125 C 169.95 11.673875 169.7825 12.13475 169.71875 12.75 C 169.68995 13.077125 169.6875 13.5205 169.6875 14.0625 L 169.6875 16.53125 L 168.5625 16.53125 L 168.5625 9.625 L 169.625 9.625 L 169.625 10.9375 C 170.01875 10.023234 170.61586 9.5219119 171.46875 9.4375 z M 178.625 9.4375 C 179.3475 9.4375 179.95875 9.6445 180.4375 10.09375 C 180.955 10.586875 181.26375 11.3095 181.375 12.28125 C 181.41 12.56925 181.4276 12.940375 181.4375 13.375 L 176.90625 13.375 C 176.91625 13.833875 176.9712 14.24225 177.09375 14.59375 C 177.38625 15.42875 177.9425 15.84375 178.71875 15.84375 C 179.32875 15.84375 179.7625 15.585 180.03125 15.0625 C 180.12875 14.872125 180.19875 14.641625 180.28125 14.34375 L 181.375 14.34375 C 181.2675 14.90525 181.08125 15.3525 180.8125 15.71875 C 180.315 16.40225 179.62125 16.75 178.71875 16.75 C 177.7225 16.75 176.97625 16.3555 176.46875 15.59375 C 176.01 14.915 175.78125 14.078125 175.78125 13.0625 C 175.78125 12.007875 176.04 11.13075 176.5625 10.4375 C 177.08 9.75875 177.75125 9.4375 178.625 9.4375 z M 184.8125 9.4375 C 185.70625 9.4375 186.36875 9.73825 186.75 10.34375 C 186.935 10.63175 187.02375 10.971625 187.0625 11.40625 L 185.96875 11.40625 C 185.94875 11.1035 185.87 10.873 185.71875 10.6875 C 185.50875 10.4385 185.1925 10.3125 184.8125 10.3125 C 184.455 10.3125 184.18125 10.419875 184 10.625 C 183.84875 10.795875 183.78125 10.99125 183.78125 11.25 C 183.78125 11.528375 183.86625 11.7665 184.0625 11.9375 C 184.2575 12.1035 184.6625 12.290125 185.21875 12.5 C 185.95625 12.7735 186.46625 13.042 186.75 13.28125 C 187.18875 13.65225 187.40625 14.111375 187.40625 14.6875 C 187.40625 15.3125 187.18 15.833 186.75 16.21875 C 186.35 16.58 185.78 16.75 185.0625 16.75 C 183.9975 16.75 183.26375 16.42375 182.84375 15.75 C 182.625 15.40325 182.49375 15.013625 182.46875 14.59375 L 183.625 14.59375 C 183.655 15.414 184.1 15.8125 184.96875 15.8125 C 185.38875 15.8125 185.7275 15.709875 185.9375 15.5 C 186.11375 15.319375 186.1875 15.09575 186.1875 14.8125 C 186.1875 14.42675 185.99375 14.119125 185.59375 13.875 C 185.4425 13.78225 185.07625 13.599625 184.5 13.375 C 183.88 13.130875 183.44625 12.872 183.1875 12.59375 C 182.865 12.242125 182.6875 11.841875 182.6875 11.34375 C 182.6875 10.753 182.91875 10.2675 183.34375 9.90625 C 183.715 9.588875 184.1875 9.4375 184.8125 9.4375 z M 80.875 9.625 L 82.09375 9.625 L 83.75 15.1875 L 85.375 9.625 L 86.5 9.625 L 84.3125 16.53125 L 83.125 16.53125 L 80.875 9.625 z M 98.0625 9.625 L 99.1875 9.625 L 99.1875 16.53125 L 98.0625 16.53125 L 98.0625 9.625 z M 173 9.625 L 174.125 9.625 L 174.125 16.53125 L 173 16.53125 L 173 9.625 z M 16.03125 10.3125 C 15.42575 10.3125 14.959 10.59475 14.65625 11.15625 C 14.47075 11.503 14.34475 11.941375 14.28125 12.46875 L 17.6875 12.46875 C 17.65325 11.9755 17.55275 11.572375 17.40625 11.25 C 17.123 10.63 16.670875 10.3125 16.03125 10.3125 z M 26.09375 10.3125 C 25.48825 10.3125 25.0215 10.59475 24.71875 11.15625 C 24.53375 11.503 24.40725 11.941375 24.34375 12.46875 L 27.75 12.46875 C 27.71537 11.9755 27.61525 11.572375 27.46875 11.25 C 27.185 10.63 26.733375 10.3125 26.09375 10.3125 z M 39.28125 10.3125 C 38.73925 10.3125 38.295875 10.55075 37.96875 11 C 37.597625 11.522375 37.4375 12.1915 37.4375 13.03125 C 37.4375 13.92975 37.6075 14.638625 37.96875 15.15625 C 38.291 15.61025 38.74125 15.84375 39.3125 15.84375 C 39.820375 15.84375 40.233375 15.667 40.53125 15.28125 C 40.9365 14.749 41.125 14 41.125 13.0625 C 41.125 12.193375 40.950125 11.498 40.59375 11 C 40.266625 10.541 39.82325 10.3125 39.28125 10.3125 z M 77.375 10.3125 C 76.833 10.3125 76.420875 10.55075 76.09375 11 C 75.722625 11.522375 75.53125 12.1915 75.53125 13.03125 C 75.53125 13.92975 75.701125 14.638625 76.0625 15.15625 C 76.38475 15.61025 76.835 15.84375 77.40625 15.84375 C 77.914125 15.84375 78.32725 15.667 78.625 15.28125 C 79.030375 14.749 79.21875 14 79.21875 13.0625 C 79.21875 12.193375 79.044 11.498 78.6875 11 C 78.360375 10.541 77.917 10.3125 77.375 10.3125 z M 103.8125 10.3125 C 103.2705 10.3125 102.82712 10.55075 102.5 11 C 102.12887 11.522375 101.9375 12.1915 101.9375 13.03125 C 101.9375 13.92975 102.10738 14.638625 102.46875 15.15625 C 102.791 15.61025 103.24125 15.84375 103.8125 15.84375 C 104.32038 15.84375 104.7335 15.667 105.03125 15.28125 C 105.43663 14.749 105.625 14 105.625 13.0625 C 105.625 12.193375 105.45025 11.498 105.09375 11 C 104.76663 10.541 104.3545 10.3125 103.8125 10.3125 z M 134.96875 10.3125 C 134.4375 10.3125 134.01 10.55075 133.6875 11 C 133.32625 11.498 133.15625 12.193375 133.15625 13.0625 C 133.15625 13.92675 133.3075 14.595625 133.625 15.09375 C 133.9475 15.596625 134.39375 15.84375 134.96875 15.84375 C 135.51625 15.84375 135.96875 15.591875 136.28125 15.09375 C 136.6175 14.55175 136.78125 13.873 136.78125 13.0625 C 136.78125 12.212875 136.59125 11.544 136.25 11.03125 C 135.9375 10.5625 135.51125 10.3125 134.96875 10.3125 z M 142.09375 10.3125 C 141.55125 10.3125 141.10875 10.55075 140.78125 11 C 140.41 11.522375 140.21875 12.1915 140.21875 13.03125 C 140.21875 13.92975 140.38875 14.638625 140.75 15.15625 C 141.0725 15.61025 141.5225 15.84375 142.09375 15.84375 C 142.60125 15.84375 143.015 15.667 143.3125 15.28125 C 143.71875 14.749 143.90625 14 143.90625 13.0625 C 143.90625 12.193375 143.73125 11.498 143.375 11 C 143.0475 10.541 142.63625 10.3125 142.09375 10.3125 z M 164 10.3125 C 163.45875 10.3125 163.015 10.55075 162.6875 11 C 162.31625 11.522375 162.125 12.1915 162.125 13.03125 C 162.125 13.92975 162.32625 14.638625 162.6875 15.15625 C 163.00875 15.61025 163.46 15.84375 164.03125 15.84375 C 164.53875 15.84375 164.92 15.667 165.21875 15.28125 C 165.62375 14.749 165.84375 14 165.84375 13.0625 C 165.84375 12.193375 165.66875 11.498 165.3125 11 C 164.98625 10.541 164.5425 10.3125 164 10.3125 z M 178.65625 10.3125 C 178.05125 10.3125 177.58375 10.59475 177.28125 11.15625 C 177.09625 11.503 176.97 11.941375 176.90625 12.46875 L 180.3125 12.46875 C 180.2788 11.9755 180.1775 11.572375 180.03125 11.25 C 179.74875 10.63 179.29625 10.3125 178.65625 10.3125 z M 91.125 13.1875 C 90.42675 13.21675 89.890625 13.25588 89.5 13.34375 C 89.085 13.4365 88.767625 13.59775 88.5625 13.8125 C 88.3135 14.0665 88.1875 14.367125 88.1875 14.71875 C 88.1875 15.03125 88.29 15.306625 88.5 15.53125 C 88.699625 15.74125 88.963875 15.84375 89.28125 15.84375 C 89.671875 15.84375 90.026375 15.711 90.34375 15.4375 C 90.6465 15.173875 90.8725 14.831 91 14.40625 C 91.09225 14.098625 91.125 13.82125 91.125 13.5625 L 91.125 13.1875 z M 128.9375 13.1875 C 128.24 13.21675 127.7025 13.25588 127.3125 13.34375 C 126.8975 13.4365 126.58 13.59775 126.375 13.8125 C 126.125 14.0665 126 14.367125 126 14.71875 C 126 15.03125 126.1025 15.306625 126.3125 15.53125 C 126.5125 15.74125 126.77625 15.84375 127.09375 15.84375 C 127.48375 15.84375 127.84 15.711 128.15625 15.4375 C 128.46 15.173875 128.68625 14.831 128.8125 14.40625 C 128.905 14.098625 128.9375 13.82125 128.9375 13.5625 L 128.9375 13.1875 z M 154.6875 13.1875 C 153.98875 13.21675 153.45375 13.25588 153.0625 13.34375 C 152.6475 13.4365 152.33 13.59775 152.125 13.8125 C 151.87625 14.0665 151.75 14.367125 151.75 14.71875 C 151.75 15.03125 151.8525 15.306625 152.0625 15.53125 C 152.2625 15.74125 152.52625 15.84375 152.84375 15.84375 C 153.235 15.84375 153.58875 15.711 153.90625 15.4375 C 154.20875 15.173875 154.435 14.831 154.5625 14.40625 C 154.655 14.098625 154.6875 13.82125 154.6875 13.5625 L 154.6875 13.1875 z "
     id="path14" /><path
     sodipodi:nodetypes="cc"
     d="m 194.68,86.8 c -129.786666,2e-6 -64.89334,10e-7 0,0 z"
     id="path16"
     style="fill:#ffffff;fill-opacity:1;fill-rule:nonzero;stroke:none"
     inkscape:connector-curvature="0" /><path
     d="m 6.484375,60.10075 6.484375,0 0,-6.484375 -6.484375,0 0,6.484375 z"
     id="path18"
     style="fill:#ec008c;fill-opacity:1;fill-rule:nonzero;stroke:none"
     inkscape:connector-curvature="0" /><path
     d="m 25.853,60.10075 6.484375,0 0,-6.484375 -6.484375,0 0,6.484375 z"
     id="path20"
     style="fill:#ec008c;fill-opacity:1;fill-rule:nonzero;stroke:none"
     inkscape:connector-curvature="0" /><path
     d="m 45.222125,60.10075 6.484375,0 0,-6.484375 -6.484375,0 0,6.484375 z"
     id="path22"
     style="fill:#ec008c;fill-opacity:1;fill-rule:nonzero;stroke:none"
     inkscape:connector-curvature="0" /><path
     d="m 64.59125,60.10075 6.484375,0 0,-6.484375 -6.484375,0 0,6.484375 z"
     id="path24"
     style="fill:#ec008c;fill-opacity:1;fill-rule:nonzero;stroke:none"
     inkscape:connector-curvature="0" /><path
     d="m 83.96,60.10075 6.484375,0 0,-6.484375 -6.484375,0 0,6.484375 z"
     id="path26"
     style="fill:#ec008c;fill-opacity:1;fill-rule:nonzero;stroke:none"
     inkscape:connector-curvature="0" /><path
     d="m 103.32913,60.10075 6.48437,0 0,-6.484375 -6.48437,0 0,6.484375 z"
     id="path28"
     style="fill:#ec008c;fill-opacity:1;fill-rule:nonzero;stroke:none"
     inkscape:connector-curvature="0" /><path
     d="m 122.69775,60.10075 6.48486,0 0,-6.484375 -6.48486,0 0,6.484375 z"
     id="path30"
     style="fill:#ec008c;fill-opacity:1;fill-rule:nonzero;stroke:none"
     inkscape:connector-curvature="0" /><path
     d="m 138.1425,64.02075 c 0,2.056625 0.3,3.392 0.9025,4.00725 0.5125,0.524875 1.3775,0.848625 2.59625,0.96825 0.3625,0.03025 0.97875,0.045 1.8525,0.045 l 0,1.80175 -15.625,0 0,-1.80175 c 1.255,0 2.18125,-0.05963 2.78,-0.18075 1.20875,-0.253875 1.9725,-0.959375 2.28625,-2.116625 0.16375,-0.599125 0.24625,-1.507375 0.24625,-2.723125 l 0,-23.559625 c -2.65,0.07575 -4.72375,0.953125 -6.22125,2.63525 -1.4225,1.608875 -2.28962,4.07225 -2.6045,7.391125 l -1.6895,-0.2915 0.315,-11.267125 25.40025,0 0.315,11.267125 -1.69,0.2915 c -0.31375,-3.318875 -1.1875,-5.78225 -2.615,-7.391125 -1.50375,-1.682125 -3.5875,-2.5595 -6.24875,-2.63525 l 0,23.559625"
     id="path32"
     style="fill:#ec008c;fill-opacity:1;fill-rule:nonzero;stroke:none"
     inkscape:connector-curvature="0" /><path
     d="m 142.27,60.10075 6.48486,0 0,-6.484375 -6.48486,0 0,6.484375 z"
     id="path34"
     style="fill:#ec008c;fill-opacity:1;fill-rule:nonzero;stroke:none"
     inkscape:connector-curvature="0" /><path
     d="m 161.66,60.10075 6.48486,0 0,-6.484375 -6.48486,0 0,6.484375 z"
     id="path36"
     style="fill:#ec008c;fill-opacity:1;fill-rule:nonzero;stroke:none"
     inkscape:connector-curvature="0" /><path
     d="m 181.03,60.10075 6.48535,0 0,-6.484375 -6.48535,0 0,6.484375 z"
     id="path38"
     style="fill:#ec008c;fill-opacity:1;fill-rule:nonzero;stroke:none"
     inkscape:connector-curvature="0" /><path
     d="m 9.271975,16.536875 0,-8.935625 -2.7832,0 0,-1.062 6.782225,0 0,1.062 -2.775887,0 0,8.935625 -1.223138,0"
     id="path40"
     style="fill:none;fill-opacity:1;fill-rule:nonzero;stroke:none"
     inkscape:connector-curvature="0" /><path
     d="M 17.67825,12.47925 C 17.644,11.986 17.55375,11.578375 17.40725,11.256 17.124,10.636 16.662625,10.325875 16.023,10.325875 c -0.6055,0 -1.059625,0.28075 -1.362375,0.84225 -0.1855,0.34675 -0.31,0.78375 -0.3735,1.311125 l 3.391125,0 z m 1.1425,0.900875 -4.54825,0 c 0.0097,0.458875 0.07562,0.86425 0.19775,1.21575 0.292875,0.835 0.827625,1.2525 1.604,1.2525 0.610375,0 1.04975,-0.26125 1.318375,-0.78375 0.09763,-0.190375 0.188,-0.4345 0.271,-0.732375 l 1.083875,0 c -0.107375,0.5615 -0.295375,1.025375 -0.563875,1.391625 -0.498125,0.6835 -1.19875,1.025375 -2.102125,1.025375 -0.996,0 -1.748,-0.380875 -2.255875,-1.142625 -0.458875,-0.67875 -0.688375,-1.525875 -0.688375,-2.5415 0,-1.054625 0.26125,-1.92875 0.783625,-2.622 C 14.4385,9.764375 15.13425,9.425 16.00825,9.425 c 0.72275,0 1.32325,0.224625 1.80175,0.673875 0.517625,0.493125 0.832625,1.2255 0.944875,2.19725 0.03413,0.288 0.05613,0.649375 0.06588,1.084"
     id="path42"
     style="fill:none;fill-opacity:1;fill-rule:nonzero;stroke:none"
     inkscape:connector-curvature="0" /><path
     d="m 20.452125,16.536875 1.120605,0 0,-9.9975625 -1.120605,0 0,9.9975625 z"
     id="path44"
     style="fill:none;fill-opacity:1;fill-rule:nonzero;stroke:none"
     inkscape:connector-curvature="0" /><path
     d="m 27.745625,12.47925 c -0.03463,-0.49325 -0.1245,-0.900875 -0.271,-1.22325 -0.28375,-0.62 -0.744625,-0.930125 -1.38425,-0.930125 -0.6055,0 -1.060125,0.28075 -1.362875,0.84225 -0.185,0.34675 -0.3095,0.78375 -0.373,1.311125 l 3.391125,0 z m 1.1425,0.900875 -4.54825,0 c 0.0098,0.458875 0.07512,0.86425 0.19775,1.21575 0.293,0.835 0.827625,1.2525 1.604,1.2525 0.610375,0 1.04925,-0.26125 1.318375,-0.78375 0.09763,-0.190375 0.188,-0.4345 0.271,-0.732375 l 1.084,0 c -0.108,0.5615 -0.296,1.025375 -0.564,1.391625 -0.4985,0.6835 -1.19925,1.025375 -2.1025,1.025375 -0.995625,0 -1.748125,-0.380875 -2.255375,-1.142625 -0.459,-0.67875 -0.6885,-1.525875 -0.6885,-2.5415 0,-1.054625 0.26125,-1.92875 0.783125,-2.622 C 24.505875,9.764375 25.201125,9.425 26.075625,9.425 c 0.72275,0 1.322875,0.224625 1.801875,0.673875 0.517,0.493125 0.8325,1.2255 0.94425,2.19725 0.03475,0.288 0.05612,0.649375 0.06637,1.084"
     id="path46"
     style="fill:none;fill-opacity:1;fill-rule:nonzero;stroke:none"
     inkscape:connector-curvature="0" /><path
     d="m 30.49025,16.536875 0,-9.997625 1.120625,0 0,5.86675 2.658625,-2.768625 1.42825,0 -2.51225,2.5635 2.673375,4.336 -1.318375,0 -2.160625,-3.508375 -0.769,0.78375 0,2.724625 -1.120625,0"
     id="path48"
     style="fill:none;fill-opacity:1;fill-rule:nonzero;stroke:none"
     inkscape:connector-curvature="0" /><path
     d="m 39.285125,10.325875 c -0.542,0 -0.9765,0.224625 -1.303625,0.673875 -0.371125,0.522375 -0.55675,1.203625 -0.55675,2.043375 0,0.8985 0.18075,1.6065 0.542,2.124125 0.32225,0.454 0.769125,0.681125 1.340375,0.681125 0.507875,0 0.910625,-0.192875 1.2085,-0.578625 0.40525,-0.53225 0.607875,-1.267125 0.607875,-2.204625 0,-0.869125 -0.17825,-1.55275 -0.534625,-2.05075 -0.327125,-0.459 -0.76175,-0.6885 -1.30375,-0.6885 z m 0,-0.900875 c 0.913125,0 1.640625,0.3345 2.182625,1.003375 0.527375,0.644625 0.791,1.525875 0.791,2.644125 0,1.25 -0.31,2.2045 -0.930125,2.86375 -0.507875,0.542 -1.17675,0.813 -2.006875,0.813 -0.981375,0 -1.73575,-0.349125 -2.263125,-1.047375 C 36.545875,15.023125 36.2895,14.132 36.2895,13.0285 c 0,-0.98625 0.2295,-1.804125 0.6885,-2.453625 C 37.524875,9.80825 38.294,9.425 39.285125,9.425"
     id="path50"
     style="fill:none;fill-opacity:1;fill-rule:nonzero;stroke:none"
     inkscape:connector-curvature="0" /><path
     d="m 43.8535,16.536875 0,-6.8995 1.047875,0 0,0.871625 C 45.121125,10.1965 45.3335,9.962125 45.538625,9.805875 45.88475,9.552 46.288125,9.425 46.747125,9.425 c 0.859375,0 1.44475,0.380875 1.75725,1.142625 0.48825,-0.76175 1.15475,-1.142625 1.9995,-1.142625 0.459,0 0.859375,0.122125 1.20175,0.36625 0.380375,0.27825 0.614625,0.681125 0.703125,1.2085 0.03413,0.190375 0.05125,0.44675 0.05125,0.769 l 0,4.768125 -1.120625,0 0,-4.350625 c 0,-0.5615 -0.03462,-0.94725 -0.1025,-1.15725 -0.15625,-0.46875 -0.5035,-0.703125 -1.040625,-0.703125 -0.658625,0 -1.108375,0.351625 -1.347125,1.05475 C 48.76125,11.6345 48.71675,12.1325 48.71675,12.87475 l 0,3.662125 -1.1205,0 0,-4.4385 c 0,-0.65925 -0.07275,-1.108375 -0.21925,-1.34775 -0.18125,-0.283125 -0.463875,-0.42475 -0.849625,-0.42475 -0.390625,0 -0.725125,0.148875 -1.003875,0.44675 -0.277875,0.288125 -0.446875,0.683625 -0.505375,1.1865 -0.02937,0.239375 -0.0435,0.546875 -0.0435,0.922875 l 0,3.654875 -1.121125,0"
     id="path52"
     style="fill:none;fill-opacity:1;fill-rule:nonzero;stroke:none"
     inkscape:connector-curvature="0" /><path
     d="m 57.297375,16.536875 1.223145,0 0,-9.9975625 -1.223145,0 0,9.9975625 z"
     id="path54"
     style="fill:none;fill-opacity:1;fill-rule:nonzero;stroke:none"
     inkscape:connector-curvature="0" /><path
     d="m 60.598625,16.536875 0,-6.8995 1.047375,0 0,0.93025 C 62.15375,9.805875 62.835,9.425 63.6895,9.425 c 0.512625,0 0.94725,0.13675 1.303625,0.410125 0.371125,0.28325 0.600625,0.693375 0.6885,1.2305 0.03912,0.21975 0.05863,0.556625 0.05863,1.01075 l 0,4.4605 -1.120625,0 0,-4.065 c 0,-0.625 -0.03663,-1.07175 -0.109875,-1.340375 -0.06838,-0.244125 -0.202625,-0.439375 -0.402875,-0.585875 -0.200125,-0.1465 -0.441875,-0.21975 -0.725,-0.21975 -0.503,0 -0.90575,0.202625 -1.2085,0.607875 -0.205125,0.268625 -0.337,0.622625 -0.3955,1.062 -0.03912,0.2735 -0.05862,0.6715 -0.05862,1.193875 l 0,3.34725 -1.120625,0"
     id="path56"
     style="fill:none;fill-opacity:1;fill-rule:nonzero;stroke:none"
     inkscape:connector-curvature="0" /><path
     d="m 67.701125,16.536875 0,-6.8995 1.047375,0 0,0.93025 C 69.256875,9.805875 69.938,9.425 70.7925,9.425 c 0.51225,0 0.94725,0.13675 1.30375,0.410125 0.3705,0.28325 0.6,0.693375 0.687875,1.2305 0.03963,0.21975 0.05862,0.556625 0.05862,1.01075 l 0,4.4605 -1.120625,0 0,-4.065 c 0,-0.625 -0.03663,-1.07175 -0.109875,-1.340375 -0.06788,-0.244125 -0.202625,-0.439375 -0.40225,-0.585875 -0.20075,-0.1465 -0.441875,-0.21975 -0.725125,-0.21975 -0.503,0 -0.90575,0.202625 -1.2085,0.607875 -0.205625,0.268625 -0.336875,0.622625 -0.3955,1.062 -0.03963,0.2735 -0.05913,0.6715 -0.05913,1.193875 l 0,3.34725 -1.120625,0"
     id="path58"
     style="fill:none;fill-opacity:1;fill-rule:nonzero;stroke:none"
     inkscape:connector-curvature="0" /><path
     d="m 77.382375,10.325875 c -0.542,0 -0.976625,0.224625 -1.30375,0.673875 C 75.7075,11.522125 75.522,12.203375 75.522,13.043125 c 0,0.8985 0.180625,1.6065 0.542,2.124125 0.32225,0.454 0.769,0.681125 1.34025,0.681125 0.507875,0 0.91075,-0.192875 1.2085,-0.578625 0.405375,-0.53225 0.608,-1.267125 0.608,-2.204625 0,-0.869125 -0.17825,-1.55275 -0.53475,-2.05075 -0.327125,-0.459 -0.761625,-0.6885 -1.303625,-0.6885 z m 0,-0.900875 c 0.913,0 1.640625,0.3345 2.182625,1.003375 0.52725,0.644625 0.791,1.525875 0.791,2.644125 0,1.25 -0.310125,2.2045 -0.93025,2.86375 -0.50775,0.542 -1.17675,0.813 -2.00675,0.813 -0.9815,0 -1.735875,-0.349125 -2.26325,-1.047375 -0.512625,-0.67875 -0.769,-1.569875 -0.769,-2.673375 0,-0.98625 0.2295,-1.804125 0.6885,-2.453625 C 75.622125,9.80825 76.391125,9.425 77.382375,9.425"
     id="path60"
     style="fill:none;fill-opacity:1;fill-rule:nonzero;stroke:none"
     inkscape:connector-curvature="0" /><path
     d="m 83.129875,16.536875 -2.2485,-6.8995 1.21575,0 1.655375,5.55175 1.61125,-5.55175 1.142625,0 -2.19725,6.8995 -1.17925,0"
     id="path62"
     style="fill:none;fill-opacity:1;fill-rule:nonzero;stroke:none"
     inkscape:connector-curvature="0" /><path
     d="m 91.13375,13.182375 c -0.69825,0.02925 -1.242125,0.08788 -1.63275,0.17575 -0.415,0.09275 -0.725625,0.246625 -0.93075,0.461375 -0.249,0.254 -0.3735,0.556625 -0.3735,0.90825 0,0.3125 0.1055,0.581 0.3155,0.805625 0.199625,0.21 0.459,0.315 0.776375,0.315 0.390625,0 0.744625,-0.13675 1.062,-0.41025 0.30275,-0.263625 0.517,-0.607875 0.6445,-1.032625 0.09225,-0.307625 0.138625,-0.590875 0.138625,-0.849625 l 0,-0.3735 z m 1.7285,2.417 0,0.86425 c -0.219125,0.136625 -0.4535,0.205 -0.703125,0.205 -0.30225,0 -0.536625,-0.09025 -0.703125,-0.271 -0.166,-0.17575 -0.249,-0.415 -0.249,-0.71775 l 0,-0.19775 c -0.55175,0.84475 -1.254875,1.267125 -2.109375,1.267125 -0.53225,0 -0.983875,-0.15625 -1.355,-0.46875 -0.448625,-0.376 -0.67325,-0.88625 -0.67325,-1.53075 0,-0.712875 0.271,-1.269625 0.813,-1.67 0.40525,-0.30275 0.983875,-0.493125 1.73525,-0.57125 0.3375,-0.03412 0.842875,-0.061 1.516125,-0.08062 l 0,-0.6445 c 0,-0.96675 -0.451125,-1.450125 -1.355,-1.450125 -0.531625,0 -0.9155,0.1855 -1.149875,0.556625 -0.1215,0.200125 -0.199625,0.49075 -0.234375,0.8715 l -1.09075,0 C 87.337375,11.03875 87.562,10.47725 87.977,10.076875 88.421375,9.64225 89.049375,9.425 89.859875,9.425 c 0.507375,0 0.961375,0.107375 1.36175,0.32225 0.479,0.25875 0.776375,0.63725 0.894125,1.13525 0.0635,0.278375 0.09525,0.75925 0.09525,1.442875 l 0,2.607375 c 0.0049,0.361375 0.0195,0.571375 0.04337,0.63 0.04937,0.1025 0.132375,0.15375 0.249,0.15375 0.108,0 0.227625,-0.039 0.358875,-0.117125"
     id="path64"
     style="fill:none;fill-opacity:1;fill-rule:nonzero;stroke:none"
     inkscape:connector-curvature="0" /><path
     d="m 93.380375,10.567625 0,-0.93025 0.996125,0 0,-1.032625 0.9155,-1.215875 0.205125,0 0,2.2485 1.178625,0 0,0.93025 -1.178625,0 0,4.0795 c 0,0.4395 0.02638,0.712875 0.08,0.820375 0.102625,0.200125 0.2905,0.30025 0.5645,0.30025 0.141625,0 0.319375,-0.03412 0.534125,-0.1025 l 0,0.922875 c -0.297875,0.06837 -0.556625,0.1025 -0.776375,0.1025 -0.6635,0 -1.108375,-0.183125 -1.333,-0.549375 -0.09225,-0.161125 -0.148375,-0.40275 -0.167875,-0.725 -0.01525,-0.21 -0.022,-0.51025 -0.022,-0.900875 l 0,-3.94775 -0.996125,0"
     id="path66"
     style="fill:none;fill-opacity:1;fill-rule:nonzero;stroke:none"
     inkscape:connector-curvature="0" /><path
     d="m 98.05175,16.536875 0,-6.8995 1.120625,0 0,6.8995 -1.120625,0 z m 0,-8.474125 0,-1.5235 1.120625,0 0,1.5235 -1.120625,0"
     id="path68"
     style="fill:none;fill-opacity:1;fill-rule:nonzero;stroke:none"
     inkscape:connector-curvature="0" /><path
     d="m 103.79887,10.325875 c -0.542,0 -0.97662,0.224625 -1.30374,0.673875 -0.37113,0.522375 -0.55663,1.203625 -0.55663,2.043375 0,0.8985 0.18063,1.6065 0.542,2.124125 0.32225,0.454 0.769,0.681125 1.34025,0.681125 0.50788,0 0.91075,-0.192875 1.2085,-0.578625 0.40538,-0.53225 0.608,-1.267125 0.608,-2.204625 0,-0.869125 -0.17825,-1.55275 -0.53475,-2.05075 -0.32712,-0.459 -0.76162,-0.6885 -1.30362,-0.6885 z m 0,-0.900875 c 0.913,0 1.64063,0.3345 2.18263,1.003375 0.52725,0.644625 0.791,1.525875 0.791,2.644125 0,1.25 -0.31013,2.2045 -0.93025,2.86375 -0.50775,0.542 -1.17675,0.813 -2.00675,0.813 -0.9815,0 -1.73587,-0.349125 -2.26325,-1.047375 -0.51263,-0.67875 -0.769,-1.569875 -0.769,-2.673375 0,-0.98625 0.2295,-1.804125 0.6885,-2.453625 C 102.03862,9.80825 102.80763,9.425 103.79887,9.425"
     id="path70"
     style="fill:none;fill-opacity:1;fill-rule:nonzero;stroke:none"
     inkscape:connector-curvature="0" /><path
     d="m 108.36763,16.536875 0,-6.8995 1.04737,0 0,0.93025 c 0.50838,-0.76175 1.1895,-1.142625 2.044,-1.142625 0.51225,0 0.94675,0.13675 1.30375,0.410125 0.3705,0.28325 0.6,0.693375 0.68788,1.2305 0.0396,0.21975 0.0586,0.556625 0.0586,1.01075 l 0,4.4605 -1.12062,0 0,-4.065 c 0,-0.625 -0.0366,-1.07175 -0.10988,-1.340375 -0.0678,-0.244125 -0.20262,-0.439375 -0.40225,-0.585875 -0.20075,-0.1465 -0.44187,-0.21975 -0.72512,-0.21975 -0.50288,0 -0.90575,0.202625 -1.2085,0.607875 -0.20563,0.268625 -0.33688,0.622625 -0.3955,1.062 -0.0396,0.2735 -0.0591,0.6715 -0.0591,1.193875 l 0,3.34725 -1.12062,0"
     id="path72"
     style="fill:none;fill-opacity:1;fill-rule:nonzero;stroke:none"
     inkscape:connector-curvature="0" /><path
     d="m 118.33988,16.536875 0,-9.997625 1.22312,0 0,8.9355 4.35062,0 0,1.062125 -5.57375,0"
     id="path74"
     style="fill:none;fill-opacity:1;fill-rule:nonzero;stroke:none"
     inkscape:connector-curvature="0" /><path
     d="m 128.93625,13.182375 c -0.6975,0.02925 -1.2425,0.08788 -1.6325,0.17575 -0.415,0.09275 -0.725,0.246625 -0.93,0.461375 -0.25,0.254 -0.37375,0.556625 -0.37375,0.90825 0,0.3125 0.105,0.581 0.315,0.805625 0.2,0.21 0.45875,0.315 0.77625,0.315 0.39,0 0.745,-0.13675 1.06125,-0.41025 0.30375,-0.263625 0.51875,-0.607875 0.645,-1.032625 0.0925,-0.307625 0.13875,-0.590875 0.13875,-0.849625 l 0,-0.3735 z m 1.72875,2.417 0,0.86425 c -0.22,0.136625 -0.45375,0.205 -0.7025,0.205 -0.3025,0 -0.5375,-0.09025 -0.70375,-0.271 -0.16625,-0.17575 -0.24875,-0.415 -0.24875,-0.71775 l 0,-0.19775 c -0.55125,0.84475 -1.255,1.267125 -2.10875,1.267125 -0.5325,0 -0.985,-0.15625 -1.355,-0.46875 -0.45,-0.376 -0.67413,-0.88625 -0.67413,-1.53075 0,-0.712875 0.27038,-1.269625 0.81288,-1.67 0.405,-0.30275 0.98375,-0.493125 1.73625,-0.57125 0.33625,-0.03412 0.84125,-0.061 1.515,-0.08062 l 0,-0.6445 c 0,-0.96675 -0.45125,-1.450125 -1.355,-1.450125 -0.53125,0 -0.915,0.1855 -1.14875,0.556625 -0.1225,0.200125 -0.20125,0.49075 -0.235,0.8715 l -1.09125,0 C 125.14,11.03875 125.365,10.47725 125.78,10.076875 126.22375,9.64225 126.85125,9.425 127.6625,9.425 c 0.5075,0 0.96125,0.107375 1.3625,0.32225 0.47875,0.25875 0.77625,0.63725 0.89375,1.13525 0.0625,0.278375 0.095,0.75925 0.095,1.442875 l 0,2.607375 c 0.005,0.361375 0.0188,0.571375 0.0438,0.63 0.0487,0.1025 0.13125,0.15375 0.24875,0.15375 0.1075,0 0.2275,-0.039 0.35875,-0.117125"
     id="path76"
     style="fill:none;fill-opacity:1;fill-rule:nonzero;stroke:none"
     inkscape:connector-curvature="0" /><path
     d="m 134.97625,10.325875 c -0.53125,0 -0.95875,0.224625 -1.28125,0.673875 -0.36125,0.498 -0.5425,1.181625 -0.5425,2.05075 0,0.86425 0.15875,1.545375 0.47625,2.0435 0.3225,0.502875 0.7725,0.754375 1.3475,0.754375 0.5475,0 0.9775,-0.249 1.29,-0.747125 0.33625,-0.542 0.505,-1.21825 0.505,-2.02875 0,-0.849625 -0.17125,-1.53075 -0.5125,-2.0435 -0.3125,-0.46875 -0.74,-0.703125 -1.2825,-0.703125 z m -2.915,6.211 0,-9.997625 1.12125,0 0,3.8965 c 0.46875,-0.673875 1.115,-1.01075 1.94125,-1.01075 0.825,0 1.49125,0.32475 1.99875,0.974125 0.5175,0.65425 0.77625,1.538125 0.77625,2.651375 0,1.15725 -0.2725,2.075125 -0.82,2.753875 -0.5075,0.629875 -1.18125,0.944875 -2.02125,0.944875 -0.865,0 -1.51375,-0.349125 -1.94875,-1.047375 l 0,0.835 -1.0475,0"
     id="path78"
     style="fill:none;fill-opacity:1;fill-rule:nonzero;stroke:none"
     inkscape:connector-curvature="0" /><path
     d="m 142.08,10.325875 c -0.5425,0 -0.97625,0.224625 -1.30375,0.673875 -0.37125,0.522375 -0.55625,1.203625 -0.55625,2.043375 0,0.8985 0.18,1.6065 0.54125,2.124125 0.3225,0.454 0.77,0.681125 1.34125,0.681125 0.5075,0 0.91,-0.192875 1.2075,-0.578625 0.40625,-0.53225 0.60875,-1.267125 0.60875,-2.204625 0,-0.869125 -0.17875,-1.55275 -0.535,-2.05075 -0.3275,-0.459 -0.76125,-0.6885 -1.30375,-0.6885 z m 0,-0.900875 c 0.91375,0 1.64125,0.3345 2.1825,1.003375 0.5275,0.644625 0.79125,1.525875 0.79125,2.644125 0,1.25 -0.31,2.2045 -0.93,2.86375 -0.5075,0.542 -1.1775,0.813 -2.0075,0.813 -0.98125,0 -1.735,-0.349125 -2.2625,-1.047375 -0.5125,-0.67875 -0.76875,-1.569875 -0.76875,-2.673375 0,-0.98625 0.22875,-1.804125 0.6875,-2.453625 C 140.32,9.80825 141.08875,9.425 142.08,9.425"
     id="path80"
     style="fill:none;fill-opacity:1;fill-rule:nonzero;stroke:none"
     inkscape:connector-curvature="0" /><path
     d="m 146.6475,16.536875 0,-6.8995 1.0475,0 0,1.296375 c 0.45,-1.044875 1.19875,-1.54775 2.24875,-1.50875 l 0,1.2525 c -0.17625,-0.01962 -0.295,-0.02937 -0.35875,-0.02937 -0.5275,0 -0.9525,0.21725 -1.275,0.651875 -0.2675,0.361375 -0.43375,0.849625 -0.4975,1.464875 -0.0288,0.327125 -0.0437,0.761625 -0.0437,1.303625 l 0,2.468375 -1.12125,0"
     id="path82"
     style="fill:none;fill-opacity:1;fill-rule:nonzero;stroke:none"
     inkscape:connector-curvature="0" /><path
     d="m 154.69625,13.182375 c -0.69875,0.02925 -1.2425,0.08788 -1.63375,0.17575 -0.415,0.09275 -0.725,0.246625 -0.93,0.461375 -0.24875,0.254 -0.37375,0.556625 -0.37375,0.90825 0,0.3125 0.105,0.581 0.315,0.805625 0.2,0.21 0.45875,0.315 0.77625,0.315 0.39125,0 0.745,-0.13675 1.0625,-0.41025 0.3025,-0.263625 0.5175,-0.607875 0.645,-1.032625 0.0925,-0.307625 0.13875,-0.590875 0.13875,-0.849625 l 0,-0.3735 z m 1.72875,2.417 0,0.86425 c -0.22,0.136625 -0.455,0.205 -0.70375,0.205 -0.3025,0 -0.5375,-0.09025 -0.7025,-0.271 -0.16625,-0.17575 -0.25,-0.415 -0.25,-0.71775 l 0,-0.19775 c -0.55125,0.84475 -1.25375,1.267125 -2.10875,1.267125 -0.5325,0 -0.98375,-0.15625 -1.355,-0.46875 -0.44875,-0.376 -0.67375,-0.88625 -0.67375,-1.53075 0,-0.712875 0.27125,-1.269625 0.8125,-1.67 0.405,-0.30275 0.98375,-0.493125 1.73625,-0.57125 0.33625,-0.03412 0.8425,-0.061 1.51625,-0.08062 l 0,-0.6445 c 0,-0.96675 -0.45125,-1.450125 -1.355,-1.450125 -0.5325,0 -0.91625,0.1855 -1.15,0.556625 -0.1225,0.200125 -0.2,0.49075 -0.235,0.8715 l -1.09125,0 c 0.035,-0.722625 0.25875,-1.284125 0.67375,-1.6845 0.445,-0.434625 1.0725,-0.651875 1.8825,-0.651875 0.50875,0 0.9625,0.107375 1.3625,0.32225 0.47875,0.25875 0.77625,0.63725 0.89375,1.13525 0.0637,0.278375 0.095,0.75925 0.095,1.442875 l 0,2.607375 c 0.005,0.361375 0.02,0.571375 0.0437,0.63 0.0488,0.1025 0.1325,0.15375 0.25,0.15375 0.10625,0 0.22625,-0.039 0.35875,-0.117125"
     id="path84"
     style="fill:none;fill-opacity:1;fill-rule:nonzero;stroke:none"
     inkscape:connector-curvature="0" /><path
     d="m 156.9425,10.567625 0,-0.93025 0.99625,0 0,-1.032625 0.915,-1.215875 0.205,0 0,2.2485 1.17875,0 0,0.93025 -1.17875,0 0,4.0795 c 0,0.4395 0.0275,0.712875 0.0812,0.820375 0.1025,0.200125 0.29,0.30025 0.56375,0.30025 0.14125,0 0.32,-0.03412 0.53375,-0.1025 l 0,0.922875 c -0.2975,0.06837 -0.55625,0.1025 -0.77625,0.1025 -0.66375,0 -1.1075,-0.183125 -1.3325,-0.549375 -0.0925,-0.161125 -0.14875,-0.40275 -0.16875,-0.725 -0.015,-0.21 -0.0213,-0.51025 -0.0213,-0.900875 l 0,-3.94775 -0.99625,0"
     id="path86"
     style="fill:none;fill-opacity:1;fill-rule:nonzero;stroke:none"
     inkscape:connector-curvature="0" /><path
     d="m 163.99375,10.325875 c -0.54125,0 -0.97625,0.224625 -1.30375,0.673875 -0.37125,0.522375 -0.55625,1.203625 -0.55625,2.043375 0,0.8985 0.18125,1.6065 0.5425,2.124125 0.32125,0.454 0.76875,0.681125 1.34,0.681125 0.5075,0 0.91,-0.192875 1.20875,-0.578625 0.405,-0.53225 0.6075,-1.267125 0.6075,-2.204625 0,-0.869125 -0.17875,-1.55275 -0.535,-2.05075 -0.32625,-0.459 -0.76125,-0.6885 -1.30375,-0.6885 z m 0,-0.900875 c 0.91375,0 1.64125,0.3345 2.1825,1.003375 0.5275,0.644625 0.79125,1.525875 0.79125,2.644125 0,1.25 -0.31,2.2045 -0.93,2.86375 -0.5075,0.542 -1.17625,0.813 -2.00625,0.813 -0.9825,0 -1.73625,-0.349125 -2.26375,-1.047375 -0.5125,-0.67875 -0.76875,-1.569875 -0.76875,-2.673375 0,-0.98625 0.22875,-1.804125 0.68875,-2.453625 C 162.23375,9.80825 163.0025,9.425 163.99375,9.425"
     id="path88"
     style="fill:none;fill-opacity:1;fill-rule:nonzero;stroke:none"
     inkscape:connector-curvature="0" /><path
     d="m 168.56375,16.536875 0,-6.8995 1.04625,0 0,1.296375 C 170.06,9.888875 170.80875,9.386 171.85875,9.425 l 0,1.2525 c -0.175,-0.01962 -0.295,-0.02937 -0.35875,-0.02937 -0.5275,0 -0.9525,0.21725 -1.27375,0.651875 -0.26875,0.361375 -0.435,0.849625 -0.49875,1.464875 -0.0288,0.327125 -0.0437,0.761625 -0.0437,1.303625 l 0,2.468375 -1.12,0"
     id="path90"
     style="fill:none;fill-opacity:1;fill-rule:nonzero;stroke:none"
     inkscape:connector-curvature="0" /><path
     d="m 173.01375,16.536875 0,-6.8995 1.12125,0 0,6.8995 -1.12125,0 z m 0,-8.474125 0,-1.5235 1.12125,0 0,1.5235 -1.12125,0"
     id="path92"
     style="fill:none;fill-opacity:1;fill-rule:nonzero;stroke:none"
     inkscape:connector-curvature="0" /><path
     d="m 180.3075,12.47925 c -0.0337,-0.49325 -0.125,-0.900875 -0.27125,-1.22325 -0.2825,-0.62 -0.74375,-0.930125 -1.38375,-0.930125 -0.605,0 -1.06,0.28075 -1.3625,0.84225 -0.185,0.34675 -0.31,0.78375 -0.37375,1.311125 l 3.39125,0 z m 1.1425,0.900875 -4.54875,0 c 0.01,0.458875 0.0762,0.86425 0.19875,1.21575 0.2925,0.835 0.8275,1.2525 1.60375,1.2525 0.61,0 1.05,-0.26125 1.31875,-0.78375 0.0975,-0.190375 0.1875,-0.4345 0.27,-0.732375 l 1.085,0 c -0.1075,0.5615 -0.29625,1.025375 -0.565,1.391625 -0.4975,0.6835 -1.19875,1.025375 -2.10125,1.025375 -0.99625,0 -1.74875,-0.380875 -2.25625,-1.142625 -0.45875,-0.67875 -0.68875,-1.525875 -0.68875,-2.5415 0,-1.054625 0.26125,-1.92875 0.78375,-2.622 0.5175,-0.67875 1.21375,-1.018125 2.0875,-1.018125 0.7225,0 1.32375,0.224625 1.8025,0.673875 0.5175,0.493125 0.8325,1.2255 0.94375,2.19725 0.035,0.288 0.0563,0.649375 0.0662,1.084"
     id="path94"
     style="fill:none;fill-opacity:1;fill-rule:nonzero;stroke:none"
     inkscape:connector-curvature="0" /><path
     d="m 182.48,14.588625 1.15,0 c 0.03,0.82025 0.47875,1.230375 1.3475,1.230375 0.42,0 0.735,-0.105 0.945,-0.314875 0.17625,-0.180625 0.26375,-0.412625 0.26375,-0.695875 0,-0.38575 -0.2,-0.700625 -0.6,-0.94475 -0.15125,-0.09275 -0.515,-0.2515 -1.09125,-0.476125 -0.62,-0.244125 -1.06,-0.505375 -1.31875,-0.783625 -0.3225,-0.351625 -0.48375,-0.776375 -0.48375,-1.2745 0,-0.59075 0.2125,-1.066875 0.6375,-1.428125 0.37125,-0.317375 0.86875,-0.476125 1.49375,-0.476125 0.89375,0 1.53125,0.30275 1.9125,0.90825 0.185,0.288 0.2975,0.649375 0.33625,1.084 l -1.1125,0 c -0.02,-0.30275 -0.105,-0.547 -0.25625,-0.7325 -0.21,-0.249 -0.50625,-0.3735 -0.88625,-0.3735 -0.3575,0 -0.625,0.1025 -0.80625,0.307625 -0.15125,0.170875 -0.2275,0.38575 -0.2275,0.6445 0,0.278375 0.0975,0.502875 0.29375,0.673875 0.195,0.166 0.57125,0.354 1.1275,0.563875 0.7375,0.2735 1.2475,0.529875 1.53125,0.769125 0.43875,0.371 0.65875,0.84475 0.65875,1.420875 0,0.625 -0.215,1.130375 -0.645,1.516125 -0.4,0.36125 -0.95875,0.542 -1.67625,0.542 -1.065,0 -1.8075,-0.337 -2.2275,-1.01075 -0.21875,-0.34675 -0.34125,-0.73 -0.36625,-1.149875"
     id="path96"
     style="fill:none;fill-opacity:1;fill-rule:nonzero;stroke:none"
     inkscape:connector-curvature="0" /></svg>