<?xml version="1.0" encoding="UTF-8" standalone="no"?>
<!-- Created with Inkscape (http://www.inkscape.org/) -->

<svg
   xmlns:dc="http://purl.org/dc/elements/1.1/"
   xmlns:cc="http://creativecommons.org/ns#"
   xmlns:rdf="http://www.w3.org/1999/02/22-rdf-syntax-ns#"
   xmlns:svg="http://www.w3.org/2000/svg"
   xmlns="http://www.w3.org/2000/svg"
   version="1.1"
   width="362.8125"
   height="195.39999"
   id="svg3004"
   xml:space="preserve"><metadata
     id="metadata3010"><rdf:RDF><cc:Work
         rdf:about=""><dc:format>image/svg+xml</dc:format><dc:type
           rdf:resource="http://purl.org/dc/dcmitype/StillImage" /><dc:title></dc:title></cc:Work></rdf:RDF></metadata><defs
     id="defs3008"><clipPath
       id="clipPath3020"><path
         d="m 0,0 2902.52,0 0,1563 L 0,1563 0,0 z"
         id="path3022" /></clipPath></defs><g
     transform="matrix(1.25,0,0,-1.25,0,195.4)"
     id="g3012"><g
       transform="scale(0.1,0.1)"
       id="g3014"><g
         id="g3016"><g
           clip-path="url(#clipPath3020)"
           id="g3018"><path
             d="M 304.574,435.559 0,1236.2 l 143.242,0 171.891,-479.485 c 18.597,-51.758 35.683,-105.547 51.262,-161.328 12.066,42.207 28.902,92.968 50.515,152.285 l 177.918,488.528 139.473,0 -303.067,-800.641 -126.66,0"
             id="path3024"
             style="fill:#1f6430;fill-opacity:1;fill-rule:nonzero;stroke:none" /><path
             d="m 788.559,435.559 135.703,0 0,800.645 -135.703,0 0,-800.645 z"
             id="path3026"
             style="fill:#1f6430;fill-opacity:1;fill-rule:nonzero;stroke:none" /><path
             d="m 1026.37,435.559 0,800.641 122.14,0 0,-121.38 c 31.16,56.8 59.93,94.25 86.32,112.34 26.39,18.09 55.41,27.14 87.07,27.14 45.74,0 92.23,-14.58 139.48,-43.73 l -46.75,-125.9 c -33.17,19.6 -66.34,29.4 -99.51,29.4 -29.65,0 -56.29,-8.92 -79.91,-26.76 -23.63,-17.85 -40.46,-42.6 -50.52,-74.26 -15.08,-48.253 -22.61,-101.027 -22.61,-158.32 l 0,-419.171 -135.71,0"
             id="path3028"
             style="fill:#1f6430;fill-opacity:1;fill-rule:nonzero;stroke:none" /><path
             d="m 2035.09,435.559 0,117.601 c -62.33,-90.469 -147.01,-135.699 -254.06,-135.699 -47.25,0 -91.36,9.039 -132.32,27.148 -40.97,18.082 -71.37,40.84 -91.22,68.223 -19.85,27.398 -33.8,60.934 -41.85,100.641 -5.52,26.64 -8.29,68.867 -8.29,126.66 l 0,496.067 135.71,0 0,-444.044 c 0,-70.871 2.76,-118.625 8.29,-143.254 8.54,-35.683 26.64,-63.691 54.28,-84.043 27.64,-20.371 61.82,-30.55 102.53,-30.55 40.72,0 78.91,10.429 114.59,31.293 35.69,20.859 60.94,49.257 75.78,85.195 14.82,35.937 22.23,88.086 22.23,156.437 l 0,428.966 135.7,0 0,-800.641 -121.37,0"
             id="path3030"
             style="fill:#1f6430;fill-opacity:1;fill-rule:nonzero;stroke:none" /><path
             d="m 2237.49,674.547 134.2,21.113 c 7.54,-53.789 28.52,-95 62.95,-123.652 34.42,-28.649 82.55,-42.969 144.37,-42.969 62.32,0 108.56,12.699 138.71,38.066 30.16,25.391 45.24,55.176 45.24,89.336 0,30.664 -13.32,54.786 -39.95,72.383 -18.61,12.071 -64.84,27.383 -138.72,45.992 -99.51,25.129 -168.5,46.868 -206.95,65.211 -38.45,18.344 -67.6,43.727 -87.46,76.149 -19.85,32.414 -29.77,68.226 -29.77,107.434 0,35.68 8.16,68.73 24.5,99.13 16.34,30.41 38.57,55.67 66.72,75.77 21.11,15.58 49.88,28.77 86.33,39.58 36.43,10.8 75.5,16.21 117.22,16.21 62.83,0 117.99,-9.05 165.49,-27.14 47.49,-18.09 82.55,-42.6 105.17,-73.5 22.61,-30.92 38.19,-72.26 46.74,-124.02 l -132.69,-18.1 c -6.03,41.22 -23.5,73.38 -52.39,96.5 -28.91,23.12 -69.74,34.68 -122.51,34.68 -62.33,0 -106.81,-10.31 -133.45,-30.91 -26.63,-20.61 -39.95,-44.73 -39.95,-72.37 0,-17.6 5.53,-33.43 16.58,-47.499 11.06,-14.574 28.4,-26.64 52.02,-36.187 13.58,-5.027 53.53,-16.586 119.88,-34.684 95.99,-25.632 162.96,-46.613 200.91,-62.949 37.94,-16.336 67.73,-40.082 89.34,-71.242 21.61,-31.16 32.41,-69.871 32.41,-116.102 0,-45.234 -13.19,-87.832 -39.58,-127.789 -26.39,-39.968 -64.45,-70.859 -114.21,-92.738 -49.76,-21.852 -106.05,-32.789 -168.87,-32.789 -104.05,0 -183.33,21.621 -237.87,64.84 -54.53,43.219 -89.33,107.304 -104.41,192.246"
             id="path3032"
             style="fill:#1f6430;fill-opacity:1;fill-rule:nonzero;stroke:none" /><path
             d="m 966.387,1455.22 c 0,-59.61 -48.383,-108 -108.004,-108 -59.613,0 -107.996,48.39 -107.996,108 0,59.62 48.383,108 107.996,108 59.621,0 108.004,-48.38 108.004,-108"
             id="path3034"
             style="fill:#ee2c30;fill-opacity:1;fill-rule:nonzero;stroke:none" /><path
             d="m 2824.68,1.17188 c 39.73,0 77.84,39.50782 77.84,79.25782 0,39.7423 -0.28,273.9023 -0.28,273.9023 l -2115.56,0 L 790.156,0 C 1471.02,0.289062 2081.49,0.878906 2824.68,1.17188"
             id="path3036"
             style="fill:#ee2c30;fill-opacity:1;fill-rule:nonzero;stroke:none" /><path
             d="m 983.867,82.9688 -56,0 0,182.9802 c 24.668,1.18 41.957,1.762 51.875,1.762 19.004,0 33.858,-4.063 44.568,-12.191 10.7,-8.122 16.06,-19.719 16.06,-34.801 0,-14.508 -7.67,-25.957 -23,-34.379 22.75,-7.918 34.12,-24.25 34.12,-49 0,-16.66 -6.29,-29.899 -18.87,-39.6916 -12.59,-9.7773 -28.84,-14.6796 -48.753,-14.6796 z m -23.5,156.9922 0,-43.871 c 5,-0.328 10.254,-0.512 15.75,-0.512 21.168,0 31.753,7.973 31.753,23.891 0,14.082 -9.628,21.109 -28.878,21.109 -5.082,0 -11.293,-0.187 -18.625,-0.617 z m 0,-69.242 0,-60.508 c 6.586,-0.582 11.918,-0.883 16,-0.883 14.5,0 25.023,2.461 31.563,7.391 6.54,4.922 9.81,13.082 9.81,24.492 0,10.43 -3.04,18.008 -9.12,22.75 -6.09,4.75 -16.71,7.129 -31.878,7.129 -3.168,0 -8.621,-0.141 -16.375,-0.371"
             id="path3038"
             style="fill:#ffffff;fill-opacity:1;fill-rule:nonzero;stroke:none" /><path
             d="m 1175.1,266.09 32.5,0 0,-124.121 c 0,-9.84 3,-17.828 9,-24 6,-6.18 14.25,-9.258 24.75,-9.258 11.75,0 20.9,3.027 27.44,9.059 6.54,6.062 9.81,14.32 9.81,24.82 l 0,123.5 32.5,0 0,-126 c 0,-18.84 -6.31,-33.59 -18.94,-44.2502 -12.62,-10.6679 -29.47,-16 -50.56,-16 -21.25,0 -37.64,5.2188 -49.19,15.629 -11.54,10.4102 -17.31,25.3322 -17.31,44.7422 l 0,125.879"
             id="path3040"
             style="fill:#ffffff;fill-opacity:1;fill-rule:nonzero;stroke:none" /><path
             d="m 1446.13,82.9688 0,183.1212 32.5,0 0,-154.262 82.76,0 0,-28.8592 -115.26,0"
             id="path3042"
             style="fill:#ffffff;fill-opacity:1;fill-rule:nonzero;stroke:none" /><path
             d="m 1685.17,82.9688 0,183.1212 32.5,0 0,-154.262 82.75,0 0,-28.8592 -115.25,0"
             id="path3044"
             style="fill:#ffffff;fill-opacity:1;fill-rule:nonzero;stroke:none" /><path
             d="m 1957.37,237.219 0,-42.891 60.5,0 0,-27.609 -60.5,0 0,-54.891 83,0 0,-28.8592 -115.5,0 0,183.1212 116.88,0 0,-28.871 -84.38,0"
             id="path3046"
             style="fill:#ffffff;fill-opacity:1;fill-rule:nonzero;stroke:none" /><path
             d="m 2246.55,237.219 0,-154.2502 -32.5,0 0,154.2502 -58.25,0 0,28.871 151.63,0 0,-28.871 -60.88,0"
             id="path3048"
             style="fill:#ffffff;fill-opacity:1;fill-rule:nonzero;stroke:none" /><path
             d="m 2430.86,82.9688 32.5,0 0,183.121 -32.5,0 0,-183.121 z"
             id="path3050"
             style="fill:#ffffff;fill-opacity:1;fill-rule:nonzero;stroke:none" /><path
             d="m 2719.38,80.4688 -88.86,115.8712 0,-113.508 -31.25,0 0,183.258 15.62,0 86.5,-110.512 0,110.512 31.25,0 0,-185.6212 -13.26,0"
             id="path3052"
             style="fill:#ffffff;fill-opacity:1;fill-rule:nonzero;stroke:none" /></g></g></g></g></svg>